<svg width="81" height="80" viewBox="0 0 81 80" fill="none" xmlns="http://www.w3.org/2000/svg">
<path d="M3.10426 56.8164C3.25346 56.8083 3.40266 56.8001 3.55639 56.7918C5.01729 57.0399 5.96803 58.2567 6.91768 59.2965C7.34138 59.7576 7.77449 60.2097 8.20604 60.6633C8.75099 61.2369 9.29281 61.8126 9.82401 62.399C12.166 65.122 12.166 65.122 15.3919 66.3382C17.9862 66.2161 19.8969 63.6261 21.5183 61.8479C22.0914 61.2237 22.6781 60.6121 23.2631 59.9991C23.7175 59.5227 24.1695 59.0446 24.6151 58.56C24.6971 58.4716 24.7792 58.3833 24.8637 58.2923C25.0844 58.0545 25.3039 57.8154 25.5232 57.5763C26.1713 56.9833 26.7672 56.8289 27.6316 56.8164C27.7778 56.8117 27.924 56.807 28.0747 56.8021C29.5986 57.0354 30.47 58.0608 31.4601 59.1441C31.8937 59.616 32.3377 60.078 32.7796 60.542C33.3377 61.1297 33.8926 61.7197 34.438 62.3192C36.7816 65.0706 36.7816 65.0706 39.9988 66.3324C42.4601 66.1982 44.2925 63.7117 45.8311 62.0207C46.3769 61.4246 46.9345 60.8396 47.4919 60.2543C47.9254 59.7991 48.3564 59.3422 48.7805 58.8781C49.7088 57.8724 50.5146 57.0301 51.917 56.7963C52.0617 56.7995 52.2065 56.8027 52.3556 56.806C52.5011 56.8062 52.6467 56.8064 52.7967 56.8067C54.7385 57.1172 56.1996 59.1658 57.4499 60.5323C57.8199 60.9252 58.1907 61.3171 58.5625 61.7082C58.9448 62.1114 59.3231 62.5172 59.6944 62.9306C61.7625 65.2891 61.7625 65.2891 64.6218 66.2935C66.8251 66.2184 68.359 64.3427 69.766 62.8424C70.0447 62.5406 70.3222 62.2377 70.5994 61.9343C71.1605 61.3242 71.7343 60.7261 72.3068 60.1267C72.7517 59.6607 73.1943 59.1931 73.6306 58.7191C73.7112 58.6325 73.7918 58.5459 73.8748 58.4566C74.0913 58.2238 74.3066 57.9897 74.5217 57.7556C75.4001 56.9517 76.1676 56.7954 77.3189 56.8312C78.3254 56.9409 78.9233 57.4625 79.5737 58.2031C80.0804 58.9633 80.1 59.7914 79.9876 60.6766C79.6058 61.9858 78.3952 62.8547 77.3676 63.6643C73.1096 66.9669 73.1096 66.9669 71.0275 71.718C70.8297 73.8219 70.9497 75.9636 71.1942 78.0594C71.2136 78.2289 71.233 78.3984 71.253 78.5731C71.2726 78.7211 71.2923 78.8691 71.3125 79.0216C71.2944 79.3981 71.2944 79.3981 71.1229 79.6937C70.6238 80.0023 70.192 79.9606 69.6091 79.9644C69.4887 79.9658 69.3683 79.9672 69.2443 79.9686C68.8461 79.9725 68.4481 79.9727 68.05 79.9725C67.7734 79.9736 67.4969 79.9749 67.2204 79.9763C66.6407 79.9785 66.0611 79.9788 65.4815 79.9778C64.7381 79.9768 63.9949 79.9819 63.2515 79.9886C62.6804 79.9929 62.1094 79.9933 61.5383 79.9927C61.2642 79.993 60.9901 79.9946 60.716 79.9976C60.333 80.0012 59.9503 79.9996 59.5673 79.9967C59.3493 79.997 59.1312 79.9974 58.9066 79.9977C58.3787 79.8948 58.3787 79.8948 58.0553 79.5283C57.8676 79.0286 57.8436 78.7339 57.8945 78.2058C57.9081 78.0371 57.9217 77.8685 57.9357 77.6947C57.9515 77.513 57.9673 77.3312 57.9835 77.1439C58.4234 72.2837 58.4234 72.2837 56.5275 68.0018C55.3088 66.6679 53.8941 65.5307 52.4177 64.4954C52.311 64.59 52.311 64.59 52.2023 64.6866C51.5537 65.2537 50.8875 65.7483 50.1732 66.2321C48.444 67.5149 46.9052 68.8607 46.5702 71.0854C46.3414 73.3842 46.4216 75.7148 46.5708 78.017C46.5818 78.1917 46.5927 78.3663 46.604 78.5462C46.6153 78.6993 46.6266 78.8524 46.6382 79.0101C46.6222 79.3981 46.6222 79.3981 46.291 79.8948C45.8816 79.945 45.5133 79.9627 45.1034 79.9591C44.9812 79.96 44.8589 79.9609 44.733 79.9617C44.3278 79.9639 43.9227 79.9625 43.5174 79.9608C43.2366 79.9611 42.9557 79.9616 42.6748 79.9622C42.0857 79.963 41.4966 79.9619 40.9075 79.9596C40.1513 79.9568 39.3952 79.9584 38.639 79.9614C38.0589 79.9632 37.4788 79.9626 36.8986 79.9613C36.6198 79.961 36.3409 79.9614 36.062 79.9625C35.6726 79.9638 35.2834 79.9619 34.8941 79.9591C34.7781 79.9601 34.6621 79.9611 34.5427 79.9622C34.2219 79.9579 34.2219 79.9579 33.7065 79.8948C33.3292 79.3288 33.3474 79.2122 33.4093 78.562C33.4305 78.3048 33.4305 78.3048 33.4521 78.0424C33.4752 77.7625 33.4752 77.7626 33.4989 77.477C33.9398 72.4989 33.9398 72.4989 31.9834 68.1182C30.7249 66.7428 29.2661 65.5676 27.7454 64.4954C27.6739 64.5588 27.6024 64.6223 27.5288 64.6877C26.892 65.2444 26.2408 65.73 25.5372 66.2017C24.0819 67.2734 22.5888 68.4852 22.1579 70.3186C21.8035 72.7365 21.9212 75.2384 22.0872 77.6693C22.1028 77.9271 22.1028 77.9271 22.1188 78.19C22.1355 78.4149 22.1355 78.4149 22.1526 78.6443C22.1037 79.2019 21.9904 79.4736 21.6188 79.8948C21.0909 79.9977 21.0909 79.9977 20.4303 79.9967C20.2496 79.9981 20.2496 79.9981 20.0654 79.9995C19.6672 80.0014 19.2693 79.9974 18.8711 79.9932C18.5946 79.9929 18.318 79.9929 18.0415 79.9932C17.4618 79.9929 16.8823 79.9898 16.3027 79.9846C15.5593 79.978 14.816 79.9773 14.0726 79.9785C13.5016 79.979 12.9305 79.977 12.3595 79.9742C12.0854 79.973 11.8113 79.9725 11.5371 79.9727C11.1542 79.9724 10.7714 79.9688 10.3884 79.9644C10.1704 79.963 9.95236 79.9616 9.72774 79.9601C9.19987 79.8948 9.19987 79.8948 8.87364 79.6927C8.63725 79.2843 8.68788 79.0528 8.76028 78.5888C8.78286 78.4225 8.80545 78.2562 8.82872 78.0848C8.8658 77.8121 8.8658 77.8121 8.90363 77.534C9.42213 72.6222 9.42213 72.6222 7.50364 68.2553C5.54648 65.9106 3.15409 63.8999 0.770585 62.0035C0.270793 61.5378 0.112876 61.1978 0.0370507 60.5233C0.0236151 59.3799 0.0240703 58.6105 0.755019 57.7064C1.52514 57.1091 2.13658 56.8519 3.10426 56.8164ZM2.24529 59.3622C2.1063 59.8158 2.1063 59.8158 2.24529 60.3558C3.03959 61.4611 4.1058 62.4011 5.06929 63.3557C5.22693 63.5126 5.38451 63.6695 5.54204 63.8265C6.03641 64.319 6.53144 64.8109 7.02657 65.3026C7.60426 65.8764 8.18167 66.4504 8.7584 67.0252C8.98858 67.2543 9.21926 67.4829 9.44995 67.7115C9.65814 67.9189 9.65814 67.9189 9.87054 68.1304C9.99317 68.2522 10.1158 68.3739 10.2421 68.4994C10.7048 68.9928 10.7132 69.3144 10.7241 69.975C10.7275 70.1531 10.7308 70.3313 10.7343 70.5148C10.737 70.7026 10.7397 70.8904 10.7425 71.0839C10.7456 71.2561 10.7487 71.4283 10.7519 71.6057C10.7632 72.2506 10.7732 72.8955 10.7833 73.5405C10.8072 74.9817 10.8311 76.4229 10.8557 77.9078C13.8611 77.9078 16.8665 77.9078 19.9629 77.9078C19.8673 76.5281 19.7717 75.1483 19.6732 73.7268C19.6002 70.7917 19.8181 68.6523 21.8631 66.4397C23.1696 65.1254 24.5956 63.9343 26.0896 62.8395C25.9363 62.6174 25.7806 62.3969 25.6239 62.1772C25.5374 62.0542 25.451 61.9313 25.3619 61.8046C25.2742 61.709 25.1865 61.6134 25.0961 61.5149C24.5999 61.459 24.5999 61.459 24.3312 61.76C24.1855 61.9321 24.1855 61.9321 24.0368 62.1077C23.925 62.2369 23.8132 62.3662 23.698 62.4993C23.5767 62.6406 23.4553 62.7819 23.3303 62.9275C18.5723 68.2715 18.5723 68.2715 16.1674 68.474C15.8046 68.4832 15.4506 68.4722 15.0885 68.4487C14.9749 68.4422 14.8612 68.4357 14.7441 68.4291C12.4385 68.2462 11.3373 66.8246 9.79644 65.2497C9.45721 64.9034 9.11634 64.5588 8.77559 64.214C8.14394 63.5748 7.513 62.9349 6.88471 62.2924C6.44478 61.8427 6.00286 61.395 5.55955 60.9485C5.39171 60.7788 5.22462 60.6082 5.05831 60.4369C4.82658 60.1984 4.59203 59.9627 4.35735 59.7271C4.22493 59.5923 4.09251 59.4576 3.95607 59.3187C3.59096 58.9994 3.59096 58.9994 3.13784 58.9669C2.69943 59.0099 2.69943 59.0099 2.24529 59.3622ZM27.0107 59.3001C26.7129 59.6688 26.7129 59.6688 26.77 60.0789C26.9637 60.6599 27.2581 60.9404 27.6937 61.3701C27.7742 61.4504 27.8547 61.5308 27.9377 61.6135C28.2032 61.8778 28.4711 62.1397 28.739 62.4016C28.9241 62.5851 29.1091 62.7688 29.2939 62.9526C29.7803 63.4355 30.2685 63.9164 30.7572 64.3968C31.5399 65.1671 32.3196 65.9405 33.0996 66.7135C33.3726 66.9836 33.6462 67.2529 33.92 67.522C34.0869 67.6867 34.2537 67.8514 34.4206 68.0161C34.6399 68.2319 34.6399 68.2319 34.8637 68.452C35.363 68.9745 35.3847 69.2691 35.3964 69.975C35.3997 70.1531 35.4031 70.3313 35.4065 70.5148C35.4092 70.7026 35.412 70.8904 35.4148 71.0839C35.4179 71.2561 35.4209 71.4283 35.4241 71.6057C35.4355 72.2506 35.4454 72.8955 35.4555 73.5405C35.4794 74.9817 35.5033 76.4229 35.528 77.9078C38.4787 77.9078 41.4294 77.9078 44.4696 77.9078C44.4781 75.0793 44.4781 75.0793 44.4741 72.2507C44.4775 71.8941 44.4814 71.5375 44.4857 71.1809C44.4822 70.9068 44.4822 70.9068 44.4786 70.6272C44.4985 69.5271 44.6439 68.9123 45.4363 68.1351C45.6135 67.9728 45.6135 67.9728 45.7942 67.8071C46.0606 67.538 46.3265 67.2684 46.592 66.9984C46.8928 66.701 47.1939 66.404 47.4954 66.1073C47.6567 65.9475 47.818 65.7876 47.9793 65.6277C48.6579 64.9545 49.3373 64.2821 50.0184 63.6114C50.4373 63.1986 50.8551 62.7847 51.2721 62.3699C51.5072 62.1368 51.7437 61.905 51.9801 61.6732C52.1223 61.5317 52.2644 61.3901 52.4108 61.2443C52.5991 61.0584 52.5991 61.0584 52.7913 60.8687C53.0856 60.5146 53.194 60.3118 53.2456 59.859C53.1753 59.4838 53.1753 59.4838 52.9144 59.1967C52.4742 58.9572 52.4742 58.9572 51.9209 59.0311C50.8573 59.7456 50.0273 60.8017 49.187 61.754C48.7115 62.287 48.2226 62.8077 47.735 63.3295C47.312 63.7835 46.8956 64.2411 46.4907 64.7113C44.8811 66.5718 43.3075 68.1871 40.7527 68.4559C38.7551 68.5749 37.1733 68.1805 35.628 66.8857C34.602 65.9702 33.6891 64.9495 32.7869 63.9141C32.222 63.2724 31.6368 62.6492 31.0536 62.0241C30.6012 61.5387 30.1527 61.0513 29.714 60.5535C29.6332 60.4634 29.5525 60.3733 29.4693 60.2805C29.2522 60.0382 29.0373 59.7941 28.8225 59.5497C28.2207 59.0374 27.6929 58.8453 27.0107 59.3001ZM75.5332 59.8341C75.448 59.9194 75.3628 60.0047 75.2751 60.0926C74.9942 60.3749 74.7165 60.6599 74.4386 60.945C74.244 61.1416 74.0492 61.3379 73.8542 61.5341C73.3416 62.0508 72.8314 62.5699 72.3218 63.0897C71.6024 63.8223 70.8797 64.5518 70.1574 65.2816C69.7727 65.6703 69.3889 66.06 69.0059 66.4503C68.8311 66.6278 68.6563 66.8052 68.4816 66.9827C68.3289 67.1382 68.1762 67.2938 68.0189 67.454C67.0104 68.4232 65.2317 68.454 63.8843 68.4436C60.7047 68.235 58.4913 64.9982 56.5217 62.7981C56.3959 62.6532 56.27 62.5083 56.1404 62.359C56.0253 62.2264 55.9101 62.0939 55.7915 61.9573C55.6408 61.7808 55.6408 61.7808 55.4871 61.6007C55.253 61.3105 55.253 61.3105 54.9014 61.3493C54.6382 61.6834 54.6382 61.6834 54.384 62.0944C54.2948 62.2327 54.2056 62.371 54.1136 62.5135C54.0457 62.6211 53.9779 62.7287 53.9079 62.8395C54.0194 62.9212 54.0194 62.9212 54.1331 63.0046C59.5838 67.0605 59.5838 67.0605 60.1676 69.9768C60.5173 72.6396 60.221 75.218 60.0346 77.9078C63.04 77.9078 66.0453 77.9078 69.1418 77.9078C69.1504 75.0793 69.1504 75.0793 69.1464 72.2507C69.1498 71.8941 69.1536 71.5375 69.158 71.1809C69.1544 70.9068 69.1544 70.9068 69.1508 70.6272C69.1708 69.5258 69.3173 68.9101 70.1107 68.1318C70.2281 68.0247 70.3455 67.9175 70.4665 67.8071C70.7276 67.5455 70.9885 67.2837 71.249 67.0215C71.5429 66.7343 71.837 66.4475 72.1314 66.1609C72.4517 65.8464 72.7714 65.5313 73.0913 65.2163C73.5914 64.724 74.0924 64.2326 74.5958 63.7437C74.9265 63.4223 75.2559 63.0997 75.5838 62.7755C75.8913 62.4716 76.2006 62.1697 76.512 61.8699C77.3585 61.0734 77.3585 61.0734 77.7769 60.0259C77.7909 59.538 77.7909 59.538 77.566 59.207C76.6722 58.7006 76.1767 59.1808 75.5332 59.8341Z" fill="#B31A1C"/>
<path d="M12.512 13.8274C13.0293 14.2548 13.4611 14.6223 13.545 15.31C13.549 15.4355 13.5531 15.561 13.5572 15.6903C13.5665 15.876 13.5665 15.876 13.576 16.0654C13.446 16.8237 13.106 17.2825 12.4938 17.72C12.0779 17.9733 11.6565 18.2106 11.2287 18.4431C11.0816 18.5255 10.9346 18.6079 10.783 18.6928C10.4222 18.8946 10.0602 19.0941 9.69704 19.2918C10.0386 19.6591 10.3635 19.9081 10.8044 20.1456C10.9201 20.209 11.0358 20.2724 11.155 20.3377C11.2749 20.4023 11.3949 20.467 11.5185 20.5337C11.7569 20.6622 11.995 20.7916 12.2326 20.9217C12.3904 21.0068 12.3904 21.0068 12.5514 21.0935C13.0765 21.427 13.3068 21.6762 13.5055 22.2723C13.5566 22.6061 13.5566 22.6061 13.5779 22.976C13.593 23.1566 13.593 23.1566 13.6083 23.3408C13.4126 24.1436 12.8407 24.7007 12.1664 25.154C11.797 25.3621 11.4236 25.5535 11.0424 25.7392C10.8478 25.838 10.8478 25.838 10.6492 25.9388C10.3329 26.0988 10.0151 26.2557 9.69704 26.4119C9.69704 26.5212 9.69704 26.6305 9.69704 26.7431C9.84362 26.8194 9.84362 26.8194 9.99316 26.8972C10.4373 27.1299 10.8795 27.3659 11.3218 27.6021C11.4756 27.682 11.6294 27.762 11.7879 27.8443C12.0096 27.9636 12.0096 27.9636 12.2358 28.0853C12.3719 28.1572 12.5081 28.2292 12.6483 28.3034C13.173 28.6836 13.4545 29.1282 13.5773 29.7644C13.5776 29.944 13.5776 29.944 13.5779 30.1273C13.5811 30.2466 13.5843 30.3659 13.5876 30.4888C13.4411 31.1917 13.1189 31.6915 12.5174 32.0945C11.9973 32.3815 11.4667 32.6433 10.9334 32.9047C10.0986 33.3355 9.72814 33.6231 9.36587 34.5256C8.86911 34.8568 8.86911 34.8568 8.27921 34.8257C7.71001 34.6912 7.71001 34.6912 7.37884 34.1945C7.30861 33.4394 7.44611 32.7301 7.8963 32.1143C8.73029 31.2349 9.94808 30.7463 11.0217 30.2204C10.321 29.6519 9.52496 29.2941 8.71905 28.8977C8.03943 28.4557 7.66659 27.9656 7.42606 27.1888C7.33326 26.3015 7.37763 25.6979 7.8756 24.9217C8.34031 24.5309 8.83913 24.2282 9.36587 23.9282C9.57814 23.8065 9.57814 23.8065 9.79471 23.6824C10.1466 23.4845 10.5001 23.2905 10.8561 23.1002C10.8561 22.9909 10.8561 22.8817 10.8561 22.7691C10.6016 22.6429 10.6016 22.6429 10.3419 22.5142C10.1165 22.3992 9.89124 22.2841 9.66599 22.1688C9.55446 22.114 9.44293 22.0591 9.32803 22.0026C8.39859 21.522 7.72186 20.9832 7.37884 19.9541C7.31314 19.0835 7.39623 18.5365 7.8756 17.8015C8.75478 16.8992 9.91266 16.3855 11.0217 15.8145C11.004 15.7127 10.9863 15.6108 10.968 15.5059C10.9482 15.3721 10.9283 15.2383 10.9079 15.1004C10.8867 14.9678 10.8656 14.8353 10.8438 14.6987C10.8561 14.3242 10.8561 14.3242 11.0664 14.0325C11.5528 13.6844 11.9352 13.7479 12.512 13.8274Z" fill="#B31A1C"/>
<path d="M55.2845 27.0211C55.953 27.0394 56.3724 27.1141 56.8886 27.5696C57.3705 28.3007 57.5132 28.856 57.3854 29.7222C56.9287 30.7391 56.3239 31.6819 55.7101 32.6103C55.5367 32.867 55.5367 32.867 55.5639 33.1995C55.6732 33.1961 55.7825 33.1926 55.8951 33.189C56.3953 33.1752 56.8954 33.1666 57.3957 33.1581C57.5676 33.1526 57.7396 33.147 57.9167 33.1413C58.9956 33.1276 59.6628 33.2019 60.5315 33.8619C60.9839 34.5971 61.0798 35.1346 60.9571 35.9861C60.7848 36.642 60.4125 37.1665 60.0347 37.7221C59.8825 37.9523 59.7307 38.1828 59.5794 38.4135C59.5119 38.5135 59.4445 38.6135 59.375 38.7164C59.1788 39.0183 59.1788 39.0183 59.0412 39.4918C59.1614 39.4883 59.2816 39.4848 59.4054 39.4813C59.9533 39.4675 60.501 39.4589 61.0489 39.4504C61.238 39.4448 61.4272 39.4393 61.622 39.4336C63.4046 39.4128 63.4046 39.4128 64.1744 40.1541C64.5577 40.7269 64.6312 41.2761 64.6271 41.9562C64.4297 42.794 63.9399 43.4559 63.4388 44.1471C62.8635 44.9684 62.7917 45.4484 62.8497 46.4464C62.5909 46.9535 62.5909 46.9535 62.1873 47.2743C61.5635 47.2852 61.1963 47.2543 60.7178 46.8396C60.259 45.8711 60.3535 45.1145 60.6971 44.1282C60.9275 43.7 61.1904 43.299 61.4629 42.8966C61.5673 42.7386 61.5673 42.7386 61.6738 42.5774C61.8436 42.3207 62.0153 42.0652 62.1873 41.81C61.9895 41.8157 61.7916 41.8215 61.5877 41.8274C58.666 41.8879 58.666 41.8879 57.7165 41.3132C57.1181 40.7148 56.8671 40.1661 56.8162 39.3262C56.8263 38.2913 57.3467 37.532 57.8821 36.6768C57.9647 36.5415 58.0473 36.4062 58.1324 36.2668C58.3217 35.9598 58.5153 35.6556 58.71 35.3521C58.5732 35.3784 58.4364 35.4047 58.2954 35.4317C57.1174 35.6068 55.4589 35.8175 54.3634 35.259C53.6046 34.5865 53.2913 34.0554 53.1629 33.0443C53.233 31.8289 54.0164 30.8501 54.6914 29.8846C54.9281 29.5448 54.9281 29.5448 55.0672 29.0599C54.9135 29.0343 54.9135 29.0343 54.7567 29.0082C54.4048 28.8943 54.4048 28.8943 54.0736 28.3976C54.15 27.4625 54.3029 27.0261 55.2845 27.0211Z" fill="#B31A1C"/>
<path d="M18.5868 54.1771C19.8012 55.0334 20.4961 56.19 20.905 57.6027C21.1166 59.3797 20.798 60.8702 19.7401 62.3367C18.7252 63.5868 17.522 64.2152 15.9116 64.393C14.0775 64.4528 12.7601 63.9914 11.3489 62.827C10.3233 61.8278 9.82913 60.5999 9.79958 59.1773C9.80247 57.9417 9.83729 56.9546 10.5249 55.8847C10.5829 55.7821 10.641 55.6794 10.7008 55.5736C11.4203 54.4169 12.638 53.6912 13.9278 53.313C15.6433 52.9847 17.1132 53.2758 18.5868 54.1771ZM12.5015 56.8162C11.9148 57.8382 11.8098 58.9267 12.1167 60.0722C12.5119 60.9742 13.1655 61.5149 14.0022 62.0114C14.9427 62.3249 15.9463 62.3295 16.8585 61.9183C17.7159 61.4271 18.2913 60.7518 18.7006 59.8588C18.9512 58.6562 18.7862 57.749 18.1418 56.7127C17.3856 55.8704 16.5986 55.3932 15.4614 55.3155C14.2833 55.347 13.2042 55.8624 12.5015 56.8162Z" fill="#B31A1C"/>
<path d="M68.1174 54.2712C69.0905 55.0343 69.9117 56.1483 70.1354 57.376C70.2572 58.9036 70.3406 60.3529 69.4731 61.6812C69.4048 61.796 69.3365 61.9109 69.2661 62.0292C68.4595 63.2529 67.2253 63.9445 65.8302 64.3306C63.9706 64.5221 62.3726 64.2718 60.8937 63.0887C59.7289 61.9741 59.0361 60.4472 58.9998 58.8352C59.0247 57.3372 59.5624 56.029 60.5315 54.8922C62.7239 52.888 65.6083 52.6481 68.1174 54.2712ZM61.9597 56.6101C61.2908 57.4643 61.0838 58.2815 61.1938 59.363C61.5704 60.653 62.2602 61.3978 63.3982 62.0745C64.4945 62.3294 65.5286 62.3111 66.5217 61.7491C67.2112 61.216 67.7085 60.5171 67.9828 59.6942C68.0828 58.6794 68.0803 57.7452 67.565 56.8443C66.9443 56.0922 65.984 55.4672 65.0055 55.3495C63.7251 55.3064 62.8304 55.6592 61.9597 56.6101Z" fill="#B31A1C"/>
<path d="M43.2299 54.1533C44.5858 55.1327 45.1986 56.2353 45.5559 57.8583C45.7789 59.4155 45.4329 60.9105 44.552 62.2146C43.6546 63.3265 42.5223 63.9433 41.1582 64.3297C39.2339 64.5257 37.6714 64.1872 36.1602 62.9629C34.9656 61.8146 34.407 60.3658 34.3536 58.7172C34.442 57.1383 35.0747 55.6903 36.1906 54.5601C38.3601 52.9429 40.8983 52.721 43.2299 54.1533ZM37.1841 56.7127C36.675 57.4852 36.476 58.2775 36.5218 59.1965C36.7933 60.3887 37.3226 61.1795 38.3432 61.8459C39.1041 62.2983 39.9667 62.282 40.827 62.1771C41.7928 61.882 42.4207 61.3676 42.9796 60.5212C43.4586 59.583 43.5574 58.8009 43.2991 57.7774C42.925 56.7997 42.2917 55.9867 41.3237 55.5536C39.7617 54.9612 38.3144 55.6082 37.1841 56.7127Z" fill="#B31A1C"/>
<path d="M64.4846 0C65.0791 0.016215 65.1378 0.0522767 65.5816 0.507105C65.8663 1.15956 65.9305 1.5312 65.8299 2.2354C65.5905 2.77665 65.3921 3.11342 64.8558 3.38933C63.8883 3.73611 62.8681 3.89602 61.8559 4.05684C61.9716 4.18064 62.0873 4.30444 62.2065 4.432C62.3587 4.59668 62.5109 4.76141 62.6631 4.92617C62.7393 5.00749 62.8155 5.08881 62.894 5.1726C63.4797 5.80916 63.8093 6.23781 63.905 7.09947C63.8314 7.8108 63.6283 8.14313 63.1806 8.69323C62.7206 8.99987 62.5375 9.07974 62.0195 9.16541C61.8941 9.18676 61.7687 9.2081 61.6395 9.23009C61.5094 9.25101 61.3793 9.27193 61.2453 9.29348C61.0473 9.32678 61.0473 9.32678 60.8452 9.36075C60.52 9.41529 60.1944 9.46837 59.8689 9.52116C59.9984 9.65884 60.128 9.79651 60.2615 9.93836C60.4308 10.1201 60.6 10.3018 60.7692 10.4836C60.8547 10.5742 60.9402 10.6648 61.0283 10.7582C61.5939 11.3682 61.8351 11.7244 61.8973 12.5638C61.8444 13.3302 61.6396 13.7347 61.0765 14.2513C60.5946 14.5526 60.1925 14.6094 59.6308 14.6854C59.3545 14.7247 59.3545 14.7247 59.0726 14.7649C58.6148 14.8125 58.1759 14.8311 57.7163 14.8199C57.6821 14.9258 57.648 15.0316 57.6128 15.1407C57.3851 15.4822 57.3851 15.4822 56.909 15.6375C56.3916 15.6478 56.3916 15.6478 55.9983 15.4926C55.6574 15.0599 55.6266 14.7016 55.6536 14.1576C55.7819 13.5957 56.114 13.3409 56.5572 12.9985C57.137 12.636 57.6611 12.6044 58.3372 12.5638C58.531 12.5514 58.7248 12.539 58.9245 12.5263C59.0722 12.5182 59.2199 12.5101 59.3721 12.5017C59.2581 12.3784 59.2581 12.3784 59.1418 12.2527C57.631 10.5799 57.631 10.5799 57.4679 9.43837C57.5688 8.73205 57.7586 8.24983 58.213 7.69972C59.0761 7.074 60.161 7.01382 61.1936 6.87179C61.1156 6.78577 61.0377 6.69975 60.9575 6.61113C59.4405 4.91204 59.4405 4.91204 59.4898 3.72438C59.5852 3.067 59.8373 2.57471 60.3339 2.13709C61.2477 1.55071 62.4529 1.52702 63.5118 1.57306C63.5049 1.38864 63.4981 1.20422 63.4911 1.01421C63.5203 0.16637 63.6502 0.107663 64.4846 0Z" fill="#B31A1C"/>
<path d="M32.3611 35.6222C32.724 35.6293 32.724 35.6293 33.0441 35.6843C33.471 36.1406 33.5878 36.6622 33.7686 37.247C34.0444 38.0941 34.4016 38.7396 35.2097 39.1862C35.5877 39.3572 35.9681 39.5108 36.3558 39.6584C37.494 40.1132 37.494 40.1132 37.6805 40.4863C37.7565 41.3792 37.7565 41.3792 37.4807 41.7444C37.1186 42.0275 36.8107 42.1127 36.3662 42.2249C35.7492 42.3813 35.3662 42.5808 34.8656 42.9701C34.7563 42.9701 34.647 42.9701 34.5344 42.9701C34.2833 43.4533 34.0774 43.9418 33.8824 44.45C33.3661 45.7324 33.3661 45.7324 33.0441 46.1162C32.5577 46.2818 32.5577 46.2818 32.0506 46.2818C31.4209 45.9276 31.2587 45.5609 31.0468 44.8847C30.8476 44.2565 30.6318 43.8203 30.2292 43.3013C30.2292 43.192 30.2292 43.0827 30.2292 42.9701C29.5931 42.6255 28.9194 42.3912 28.2422 42.1422C27.4542 41.8509 27.4542 41.8509 27.0831 41.4798C27.021 41.0038 27.021 41.0038 27.0831 40.4863C27.5426 39.9212 27.9578 39.7065 28.6458 39.4928C29.6379 39.1498 30.2491 38.8254 30.7466 37.8783C31.0536 37.216 31.3016 36.5346 31.5539 35.8499C31.7194 35.6843 31.7194 35.6843 32.3611 35.6222ZM31.8022 40.0413C31.3767 40.4749 31.3767 40.4749 31.0571 40.9831C31.4396 41.3656 31.8221 41.7481 32.2162 42.1422C32.7902 41.8552 32.9693 41.7595 33.3339 41.2935C33.4569 41.1364 33.5798 40.9793 33.7065 40.8175C33.5767 40.7184 33.4469 40.6194 33.3132 40.5173C32.8785 40.1551 32.8785 40.1551 32.5474 39.6584C32.1627 39.6209 32.1627 39.6209 31.8022 40.0413Z" fill="#B31A1C"/>
<path d="M17.3135 0.578942C17.8753 1.07263 18.0535 1.61533 18.276 2.30724C18.5978 3.22576 18.9518 3.73396 19.7973 4.22182C20.3119 4.45772 20.8283 4.6718 21.3581 4.87123C21.7843 5.04975 21.7843 5.04975 22.1155 5.38092C22.1726 6.05197 22.1654 6.29951 21.7843 6.87119C21.3522 7.03548 21.3522 7.03548 20.8322 7.18166C19.6958 7.54325 19.0131 7.90712 18.4416 8.99275C18.2271 9.4608 18.0468 9.93672 17.8724 10.4209C17.6447 11.0108 17.6447 11.0108 17.3135 11.1764C16.421 11.2524 16.421 11.2524 16.0593 10.9804C15.7647 10.605 15.655 10.2549 15.5128 9.79998C15.1361 8.72648 14.7384 8.04622 13.7017 7.50248C13.2336 7.28803 12.7577 7.1077 12.2735 6.93328C11.6836 6.7056 11.6836 6.7056 11.518 6.37443C11.442 5.48122 11.442 5.48122 11.7205 5.11378C12.0748 4.83737 12.3535 4.77332 12.791 4.67718C13.9175 4.36261 14.6832 3.73409 15.2954 2.7419C15.405 2.45935 15.5127 2.176 15.613 1.89004C15.6761 1.71234 15.6761 1.71234 15.7404 1.53106C15.7763 1.42092 15.8122 1.31078 15.8491 1.1973C16.1592 0.559979 16.6741 0.469781 17.3135 0.578942ZM16.5108 4.84277C16.3293 5.02719 16.3293 5.02719 16.1441 5.21533C15.9619 5.39975 15.9619 5.39975 15.776 5.5879C15.6355 5.73134 15.6355 5.73134 15.4921 5.87768C15.6867 6.06722 15.6867 6.06722 15.8853 6.26059C16.32 6.7056 16.32 6.7056 16.6512 7.20236C17.2715 6.99558 17.5471 6.69559 17.9759 6.20885C17.9759 5.61825 17.8704 5.52905 17.4894 5.10149C17.3992 4.9984 17.3089 4.8953 17.2158 4.78908C17.1388 4.71117 17.0617 4.63326 16.9823 4.55299C16.7666 4.53401 16.7666 4.53401 16.5108 4.84277Z" fill="#B31A1C"/>
<path d="M75.4342 14.9868C75.7484 15.4582 75.8424 15.7336 75.9723 16.2701C76.2257 17.1263 76.5443 17.7428 77.2556 18.2985C77.7926 18.5731 78.3404 18.7699 78.9115 18.9609C79.7177 19.2487 79.7177 19.2487 79.905 19.6232C79.9998 20.6668 79.9998 20.6668 79.6669 21.0721C79.1618 21.3185 78.6469 21.4826 78.1126 21.6549C77.0437 22.0137 76.5863 22.6144 76.0965 23.5972C75.9518 23.9871 75.8252 24.3758 75.7116 24.7757C75.5997 25.0875 75.5997 25.0875 75.2686 25.4187C74.2354 25.5126 74.2354 25.5126 73.8372 25.2156C73.5667 24.8617 73.5011 24.5794 73.4057 24.1457C73.1332 23.2016 72.7474 22.5403 71.9569 21.9414C71.406 21.6925 70.8599 21.4925 70.2829 21.3127C69.7621 21.0959 69.5711 20.9445 69.3075 20.4511C69.344 19.8429 69.3687 19.562 69.8043 19.1264C70.0604 19.0454 70.3198 18.9742 70.5804 18.9091C71.5597 18.6213 72.3021 18.3108 72.8566 17.4208C73.1815 16.7855 73.4536 16.1319 73.7266 15.4732C74.112 14.6106 74.5891 14.8057 75.4342 14.9868ZM74.6062 18.7953C74.5072 18.925 74.4082 19.0548 74.3061 19.1885C73.9439 19.6232 73.9439 19.6232 73.4471 19.9544C73.7093 20.6621 74.1932 20.9918 74.7718 21.4446C74.966 21.2594 75.159 21.0729 75.3514 20.8858C75.4589 20.782 75.5665 20.6783 75.6774 20.5714C75.9675 20.3079 75.9675 20.3079 75.9309 19.9544C75.66 19.7274 75.3834 19.5072 75.103 19.292C74.9345 19.1294 74.7675 18.965 74.6062 18.7953Z" fill="#B31A1C"/>
<path d="M51.3206 18.5553C52.1398 19.0263 52.6195 19.7303 52.9143 20.6148C53.0372 21.749 52.9283 22.6581 52.252 23.5953C51.5324 24.3897 50.7511 24.7102 49.6958 24.8062C48.5718 24.7076 47.7361 24.2304 46.9533 23.4297C46.4851 22.6096 46.2967 21.7138 46.4565 20.7804C46.7808 19.7573 47.3924 19.056 48.2779 18.4622C49.2571 18.1358 50.3695 18.1314 51.3206 18.5553ZM48.8782 20.7183C48.5614 21.1019 48.5614 21.1019 48.6091 21.6186C48.7405 22.1097 48.7405 22.1097 49.0645 22.4259C49.4325 22.6354 49.4325 22.6354 49.8613 22.5811C50.413 22.3856 50.413 22.3856 50.7617 21.9395C50.7619 21.3471 50.7619 21.3471 50.5961 20.7804C49.9344 20.3392 49.55 20.2586 48.8782 20.7183Z" fill="#B31A1C"/>
<path d="M12.0153 39.8229C12.731 40.4628 13.2741 41.1783 13.3755 42.1515C13.4127 43.0327 13.3013 43.6863 12.8432 44.4593C12.1833 45.1467 11.596 45.7371 10.6097 45.8176C9.40528 45.8376 8.70567 45.7049 7.76178 44.9147C7.05963 44.0797 6.78228 43.2643 6.82454 42.1858C6.95931 41.306 7.36141 40.6024 8.02051 40.0092C9.27899 39.1535 10.6868 39.0549 12.0153 39.8229ZM9.40729 41.7375C8.96686 42.1231 8.96686 42.1231 9.03472 42.7414C9.14774 43.3418 9.14774 43.3418 9.69706 43.6314C10.2885 43.6179 10.2885 43.6179 10.8562 43.4658C11.2374 42.9995 11.2374 42.9995 11.1666 42.4723C11.0622 41.9663 11.0622 41.9663 10.7113 41.6651C10.168 41.3775 9.93629 41.437 9.40729 41.7375Z" fill="#B31A1C"/>
<path d="M51.1334 48.2115C51.7779 48.7042 52.1642 49.3286 52.418 50.0899C52.502 51.1193 52.5458 52.0385 51.9212 52.9049C51.1249 53.7209 50.4492 54.188 49.2926 54.2813C48.2346 54.2514 47.3829 53.7886 46.6225 53.0704C46.0088 52.1937 45.8891 51.4868 45.9602 50.4211C46.1893 49.3343 46.7081 48.7203 47.616 48.1029C48.6859 47.4668 50.0807 47.6148 51.1334 48.2115ZM48.3819 50.2865C48.0765 50.7253 48.0765 50.7253 48.1128 51.1869C48.316 51.6695 48.4723 51.8427 48.9407 52.0769C49.4044 52.0543 49.6827 51.9629 50.0791 51.7251C50.3181 51.3905 50.3181 51.3905 50.2447 50.8247C50.1567 50.2134 50.1567 50.2134 49.603 49.9243C48.9977 49.8157 48.8412 49.8634 48.3819 50.2865Z" fill="#B31A1C"/>
<path d="M25.862 18.1325C26.7132 18.6369 27.4283 19.3335 27.7455 20.2852C27.8683 21.4182 27.7605 22.3299 27.0832 23.2657C26.3588 24.0457 25.6038 24.4308 24.5477 24.4869C23.6171 24.4621 22.8766 24.1606 22.192 23.5264C21.4518 22.6888 21.2068 21.9348 21.236 20.8382C21.355 19.9469 21.7666 19.242 22.4365 18.65C23.5558 17.8733 24.5547 17.7719 25.862 18.1325ZM23.7094 20.3886C23.3926 20.7722 23.3926 20.7722 23.4403 21.289C23.5717 21.7801 23.5717 21.7801 23.8957 22.0962C24.2637 22.3058 24.2637 22.3058 24.6926 22.2515C25.2442 22.056 25.2442 22.056 25.5929 21.6098C25.5931 21.0174 25.5931 21.0174 25.4273 20.4507C24.7656 20.0096 24.3812 19.929 23.7094 20.3886Z" fill="#B31A1C"/>
<path d="M1.04849 9.27812C1.6414 9.29418 1.74393 9.35227 2.24122 9.74383C2.39147 9.91455 2.53757 10.089 2.67977 10.2665C2.75666 10.3572 2.83356 10.448 2.91278 10.5415C3.06517 10.7229 3.21584 10.9057 3.36459 11.0901C3.54146 11.3079 3.72634 11.5191 3.9126 11.7289C4.39714 12.3002 4.56122 12.5386 4.57365 13.3091C4.39772 13.8265 4.39772 13.8265 3.90096 14.1577C3.15598 14.1534 2.82862 14.0669 2.25934 13.5762C2.10682 13.4034 1.95721 13.2281 1.81044 13.0504C1.73574 12.9647 1.66103 12.879 1.58406 12.7907C1.43439 12.618 1.28653 12.4437 1.14054 12.268C0.991518 12.09 0.838898 11.915 0.683161 11.7429C0.115612 11.1054 0.115612 11.1054 0 10.6364C0.0755137 9.39899 0.0755137 9.39899 1.04849 9.27812Z" fill="#B31A1C"/>
<path d="M42.3171 31.3788C42.7527 31.6911 43.0804 32.0777 43.4244 32.4862C43.5163 32.5898 43.6082 32.6934 43.7029 32.8002C43.963 33.0956 44.2168 33.3954 44.4697 33.697C44.599 33.8462 44.7284 33.9954 44.8617 34.1491C45.2433 34.6796 45.2146 35.0472 45.132 35.684C44.9458 36.0048 44.9458 36.0048 44.6353 36.1808C44.1592 36.2636 44.1592 36.2636 43.6418 36.1808C43.2601 35.8309 43.2601 35.8309 42.8138 35.3529C42.7314 35.2656 42.6489 35.1783 42.5639 35.0884C42.3006 34.809 42.0395 34.5275 41.7789 34.2455C41.6445 34.1013 41.6445 34.1013 41.5073 33.9541C40.6772 33.0566 40.6772 33.0566 40.6198 32.3827C40.6612 31.8756 40.6612 31.8756 40.8372 31.5651C41.3608 31.261 41.7209 31.3021 42.3171 31.3788Z" fill="#B31A1C"/>
<path d="M39.1713 19.7878C39.6069 20.1001 39.9346 20.4867 40.2786 20.8952C40.3705 20.9988 40.4624 21.1024 40.5571 21.2092C40.8172 21.5046 41.0711 21.8044 41.3239 22.106C41.453 22.2552 41.5822 22.4044 41.7152 22.5582C42.1002 23.0919 42.0812 23.4524 41.9862 24.0931C41.7275 24.4242 41.7275 24.4242 41.3239 24.5898C40.7661 24.5871 40.3408 24.5667 39.8951 24.2059C39.6276 23.9163 39.3824 23.6176 39.1402 23.3065C39.0563 23.2036 38.9723 23.1008 38.8857 22.9948C38.7221 22.7935 38.56 22.591 38.3998 22.387C38.2021 22.1368 37.997 21.8926 37.791 21.6494C37.5154 21.2781 37.5154 21.2781 37.443 20.7606C37.5154 20.2846 37.5154 20.2846 37.6914 19.9741C38.215 19.6701 38.5751 19.7112 39.1713 19.7878Z" fill="#B31A1C"/>
<path d="M77.2556 31.0477C77.566 31.3272 77.566 31.3272 77.7523 31.7101C77.7657 32.4582 77.5147 32.8391 77.0318 33.3743C76.7981 33.6117 76.5621 33.8469 76.3241 34.08C76.2082 34.2005 76.0923 34.321 75.9729 34.4451C75.004 35.4095 75.004 35.4095 74.297 35.5308C73.7783 35.5185 73.7783 35.5185 73.3643 35.2702C73.0888 34.811 73.0651 34.5517 73.1546 34.0278C73.4285 33.3141 74.0405 32.825 74.5855 32.3103C74.7069 32.1906 74.8284 32.0708 74.9535 31.9475C76.2252 30.7129 76.2252 30.7129 77.2556 31.0477Z" fill="#B31A1C"/>
<path d="M22.513 30.6159C23.0813 30.7482 23.29 30.8854 23.6062 31.3785C23.6222 32.1876 23.4308 32.6137 22.8927 33.1883C22.6673 33.4087 22.4393 33.6264 22.209 33.8416C22.0941 33.9535 21.9791 34.0653 21.8607 34.1806C20.8368 35.1678 20.8368 35.1678 20.0564 35.2387C19.4665 35.187 19.4665 35.187 19.1353 34.9179C18.8964 34.3505 18.9479 34.1256 19.1353 33.5311C19.543 32.9957 20.0113 32.5322 20.4911 32.0616C20.6163 31.9318 20.7415 31.802 20.8704 31.6683C21.7998 30.743 21.7998 30.743 22.513 30.6159Z" fill="#B31A1C"/>
<path d="M39.1714 7.20343C39.5129 7.5553 39.5129 7.5553 39.6682 8.03136C39.4865 9.07833 38.7868 9.69082 38.0641 10.4117C37.9489 10.5335 37.8337 10.6554 37.7151 10.781C36.8503 11.6514 36.8503 11.6514 36.0421 11.7648C35.5285 11.6742 35.5285 11.6742 35.2077 11.488C34.927 10.9926 34.9251 10.7492 35.0318 10.184C35.3657 9.69095 35.7723 9.28095 36.1909 8.85929C36.3875 8.6563 36.3875 8.6563 36.588 8.44921C37.9375 7.07355 37.9375 7.07355 39.1714 7.20343Z" fill="#B31A1C"/>
<path d="M24.5994 45.9499C24.9306 46.4466 24.9306 46.4466 24.9487 46.9706C24.6868 47.8762 24.1519 48.3518 23.4817 48.9925C23.3631 49.1123 23.2444 49.232 23.1221 49.3554C22.1111 50.3459 22.1111 50.3459 21.2877 50.4207C20.7533 50.2021 20.5204 50.0678 20.2942 49.5307C20.2942 48.7307 20.8028 48.2361 21.335 47.6859C21.5426 47.479 21.7511 47.2729 21.9604 47.0676C22.066 46.9621 22.1715 46.8567 22.2803 46.7481C23.1021 45.9341 23.3939 45.6916 24.5994 45.9499Z" fill="#B31A1C"/>
<path d="M64.4945 23.3355C65.0016 23.4306 65.0016 23.4306 65.3224 23.6169C65.6031 24.1122 65.605 24.3556 65.4983 24.9209C65.1645 25.4139 64.7579 25.8239 64.3392 26.2456C64.2082 26.3809 64.0771 26.5162 63.9421 26.6556C62.7385 27.8826 62.7385 27.8826 62.0314 27.9428C61.5243 27.9014 61.5243 27.9014 61.2138 27.7255C60.9011 27.1869 60.9375 26.8631 61.0275 26.2456C61.4103 25.6879 61.8771 25.2342 62.3626 24.7656C62.4871 24.6366 62.6117 24.5076 62.74 24.3746C63.6702 23.4557 63.6702 23.4557 64.4945 23.3355Z" fill="#B31A1C"/>
</svg>
