<svg width="89" height="80" viewBox="0 0 89 80" fill="none" xmlns="http://www.w3.org/2000/svg">
<path d="M13.1741 0.0433661C13.4003 0.0427017 13.6264 0.0420374 13.8594 0.0413529C14.1083 0.0414878 14.3572 0.0416398 14.606 0.041807C14.8721 0.0413598 15.1381 0.0408385 15.4041 0.0402498C16.1339 0.0388576 16.8637 0.0385447 17.5935 0.0384168C18.3811 0.0380961 19.1687 0.0367904 19.9563 0.0356261C21.6781 0.0332791 23.3999 0.032235 25.1216 0.0314732C26.1974 0.030995 27.2731 0.030262 28.3489 0.0294835C31.3291 0.0273748 34.3093 0.0255935 37.2896 0.0250081C37.5755 0.0249511 37.5755 0.0249511 37.8673 0.024893C38.0584 0.0248553 38.2495 0.0248175 38.4465 0.0247786C38.8337 0.0247019 39.221 0.0246247 39.6082 0.0245469C39.8003 0.0245086 39.9924 0.0244703 40.1903 0.0244309C43.3011 0.0237484 46.4119 0.0207305 49.5227 0.0167015C52.7189 0.0125955 55.9151 0.0104444 59.1113 0.0102429C60.9049 0.0100846 62.6985 0.00909578 64.492 0.0059501C66.0197 0.00328024 67.5473 0.00240431 69.0749 0.00382929C69.8536 0.00450282 70.6323 0.00435467 71.4109 0.00191681C72.1254 -0.000299389 72.8398 -6.82179e-05 73.5542 0.00201898C73.8111 0.00235525 74.068 0.00183536 74.3249 0.000316302C78.3288 -0.0218396 81.9714 1.11834 84.9193 3.93067C88.1229 7.29255 88.7498 11.0254 88.7328 15.4649C88.7338 15.88 88.735 16.295 88.7365 16.7101C88.7393 17.7148 88.7389 18.7194 88.7369 19.7241C88.7353 20.5416 88.7351 21.3592 88.7359 22.1767C88.736 22.2937 88.7361 22.4106 88.7362 22.5311C88.7364 22.7687 88.7366 23.0064 88.7369 23.244C88.7388 25.4659 88.7366 27.6878 88.7329 29.9096C88.7298 31.8104 88.7303 33.7111 88.7335 35.6118C88.7372 37.8262 88.7387 40.0405 88.7365 42.2549C88.7363 42.4916 88.7361 42.7284 88.7359 42.9652C88.7358 43.0816 88.7357 43.1981 88.7356 43.3181C88.735 44.1332 88.736 44.9484 88.7376 45.7635C88.7396 46.8637 88.7382 47.9637 88.7342 49.0639C88.7333 49.4657 88.7336 49.8676 88.7351 50.2694C88.749 54.2836 88.1501 57.688 85.3571 60.775C85.242 60.9061 85.127 61.0372 85.0084 61.1722C82.5508 63.8119 79.2222 65.0687 75.6713 65.2719C74.8196 65.2841 73.9688 65.2761 73.1171 65.264C72.5242 65.2556 71.9313 65.2494 71.3384 65.2431C71.0192 65.2397 70.7001 65.2362 70.3809 65.2326C68.3186 65.2096 66.2562 65.2024 64.1938 65.1945C62.193 65.1869 60.1926 65.1744 58.1921 65.1456C56.5968 65.1227 55.0019 65.1112 53.4065 65.1125C52.566 65.1127 51.7264 65.1079 50.8861 65.089C46.1155 64.9867 42.8396 65.8614 38.7807 68.3784C38.0646 68.8136 37.321 69.2006 36.5824 69.5959C36.2886 69.7578 35.9949 69.9199 35.7014 70.0824C34.2337 70.8829 32.7401 71.6346 31.2517 72.3955C29.7315 73.1731 28.2175 73.9572 26.7237 74.7847C25.0617 75.7048 23.376 76.5764 21.6863 77.444C21.5565 77.5106 21.4268 77.5772 21.2931 77.6459C20.5625 78.0209 19.8309 78.3943 19.0988 78.7664C18.7811 78.9288 18.4645 79.0933 18.1482 79.2584C17.9642 79.3532 17.7802 79.4481 17.5906 79.5458C17.4324 79.6283 17.2741 79.7108 17.111 79.7958C16.4577 80.0729 16.1409 80.0616 15.4813 79.8005C15.0597 79.4438 15.0597 79.4438 14.7895 78.9357C14.7453 78.0115 14.8271 77.1936 15.0118 76.2836C15.0354 76.1653 15.059 76.047 15.0833 75.9251C15.1607 75.5393 15.2399 75.1539 15.3192 74.7685C15.3736 74.4991 15.4279 74.2296 15.4821 73.9601C15.6242 73.2547 15.7679 72.5496 15.912 71.8446C16.059 71.1236 16.2045 70.4023 16.3502 69.681C16.6356 68.2687 16.9227 66.8567 17.2109 65.4449C17.0929 65.4403 16.9749 65.4358 16.8534 65.4311C16.3116 65.4099 15.7698 65.3882 15.228 65.3665C15.0424 65.3594 14.8568 65.3522 14.6656 65.3448C9.88202 65.1512 6.31335 63.9271 2.98499 60.3534C0.960658 57.995 0.0312787 55.1285 0.0416646 52.0508C0.0408809 51.8774 0.0400969 51.704 0.0392894 51.5253C0.0371131 50.9487 0.0373825 50.3722 0.037669 49.7956C0.0366331 49.3804 0.0354558 48.9651 0.0341483 48.5499C0.0314155 47.5416 0.0303249 46.5333 0.0301315 45.525C0.0299666 44.7046 0.0292536 43.8841 0.0281601 43.0636C0.0251167 40.7325 0.0235166 38.4013 0.0237764 36.0702C0.0237903 35.9448 0.0238044 35.8193 0.0238187 35.6901C0.0238328 35.5645 0.0238463 35.4389 0.0238609 35.3095C0.0240014 33.2758 0.0206931 31.2421 0.0158141 29.2084C0.0108327 27.1153 0.00845752 25.0222 0.00875568 22.9291C0.00887009 21.7559 0.00793835 20.5828 0.00419654 19.4097C0.000833554 18.3056 0.00083125 17.2015 0.00333882 16.0975C0.00369885 15.6939 0.00289299 15.2902 0.00079203 14.8866C-0.012321 12.1915 0.124423 9.74857 1.39593 7.30879C1.45415 7.1953 1.51237 7.08182 1.57235 6.96489C3.15319 4.02366 5.88456 1.75528 9.0521 0.696455C10.4237 0.292262 11.7406 0.0449539 13.1741 0.0433661ZM5.62263 6.63857C3.97386 8.62936 3.14618 10.8244 3.15494 13.3935C3.15416 13.5639 3.15337 13.7343 3.15257 13.9099C3.15038 14.4784 3.15066 15.0468 3.15094 15.6153C3.14991 16.024 3.14873 16.4326 3.14742 16.8413C3.14437 17.9498 3.14356 19.0584 3.14334 20.167C3.14317 20.8602 3.14237 21.5535 3.14143 22.2468C3.13839 24.5426 3.13679 26.8383 3.13705 29.1341C3.13707 29.2577 3.13708 29.3813 3.13709 29.5087C3.13711 29.6325 3.13712 29.7562 3.13714 29.8837C3.13728 31.8874 3.13397 33.891 3.12909 35.8947C3.12411 37.9559 3.12173 40.0171 3.12203 42.0784C3.12215 43.234 3.12114 44.3897 3.11747 45.5453C3.11411 46.6331 3.1141 47.7208 3.11661 48.8085C3.11697 49.2063 3.11617 49.6042 3.11407 50.002C3.09667 53.5286 3.51525 56.4608 6.08746 59.0994C8.62957 61.5814 11.588 62.1366 15.0111 62.1951C15.2256 62.1989 15.2256 62.1989 15.4444 62.2027C16.0415 62.2126 16.6385 62.2221 17.2356 62.2281C17.6761 62.2328 18.1164 62.2407 18.5568 62.2492C18.6919 62.2497 18.827 62.2503 18.9662 62.2509C19.8957 62.2721 19.8957 62.2721 20.3158 62.5746C21.0689 63.72 20.4429 65.4858 20.1875 66.7471C20.1264 67.0413 20.1264 67.0413 20.0641 67.3414C20.0221 67.5482 19.9801 67.755 19.9369 67.9681C19.8039 68.6226 19.6696 69.2768 19.5351 69.931C19.4001 70.5896 19.2653 71.2482 19.1314 71.907C19.0484 72.3154 18.9647 72.7237 18.8802 73.1318C18.8427 73.316 18.8052 73.5003 18.7665 73.6902C18.7332 73.8519 18.7 74.0136 18.6657 74.1802C18.5759 74.6526 18.5759 74.6526 18.5946 75.3036C19.3095 75.081 19.9577 74.8128 20.6215 74.4672C20.8091 74.3698 20.9967 74.2724 21.19 74.1721C21.3895 74.0675 21.5889 73.9628 21.7944 73.855C22.0057 73.7448 22.2171 73.6347 22.4284 73.5245C23.8173 72.7989 25.1937 72.052 26.5656 71.2949C28.2048 70.3963 29.8706 69.5501 31.5349 68.6992C33.5879 67.6497 33.5879 67.6497 35.6176 66.5561C35.9093 66.3956 36.2018 66.2365 36.4954 66.0795C37.2903 65.6531 38.0678 65.212 38.8313 64.7311C42.7164 62.3072 46.0439 61.9133 50.5584 62.0099C51.4221 62.0251 52.2858 62.0226 53.1495 62.0223C54.7783 62.024 56.4066 62.0402 58.0352 62.0624C60.246 62.0917 62.4568 62.1002 64.6677 62.1092C65.2025 62.1113 65.7373 62.1136 66.2721 62.1159C66.5325 62.117 66.5325 62.117 66.7981 62.1181C67.8194 62.1229 68.8405 62.1313 69.8617 62.1432C70.4973 62.1505 71.1329 62.1565 71.7686 62.1624C72.0604 62.1655 72.3521 62.1692 72.6439 62.1737C76.5621 62.2335 79.8266 61.7162 82.7951 58.9265C85.4546 56.1584 85.6336 53.0539 85.6196 49.4292C85.6205 49.0201 85.6217 48.611 85.6232 48.2019C85.6264 47.097 85.6252 45.9921 85.623 44.8872C85.6219 44.1958 85.622 43.5044 85.6226 42.8131C85.6228 42.6403 85.6228 42.6403 85.6229 42.464C85.6232 42.2299 85.6234 41.9958 85.6236 41.7618C85.6256 39.5729 85.6233 37.3841 85.6196 35.1952C85.6165 33.3214 85.617 31.4477 85.6202 29.5739C85.6239 27.392 85.6254 25.2101 85.6233 23.0282C85.623 22.7951 85.6228 22.562 85.6226 22.3288C85.6225 22.2142 85.6224 22.0995 85.6223 21.9814C85.6217 21.1775 85.6227 20.3736 85.6243 19.5697C85.6263 18.4858 85.6249 17.4019 85.6209 16.318C85.62 15.9215 85.6203 15.525 85.6218 15.1285C85.6345 11.5179 85.0752 8.71627 82.4931 5.98997C79.9968 3.68938 77.0157 3.12546 73.7443 3.13312C73.4808 3.13247 73.2173 3.13168 72.9538 3.13074C72.2334 3.12864 71.513 3.12867 70.7926 3.12908C70.0142 3.12915 69.2358 3.12724 68.4574 3.1256C66.9337 3.12273 65.4099 3.12178 63.8862 3.12159C62.6469 3.12142 61.4077 3.12071 60.1684 3.11961C56.6513 3.11657 53.1342 3.11497 49.6171 3.11523C49.4277 3.11525 49.2382 3.11526 49.043 3.11527C48.8534 3.11529 48.6637 3.1153 48.4683 3.11532C45.3956 3.11546 42.323 3.11215 39.2503 3.10727C36.0919 3.10229 32.9334 3.09991 29.7749 3.10021C28.0031 3.10032 26.2312 3.09938 24.4594 3.09565C22.9506 3.09249 21.4418 3.09176 19.933 3.0941C19.1641 3.09522 18.3952 3.09526 17.6263 3.09225C16.9206 3.08951 16.215 3.09004 15.5093 3.09304C15.2558 3.09356 15.0023 3.09295 14.7488 3.09101C11.2389 3.06589 8.07139 4.00842 5.62263 6.63857Z" fill="#B31A1C"/>
</svg>
