<svg width="82" height="80" viewBox="0 0 82 80" fill="none" xmlns="http://www.w3.org/2000/svg">
<path d="M36.119 9.15428C39.3084 11.9534 40.7009 15.0634 41.6017 19.1798C41.7103 19.6654 41.8193 20.1511 41.9286 20.6366C41.9801 20.8666 42.0317 21.0967 42.0848 21.3337C42.2689 22.1159 42.4816 22.8873 42.708 23.6582C42.8478 24.2417 42.8252 24.6512 42.6193 25.2141C42.2181 25.7639 41.9555 25.9416 41.3059 26.1489C40.5962 26.1633 40.3279 26.0374 39.7796 25.5928C39.1399 24.7256 38.9245 23.7434 38.6555 22.7176C38.6056 22.5328 38.5557 22.348 38.5042 22.1577C38.2365 21.1517 38.002 20.1468 37.8034 19.1252C37.1842 15.9877 35.7893 13.364 33.1773 11.4297C30.4967 9.66762 27.6499 9.031 24.4689 9.67859C17.4749 11.6836 11.4473 18.2859 7.9972 24.4466C3.56447 32.5936 2.37713 42.1158 4.8934 51.0689C6.55169 56.6667 9.42905 61.5154 13.465 65.7272C13.5556 65.8229 13.6462 65.9187 13.7395 66.0173C19.8568 72.4599 28.5263 76.0455 37.3555 76.3702C47.003 76.5978 56.1073 72.9151 63.0615 66.2855C65.6255 63.7975 67.6399 60.9261 69.3125 57.776C69.3718 57.6645 69.431 57.553 69.4921 57.4381C70.9651 54.6445 72.18 51.9468 71.2766 48.7718C70.4844 46.4366 69.2884 44.9051 67.1236 43.7195C65.8126 43.104 64.4866 42.8542 63.0652 42.631C56.0229 41.5097 56.0229 41.5097 55.114 40.3592C54.9806 39.4253 54.9681 39.0635 55.4926 38.2768C56.3256 37.7214 57.0967 37.8196 58.0506 37.9761C58.5881 38.0848 59.1227 38.2029 59.6575 38.3241C61.0823 38.6373 62.5028 38.9147 63.9451 39.1339C67.4364 39.6654 70.3876 40.8408 72.7098 43.6433C74.6844 46.3403 75.4941 49.3543 75.1812 52.6646C73.9657 60.3791 67.652 67.8535 61.5506 72.3532C61.3498 72.5013 61.149 72.6494 60.942 72.8021C52.6754 78.698 42.4063 81.0701 32.372 79.5537C24.5264 78.2337 17.1466 74.6749 11.5719 68.9455C11.4196 68.7933 11.2673 68.641 11.1104 68.4841C10.9503 68.324 10.7903 68.1639 10.6253 67.999C10.4628 67.8463 10.4628 67.8463 10.297 67.6906C6.33248 63.8926 3.67685 58.7433 1.91689 53.6111C1.86933 53.4731 1.82178 53.3351 1.77278 53.193C0.74166 50.1332 0.107369 46.8057 0.0237556 43.5775C0.0198815 43.4306 0.0160075 43.2837 0.012016 43.1324C-0.174679 34.8622 1.80416 26.5428 6.64973 19.724C6.78322 19.5354 6.91671 19.3468 7.05424 19.1524C9.22656 16.1767 11.6845 13.4657 14.6009 11.2049C14.7045 11.1237 14.8082 11.0424 14.915 10.9587C21.2784 5.99947 29.2058 3.52836 36.119 9.15428Z" fill="#B31A1C"/>
<path d="M78.5889 0.604214C79.9212 1.49713 80.7251 2.62825 81.05 4.20117C81.1926 5.63508 81.0132 6.92828 80.1116 8.08358C79.6775 8.56724 79.2305 9.03521 78.7783 9.50195C78.5754 9.73313 78.3741 9.96576 78.1748 10.2C77.4134 11.0745 76.6176 11.9167 75.825 12.7628C74.9545 13.6923 74.092 14.6283 73.2327 15.5681C72.4037 16.4746 71.5691 17.3761 70.7355 18.2783C70.261 18.7919 69.7868 19.3057 69.3126 19.8195C69.1233 20.0246 68.934 20.2297 68.7446 20.4348C68.6509 20.5363 68.5572 20.6378 68.4607 20.7424C58.5217 31.5096 58.5217 31.5096 58.2377 31.8173C58.0485 32.0223 57.8594 32.2272 57.6702 32.4321C57.1947 32.9473 56.7191 33.4624 56.2433 33.9774C56.0522 34.1842 55.8612 34.391 55.6702 34.5978C55.5309 34.7486 55.5309 34.7486 55.3889 34.9024C54.5486 35.8127 53.7121 36.7264 52.8763 37.6409C52.6178 37.9212 52.3547 38.1973 52.0851 38.4669C52.0464 38.868 52.0256 39.271 52.0141 39.6738C51.8652 42.137 51.0798 43.9099 49.3045 45.6017C47.2155 47.3353 44.5776 47.7361 41.945 47.8261C38.3151 47.959 35.717 49.6233 32.9452 51.849C32.4248 52.2524 32.0734 52.4685 31.4144 52.5589C30.7315 52.4527 30.29 52.3214 29.8703 51.7529C28.2015 48.4265 27.792 44.4178 28.9163 40.8481C30.6014 36.4878 33.3448 33.0432 37.6832 31.1C38.2404 30.9031 38.7858 30.7853 39.3656 30.6756C41.206 30.3125 42.1836 29.5155 43.4568 28.1737C43.9452 27.6692 44.4663 27.2015 44.9858 26.7295C45.1908 26.5406 45.3957 26.3515 45.6003 26.1623C45.7526 26.0218 45.7526 26.0218 45.9079 25.8784C46.2181 25.592 46.5282 25.3055 46.8383 25.019C47.9215 24.0183 49.0064 23.0195 50.094 22.0235C51.0985 21.1034 52.0991 20.1791 53.0996 19.2546C53.6132 18.7802 54.127 18.306 54.6408 17.8317C54.8459 17.6424 55.051 17.4531 55.2561 17.2638C60.7935 12.1523 60.7935 12.1523 66.3309 7.04087C66.4324 6.94715 66.534 6.85342 66.6386 6.75686C66.8435 6.56769 67.0484 6.37853 67.2534 6.18938C67.8723 5.61816 68.491 5.04681 69.1095 4.47516C69.3148 4.28561 69.5203 4.09629 69.7261 3.90722C70.2365 3.43798 70.7434 2.96576 71.2442 2.48626C73.357 0.477894 75.7278 -0.826369 78.5889 0.604214ZM73.371 5.33705C73.0994 5.59475 72.8278 5.85234 72.5561 6.10983C72.4229 6.2364 72.2897 6.36296 72.1525 6.49336C71.6407 6.97728 71.1224 7.45328 70.6023 7.92828C69.8232 8.6399 69.0462 9.35368 68.2714 10.0699C67.4841 10.7973 66.6955 11.5232 65.9049 12.247C64.8067 13.2526 63.7124 14.2624 62.6187 15.273C62.1051 15.7474 61.5913 16.2216 61.0774 16.6959C60.8724 16.8852 60.6673 17.0745 60.4622 17.2638C60.052 17.6424 59.6418 18.0211 59.2316 18.3997C59.1301 18.4934 59.0286 18.5871 58.924 18.6837C58.719 18.8729 58.5141 19.062 58.3092 19.2512C57.794 19.7267 57.2789 20.2023 56.7639 20.6781C55.6807 21.6788 54.5958 22.6776 53.5081 23.6736C52.8155 24.3081 52.1245 24.9445 51.4343 25.5818C51.3325 25.6758 51.2306 25.7698 51.1257 25.8667C50.6022 26.3502 50.0789 26.834 49.5559 27.3181C48.3251 28.4569 47.0879 29.5875 45.8377 30.7051C46.3788 31.1274 46.9337 31.4775 47.5297 31.8173C48.8567 32.61 49.677 33.6326 50.5705 34.87C50.7841 34.6564 50.9977 34.4427 51.211 34.2288C51.4299 34.0104 51.6499 33.7931 51.8706 33.5766C51.996 33.4528 52.1215 33.3291 52.2507 33.2016C52.3674 33.0872 52.484 32.9727 52.6042 32.8548C52.9675 32.4758 53.3131 32.0899 53.6572 31.6938C54.3296 30.9202 55.0253 30.1719 55.7293 29.4272C56.7521 28.3409 57.7668 27.2483 58.7731 26.1467C59.3147 25.5545 59.8585 24.9644 60.403 24.3749C60.4975 24.2726 60.592 24.1703 60.6893 24.0649C60.8808 23.8577 61.0722 23.6504 61.2637 23.4432C61.7382 22.9296 62.2124 22.4158 62.6866 21.902C62.8759 21.6969 63.0652 21.4918 63.2546 21.2867C63.3483 21.1852 63.442 21.0837 63.5385 20.9791C73.4775 10.2119 73.4775 10.2119 73.762 9.90391C73.9499 9.70018 74.1375 9.49617 74.3248 9.29188C74.8172 8.75566 75.315 8.2262 75.8224 7.70421C75.927 7.59512 76.0316 7.48604 76.1393 7.37365C76.3391 7.1655 76.5406 6.95906 76.7442 6.75468C77.3511 6.11743 77.6139 5.65424 77.6424 4.76911C77.3387 4.10101 77.1234 3.85516 76.5065 3.44392C75.1081 3.44392 74.3266 4.41981 73.371 5.33705ZM35.2598 36.843C33.1997 39.3424 31.7437 41.9305 31.793 45.2349C31.7931 45.3932 31.7933 45.5516 31.7934 45.7148C31.7985 46.4268 31.8233 47.0546 32.0178 47.7433C32.7737 47.617 33.3703 47.2307 34.0174 46.844C36.4708 45.4171 38.7205 44.5401 41.5782 44.4303C43.751 44.3466 45.8081 44.1032 47.452 42.5475C48.3675 41.5339 48.5791 40.4955 48.5473 39.1702C48.3706 37.6356 47.707 36.1418 46.595 35.0593C43.0251 32.5057 38.107 33.7655 35.2598 36.843Z" fill="#B31A1C"/>
<path d="M33.1535 60.4805C34.2146 61.3014 34.9924 62.5054 35.236 63.8341C35.3838 65.6225 35.2786 67.1672 34.1444 68.615C32.9007 69.9445 31.6108 70.5743 29.805 70.6967C28.1736 70.666 26.7431 70.0903 25.581 68.9456C24.4309 67.5885 23.9988 66.2755 24.0783 64.5085C24.2978 62.7425 25.0845 61.4745 26.4558 60.3562C28.5107 58.9492 31.1111 59.168 33.1535 60.4805ZM28.042 63.6448C27.5332 64.408 27.5358 65.02 27.6634 65.9166C28.0028 66.5073 28.2773 66.7779 28.8584 67.1234C29.5649 67.2877 29.9933 67.2609 30.6924 67.0524C31.4192 66.4866 31.787 65.9626 31.9466 65.0528C31.7847 64.1622 31.4541 63.5471 30.7161 63.0059C29.5871 62.6738 28.9486 62.9237 28.042 63.6448Z" fill="#B31A1C"/>
<path d="M17.2823 31.6192C18.8341 32.6064 19.7007 33.6987 20.2802 35.4373C20.4527 37.4526 20.1899 39.0266 18.9077 40.6197C18.0022 41.5858 16.831 42.1918 15.5052 42.3043C13.6125 42.3544 12.2997 42.1035 10.8382 40.8327C10.7055 40.6765 10.5727 40.5204 10.4359 40.3594C10.3032 40.2228 10.1704 40.0861 10.0336 39.9453C9.14961 38.6193 8.91347 37.0982 9.19282 35.5504C9.56038 34.0688 10.2562 32.9536 11.4956 32.0496C13.192 31.0747 15.4526 30.7683 17.2823 31.6192ZM13.0863 35.248C12.6447 35.9888 12.4973 36.3987 12.6012 37.2594C12.9675 38.0507 13.2885 38.39 14.0329 38.8449C14.8171 39.0199 15.396 38.9371 16.0917 38.5136C16.6435 37.9293 16.8395 37.5842 16.9436 36.7861C16.8534 36.0346 16.5829 35.6464 16.1153 35.0587C15.1342 34.4045 13.9726 34.463 13.0863 35.248Z" fill="#B31A1C"/>
<path d="M50.0734 60.7817C51.2242 61.7218 52.1024 62.8909 52.2742 64.4023C52.398 66.1174 52.1267 67.6285 51.0592 69.0153C50.0501 70.0568 48.7825 70.7448 47.3372 70.9025C45.6708 70.923 44.4637 70.6327 43.0452 69.7622C41.8143 68.4972 41.114 67.1509 41.0455 65.3725C41.0814 63.8004 41.6133 62.3934 42.7264 61.2609C44.8142 59.3552 47.7484 59.1017 50.0734 60.7817ZM45.2696 63.645C44.8279 64.1321 44.5408 64.4906 44.4754 65.1581C44.5244 65.9222 44.6625 66.2482 45.1631 66.8515C45.9277 67.467 46.3687 67.498 47.352 67.4313C48.0064 67.1636 48.2544 66.9281 48.6536 66.3427C48.9149 65.5878 48.8868 65.1706 48.6772 64.4023C48.216 63.6611 47.8148 63.3144 46.9734 63.0771C46.245 63.0771 45.89 63.2652 45.2696 63.645Z" fill="#B31A1C"/>
<path d="M19.3418 47.8839C20.6876 48.7462 21.6023 49.7745 22.1009 51.324C22.4109 53.0101 22.2752 54.7157 21.297 56.1441C20.2406 57.4396 19.157 58.2151 17.4834 58.4403C15.7513 58.5521 14.3233 58.2628 12.897 57.2083C11.6448 56.0344 11.0188 54.563 10.9329 52.8541C11.0006 51.3955 11.48 49.9272 12.5184 48.8785C14.4605 47.324 17.0319 46.6539 19.3418 47.8839ZM14.9794 51.3396C14.5294 52.0944 14.3846 52.4882 14.518 53.3629C14.8451 54.1168 15.1879 54.5675 15.926 54.9365C17.0149 55.0345 17.0149 55.0345 17.9848 54.6052C18.5366 54.0209 18.7326 53.6758 18.8367 52.8777C18.7465 52.1262 18.476 51.738 18.0084 51.1503C17.0273 50.4961 15.8657 50.5546 14.9794 51.3396Z" fill="#B31A1C"/>
<path d="M25.0512 18.8119C26.2562 19.6236 27.0174 20.8154 27.4738 22.1847C27.6025 24.2702 27.5655 25.7897 26.2078 27.4382C25.2043 28.5101 24.0812 29.1033 22.6153 29.2344C20.6544 29.2836 19.2048 28.8276 17.7604 27.4737C16.6012 26.1458 16.3927 24.631 16.4278 22.9191C16.5618 21.4249 17.2508 20.3107 18.3868 19.345C18.5234 19.2123 18.6601 19.0795 18.8009 18.9427C20.7339 17.6541 23.0463 17.7348 25.0512 18.8119ZM20.4692 21.9954C19.8953 22.6434 19.8007 23.2512 19.834 24.0912C19.9696 24.8273 20.4222 25.2376 21.0135 25.6515C21.5702 25.8316 21.9682 25.8517 22.5517 25.7817C23.2442 25.3955 23.625 25.1183 24.0662 24.4565C24.1297 23.6691 24.1433 23.1461 23.865 22.4095C23.3722 21.8531 22.8687 21.6678 22.1731 21.4275C21.5218 21.4275 21.0418 21.7041 20.4692 21.9954Z" fill="#B31A1C"/>
<path d="M62.4757 50.6694C63.7706 51.6124 64.5928 52.5876 64.9582 54.1791C65.1618 56.0264 64.9814 57.4288 63.9088 58.9467C63.0369 60.0341 62.098 60.5595 60.7933 60.9944C58.6506 61.1359 57.2899 61.0242 55.6345 59.6455C54.3179 58.3795 53.9128 57.3423 53.8715 55.5161C53.8884 53.8066 54.4032 52.6215 55.5398 51.363C57.4036 49.6821 60.296 49.3579 62.4757 50.6694ZM57.575 54.3684C57.2694 54.9796 57.2729 55.6008 57.3857 56.2615C57.7143 56.8342 58.1118 57.2872 58.7108 57.5867C59.6808 57.7017 59.6808 57.7017 60.5707 57.3885C61.2907 56.7958 61.5291 56.4762 61.6215 55.5516C61.6169 54.9173 61.5044 54.5863 61.1009 54.0963C60.4327 53.4439 60.0496 53.3469 59.1094 53.3538C58.4049 53.474 58.0666 53.8648 57.575 54.3684Z" fill="#B31A1C"/>
</svg>
