<svg width="91" height="91" viewBox="0 0 91 91" fill="none" xmlns="http://www.w3.org/2000/svg">
<path d="M28.8656 32.3917C29.09 32.3866 29.3143 32.3815 29.5454 32.3763C30.9872 32.3665 31.6799 32.4257 32.7143 33.4306C33.253 34.1063 33.5035 34.5762 33.4971 35.437C33.4965 35.5701 33.4959 35.7033 33.4953 35.8404C33.4939 35.9785 33.4924 36.1166 33.4909 36.2589C33.4901 36.3991 33.4893 36.5392 33.4885 36.6836C33.4864 37.0291 33.4833 37.3746 33.4799 37.7201C33.8247 37.7598 34.1694 37.7995 34.5142 37.8392C35.0626 37.9228 35.5842 38.0939 36.1166 38.2474C36.3487 38.2474 36.5807 38.2474 36.8197 38.2474C37.1477 37.8016 37.1477 37.8016 37.424 37.2367C37.9284 36.2676 38.4116 35.6877 39.4015 35.2042C40.8966 34.8939 42.0977 35.3313 43.3786 36.0831C43.5142 36.1574 43.6498 36.2316 43.7895 36.308C44.7854 36.8748 45.4431 37.4701 46.0153 38.4782C46.4923 40.3427 45.7343 41.5269 44.9057 43.1693C45.6018 43.8654 46.2979 44.5615 47.0151 45.2787C47.6187 44.9742 47.6187 44.9742 48.2345 44.6635C49.4114 44.1013 50.3155 43.771 51.6046 44.1602C53.1138 44.7871 53.7465 46.199 54.4638 47.5748C54.5268 47.6931 54.5898 47.8113 54.6547 47.9331C55.115 48.8525 55.2322 49.5974 55.009 50.6235C54.4314 52.0436 53.2799 52.7211 51.9369 53.3646C52.0208 54.0357 52.1265 54.6772 52.2995 55.3312C52.4643 56.0014 52.4643 56.0014 52.4643 56.7045C52.6678 56.6984 52.8712 56.6922 53.0809 56.6859C53.3514 56.681 53.622 56.6762 53.8925 56.6715C54.0262 56.6671 54.1599 56.6627 54.2976 56.6581C55.3253 56.6448 56.0593 56.8102 56.8348 57.5401C56.9188 57.645 57.0029 57.75 57.0895 57.858C57.1759 57.9634 57.2622 58.0688 57.3511 58.1773C57.9942 59.0466 57.7849 60.1934 57.7926 61.2309C57.7977 61.4552 57.8028 61.6795 57.8081 61.9106C57.8179 63.3524 57.7587 64.0451 56.7537 65.0795C56.0781 65.6182 55.6082 65.8687 54.7474 65.8623C54.6143 65.8617 54.4811 65.8611 54.344 65.8606C54.2059 65.8591 54.0678 65.8576 53.9255 65.8561C53.7853 65.8553 53.6452 65.8545 53.5008 65.8537C53.1553 65.8516 52.8098 65.8485 52.4643 65.8451C52.4391 66.0635 52.414 66.282 52.3881 66.507C52.3093 67.1906 52.1277 67.8207 51.9369 68.4818C51.9369 68.7139 51.9369 68.9459 51.9369 69.185C52.3828 69.5129 52.3828 69.5129 52.9477 69.7892C53.9168 70.2937 54.4967 70.7768 54.9801 71.7667C55.2904 73.2618 54.8531 74.4629 54.1012 75.7438C53.9899 75.9472 53.9899 75.9472 53.8764 76.1547C53.3096 77.1506 52.7143 77.8084 51.7062 78.3805C49.8417 78.8575 48.6574 78.0995 47.0151 77.2709C46.319 77.967 45.6229 78.6631 44.9057 79.3803C45.1087 79.7827 45.3117 80.1851 45.5209 80.5997C46.0831 81.7766 46.4133 82.6807 46.0242 83.9698C45.3102 85.6885 43.3483 86.57 41.7416 87.2904C40.7813 87.5797 39.9814 87.5214 39.0651 87.114C37.9608 86.4937 37.4223 85.3684 36.8197 84.3021C36.1487 84.386 35.5072 84.4917 34.8532 84.6647C34.183 84.8295 34.183 84.8295 33.4799 84.8295C33.486 85.033 33.4921 85.2364 33.4984 85.4461C33.5034 85.7166 33.5082 85.9872 33.5129 86.2577C33.5173 86.3914 33.5217 86.5251 33.5262 86.6628C33.5395 87.6905 33.3742 88.4246 32.6443 89.2C32.5393 89.284 32.4344 89.3681 32.3263 89.4547C32.221 89.5411 32.1156 89.6274 32.007 89.7163C31.1378 90.3594 29.991 90.1501 28.9535 90.1579C28.7292 90.163 28.5049 90.168 28.2738 90.1733C26.832 90.1831 26.1393 90.1239 25.1049 89.119C24.5662 88.4433 24.3156 87.9734 24.3221 87.1126C24.3227 86.9795 24.3232 86.8463 24.3238 86.7092C24.3253 86.5711 24.3268 86.433 24.3283 86.2907C24.3291 86.1505 24.3299 86.0104 24.3307 85.866C24.3328 85.5205 24.3359 85.175 24.3393 84.8295C23.9945 84.7898 23.6498 84.7501 23.305 84.7104C22.7566 84.6268 22.235 84.4557 21.7026 84.3021C21.4705 84.3021 21.2385 84.3021 20.9994 84.3021C20.6715 84.748 20.6715 84.748 20.3952 85.3129C19.87 86.3219 19.3878 86.9136 18.3188 87.3454C16.8276 87.6187 15.7352 87.2116 14.4516 86.4664C14.3152 86.3922 14.1788 86.318 14.0382 86.2416C13.0364 85.6749 12.3787 85.0843 11.8039 84.0714C11.3269 82.2069 12.0849 81.0226 12.9135 79.3803C12.2174 78.6842 11.5213 77.9881 10.8041 77.2709C10.4017 77.4739 9.99926 77.6769 9.58464 77.8861C8.40776 78.4483 7.50364 78.7785 6.21458 78.3894C4.70536 77.7625 4.07267 76.3506 3.35539 74.9747C3.29239 74.8565 3.2294 74.7383 3.1645 74.6165C2.70414 73.6971 2.58697 72.9522 2.81019 71.926C3.38774 70.506 4.53931 69.8284 5.88224 69.185C5.79837 68.5139 5.69271 67.8724 5.51969 67.2184C5.3549 66.5482 5.3549 66.5482 5.3549 65.8451C5.15142 65.8512 4.94794 65.8573 4.73829 65.8636C4.46776 65.8686 4.19722 65.8734 3.92668 65.8781C3.79299 65.8825 3.6593 65.8869 3.52156 65.8915C2.49392 65.9047 1.75983 65.7394 0.9844 65.0095C0.858301 64.8521 0.858301 64.8521 0.729655 64.6915C0.643323 64.5862 0.556991 64.4808 0.468043 64.3723C-0.175005 63.503 0.0342947 62.3562 0.0265296 61.3187C0.0214312 61.0944 0.0163329 60.8701 0.0110801 60.639C0.0012976 59.1972 0.0604866 58.5045 1.06542 57.4701C1.74107 56.9314 2.21101 56.6808 3.0718 56.6873C3.27149 56.6882 3.27149 56.6882 3.47521 56.689C3.68237 56.6912 3.68237 56.6912 3.89372 56.6935C4.03387 56.6943 4.17401 56.6951 4.31841 56.6959C4.66391 56.698 5.00941 56.7011 5.3549 56.7045C5.38005 56.486 5.4052 56.2676 5.43112 56.0426C5.50983 55.359 5.69152 54.7289 5.88224 54.0678C5.88224 53.8357 5.88224 53.6037 5.88224 53.3646C5.43638 53.0367 5.43638 53.0367 4.8715 52.7604C3.89423 52.2517 3.29524 51.7739 2.85002 50.7499C2.54922 49.4966 2.77069 48.6722 3.35539 47.5748C3.41974 47.4514 3.48409 47.328 3.55039 47.2008C4.86904 44.7191 4.86904 44.7191 6.21458 44.1602C7.96109 43.633 9.26087 44.5001 10.8041 45.2787C11.5002 44.5826 12.1963 43.8865 12.9135 43.1693C12.7105 42.7669 12.5074 42.3645 12.2983 41.9498C11.7361 40.773 11.4058 39.8688 11.7949 38.5798C12.2119 37.576 12.885 37.0476 13.7924 36.4896C13.9698 36.38 14.1472 36.2703 14.33 36.1573C15.627 35.4057 16.7426 34.853 18.2522 35.1713C19.5866 35.6393 20.2337 36.7405 20.8573 37.9508C20.9042 38.0487 20.9511 38.1466 20.9994 38.2474C21.6705 38.1636 22.312 38.0579 22.966 37.8849C23.6362 37.7201 23.6362 37.7201 24.3393 37.7201C24.3332 37.5166 24.327 37.3131 24.3207 37.1035C24.3158 36.833 24.311 36.5624 24.3063 36.2919C24.3019 36.1582 24.2975 36.0245 24.2929 35.8868C24.2796 34.8591 24.445 34.125 25.1749 33.3496C25.3323 33.2235 25.3323 33.2235 25.4928 33.0949C25.5982 33.0085 25.7036 32.9222 25.8121 32.8332C26.6814 32.1902 27.8282 32.3995 28.8656 32.3917ZM27.3276 35.4349C27.3251 35.6131 27.3251 35.6131 27.3226 35.7949C27.3131 36.3342 27.2984 36.8733 27.2836 37.4125C27.2811 37.5994 27.2786 37.7864 27.2761 37.979C27.2704 38.1591 27.2647 38.3393 27.2589 38.5249C27.2552 38.6905 27.2515 38.8562 27.2477 39.027C27.1232 39.6123 26.9174 39.817 26.4487 40.181C26.0634 40.3304 26.0634 40.3304 25.6466 40.4172C25.4162 40.468 25.4162 40.468 25.1811 40.5198C25.0193 40.553 24.8575 40.5863 24.6908 40.6205C23.4473 40.8922 22.2679 41.1889 21.0825 41.6573C20.5195 41.7943 20.1477 41.751 19.5932 41.5873C19.2966 41.2859 19.2966 41.2859 19.0658 40.8952C18.9797 40.754 18.8936 40.6128 18.8049 40.4674C18.717 40.3149 18.6291 40.1624 18.5385 40.0053C18.3485 39.6827 18.1581 39.3605 17.9672 39.0385C17.8829 38.8916 17.7986 38.7448 17.7118 38.5935C17.5095 38.2236 17.5095 38.2236 17.1322 38.0717C16.7015 38.2901 16.2932 38.5162 15.8798 38.7638C15.764 38.8317 15.6482 38.8995 15.5289 38.9695C15.2423 39.1377 14.9567 39.3076 14.6713 39.4779C14.8037 40.3114 15.308 40.9903 15.7466 41.6934C16.1777 42.4148 16.3966 43.0135 16.4291 43.8724C16.232 44.5611 15.7555 44.8665 15.1987 45.2897C14.2801 46.0185 13.5264 46.7923 12.7542 47.6723C12.6327 47.8106 12.5113 47.9488 12.3862 48.0912C12.3046 48.1932 12.223 48.2951 12.139 48.4002C11.7031 48.7399 11.351 48.7695 10.8041 48.7943C10.2768 48.6055 10.2768 48.6055 9.74943 48.3219C9.47514 48.1761 9.47514 48.1761 9.19531 48.0273C8.80723 47.8043 8.43574 47.5771 8.06852 47.3222C7.65275 46.9878 7.65275 46.9878 7.11271 47.0365C6.64865 47.8486 6.18459 48.6607 5.70646 49.4974C6.33785 50.1342 6.33785 50.1342 7.04267 50.5906C7.15778 50.6565 7.27289 50.7225 7.39149 50.7904C7.63149 50.9251 7.87182 51.0592 8.11247 51.1928C8.97901 51.6911 8.97901 51.6911 9.30998 52.141C9.59202 53.2472 8.83149 54.8264 8.51965 55.8874C8.29749 56.6947 8.13103 57.5093 7.97514 58.3318C7.78437 58.9091 7.58142 59.1336 7.11271 59.517C6.66176 59.6129 6.66176 59.6129 6.15965 59.6241C5.97951 59.6298 5.79937 59.6354 5.61376 59.6413C5.42683 59.6438 5.23989 59.6462 5.04728 59.6488C4.85762 59.654 4.66797 59.6592 4.47256 59.6646C4.00494 59.677 3.53748 59.6863 3.06974 59.6928C2.8085 60.2153 2.8708 60.694 2.87199 61.2748C2.87154 61.4959 2.87108 61.7171 2.87062 61.945C2.85489 62.4871 2.85489 62.4871 3.06974 62.8568C3.24793 62.8593 3.24793 62.8593 3.42972 62.8618C3.96903 62.8713 4.50809 62.886 5.04728 62.9008C5.23422 62.9033 5.42116 62.9058 5.61376 62.9083C5.79391 62.914 5.97405 62.9197 6.15965 62.9255C6.32534 62.9292 6.49104 62.9329 6.66176 62.9366C7.24711 63.0612 7.45177 63.2669 7.81584 63.7357C7.96518 64.1209 7.96518 64.1209 8.05204 64.5377C8.10281 64.7682 8.10281 64.7682 8.15461 65.0032C8.18783 65.165 8.22106 65.3268 8.25529 65.4935C8.52701 66.7371 8.82368 67.9165 9.29212 69.1019C9.42909 69.6648 9.3858 70.0367 9.22209 70.5912C8.92065 70.8878 8.92065 70.8878 8.52995 71.1185C8.38878 71.2047 8.24761 71.2908 8.10217 71.3795C7.94967 71.4674 7.79717 71.5553 7.64006 71.6459C7.31753 71.8359 6.99526 72.0263 6.67326 72.2172C6.52643 72.3015 6.37959 72.3858 6.22831 72.4726C5.85842 72.6748 5.85842 72.6748 5.70646 73.0521C5.92493 73.4829 6.15098 73.8912 6.3986 74.3046C6.46646 74.4204 6.53433 74.5362 6.60425 74.6555C6.77248 74.9421 6.94244 75.2277 7.11271 75.5131C7.94624 75.3807 8.62507 74.8764 9.32817 74.4378C10.0496 74.0067 10.6483 73.7878 11.5072 73.7553C12.1959 73.9524 12.5013 74.4289 12.9245 74.9857C13.6533 75.9043 14.4271 76.6579 15.3071 77.4302C15.4454 77.5516 15.5836 77.6731 15.726 77.7982C15.828 77.8798 15.9299 77.9614 16.035 78.0454C16.3747 78.4813 16.4043 78.8333 16.4291 79.3803C16.2403 79.9076 16.2403 79.9076 15.9567 80.435C15.8109 80.7092 15.8109 80.7092 15.6621 80.9891C15.4391 81.3772 15.2119 81.7486 14.957 82.1159C14.6226 82.5316 14.6226 82.5316 14.6713 83.0717C15.4834 83.5357 16.2955 83.9998 17.1322 84.4779C17.769 83.8465 17.769 83.8465 18.2254 83.1417C18.2913 83.0266 18.3573 82.9115 18.4252 82.7929C18.5599 82.5529 18.694 82.3126 18.8276 82.0719C19.3259 81.2054 19.3259 81.2054 19.7758 80.8744C20.882 80.5924 22.4612 81.3529 23.5222 81.6647C24.3295 81.8869 25.1441 82.0534 25.9666 82.2092C26.5439 82.4 26.7684 82.603 27.1518 83.0717C27.2477 83.5226 27.2477 83.5226 27.2589 84.0247C27.2646 84.2049 27.2702 84.385 27.2761 84.5706C27.2786 84.7576 27.281 84.9445 27.2836 85.1371C27.2888 85.3268 27.294 85.5164 27.2994 85.7118C27.3118 86.1794 27.3211 86.6469 27.3276 87.1146C27.85 87.3759 28.3288 87.3136 28.9096 87.3124C29.2413 87.3131 29.2413 87.3131 29.5798 87.3138C30.1219 87.3295 30.1219 87.3295 30.4916 87.1146C30.4941 86.9365 30.4941 86.9364 30.4966 86.7547C30.506 86.2153 30.5207 85.6763 30.5356 85.1371C30.5381 84.9502 30.5406 84.7632 30.5431 84.5706C30.5488 84.3905 30.5544 84.2103 30.5603 84.0247C30.564 83.859 30.5676 83.6933 30.5714 83.5226C30.696 82.9373 30.9017 82.7326 31.3705 82.3685C31.7557 82.2192 31.7557 82.2192 32.1725 82.1323C32.403 82.0816 32.403 82.0816 32.638 82.0298C32.7998 81.9965 32.9616 81.9633 33.1283 81.9291C34.3719 81.6574 35.5513 81.3607 36.7367 80.8923C37.2996 80.7553 37.6715 80.7986 38.226 80.9623C38.5226 81.2637 38.5226 81.2637 38.7533 81.6544C38.8394 81.7956 38.9255 81.9368 39.0143 82.0822C39.1022 82.2347 39.1901 82.3872 39.2807 82.5443C39.4707 82.8669 39.6611 83.1891 39.852 83.5111C39.9363 83.658 40.0206 83.8048 40.1074 83.9561C40.3096 84.326 40.3096 84.326 40.6869 84.4779C41.1177 84.2595 41.526 84.0334 41.9394 83.7858C42.0552 83.7179 42.171 83.6501 42.2903 83.5801C42.5769 83.4119 42.8625 83.2419 43.1479 83.0717C43.0155 82.2381 42.5112 81.5593 42.0726 80.8562C41.6415 80.1348 41.4226 79.536 41.3901 78.6771C41.5872 77.9885 42.0637 77.6831 42.6205 77.2599C43.5391 76.5311 44.2927 75.7573 45.065 74.8772C45.1864 74.739 45.3079 74.6008 45.433 74.4584C45.5146 74.3564 45.5962 74.2545 45.6802 74.1494C46.1161 73.8097 46.4681 73.7801 47.0151 73.7553C47.5424 73.9441 47.5424 73.9441 48.0697 74.2277C48.344 74.3735 48.344 74.3735 48.6239 74.5222C49.0119 74.7453 49.3834 74.9725 49.7507 75.2274C50.1664 75.5618 50.1664 75.5618 50.7065 75.5131C51.1705 74.701 51.6346 73.8889 52.1127 73.0521C51.4813 72.4154 51.4813 72.4154 50.7765 71.959C50.6614 71.8931 50.5463 71.8271 50.4277 71.7592C50.1877 71.6245 49.9474 71.4904 49.7067 71.3568C49.5921 71.2909 49.4774 71.2249 49.3593 71.157C49.2551 71.0989 49.151 71.0408 49.0437 70.9809C48.6963 70.7065 48.5679 70.4807 48.4213 70.0639C48.4484 69.7047 48.4484 69.7047 48.5476 69.3278C48.583 69.1893 48.6183 69.0509 48.6548 68.9082C48.6937 68.7675 48.7327 68.6268 48.7729 68.4818C48.8082 68.3502 48.8436 68.2185 48.88 68.0829C49.0241 67.5554 49.175 67.03 49.3256 66.5043C49.3626 66.3738 49.3995 66.2433 49.4375 66.1088C49.4743 65.9794 49.511 65.85 49.5488 65.7167C49.687 65.1815 49.7833 64.6401 49.8732 64.0948C50.0542 63.5953 50.2894 63.3589 50.7065 63.0326C51.1574 62.9366 51.1574 62.9366 51.6595 62.9255C51.8397 62.9198 52.0198 62.9142 52.2054 62.9083C52.3923 62.9058 52.5793 62.9033 52.7719 62.9008C52.9616 62.8956 53.1512 62.8903 53.3466 62.885C53.8142 62.8726 54.2817 62.8633 54.7494 62.8568C55.0107 62.3343 54.9484 61.8555 54.9472 61.2748C54.9479 60.9431 54.9479 60.9431 54.9486 60.6046C54.9643 60.0625 54.9643 60.0625 54.7494 59.6928C54.5712 59.6903 54.5712 59.6903 54.3895 59.6878C53.8501 59.6783 53.3111 59.6636 52.7719 59.6488C52.585 59.6463 52.398 59.6438 52.2054 59.6413C52.0253 59.6356 51.8451 59.6299 51.6595 59.6241C51.4938 59.6204 51.3281 59.6167 51.1574 59.6129C50.5684 59.4876 50.3675 59.2884 50.0033 58.8139C49.8351 58.3719 49.8351 58.3719 49.7225 57.878C49.6581 57.6066 49.6581 57.6066 49.5924 57.3297C49.5293 57.0474 49.5293 57.0474 49.465 56.7594C49.3793 56.3887 49.293 56.0181 49.2061 55.6477C49.1644 55.4695 49.1226 55.2913 49.0795 55.1076C48.9256 54.5049 48.7347 53.9224 48.5228 53.3378C48.3482 52.7792 48.3585 52.4952 48.5971 51.9584C49.0851 51.5386 49.6226 51.2245 50.1791 50.9037C50.5016 50.7137 50.8239 50.5233 51.1459 50.3324C51.3662 50.206 51.3662 50.206 51.5909 50.077C51.9608 49.8748 51.9608 49.8748 52.1127 49.4974C51.8942 49.0667 51.6682 48.6584 51.4206 48.245C51.3527 48.1292 51.2848 48.0134 51.2149 47.8941C51.0467 47.6075 50.8767 47.3219 50.7065 47.0365C49.8729 47.1689 49.1941 47.6732 48.491 48.1118C47.7696 48.5429 47.1708 48.7618 46.3119 48.7943C45.6233 48.5972 45.3179 48.1207 44.8947 47.5639C44.1659 46.6453 43.3921 45.8917 42.512 45.1194C42.3738 44.9979 42.2356 44.8765 42.0932 44.7514C41.9912 44.6698 41.8893 44.5882 41.7842 44.5042C41.4444 44.0683 41.4149 43.7162 41.3901 43.1693C41.5789 42.642 41.5789 42.642 41.8625 42.1146C41.9597 41.9318 42.0569 41.7489 42.157 41.5605C42.3801 41.1724 42.6073 40.8009 42.8622 40.4337C43.1966 40.018 43.1966 40.018 43.1479 39.4779C42.3358 39.0139 41.5237 38.5498 40.6869 38.0717C40.0502 38.7031 40.0502 38.7031 39.5938 39.4079C39.5279 39.523 39.4619 39.6381 39.394 39.7567C39.2593 39.9967 39.1251 40.237 38.9916 40.4777C38.4934 41.344 38.4934 41.344 38.044 41.6752C36.9552 41.9523 35.4794 41.2146 34.4453 40.8849C33.6064 40.6437 32.7569 40.4887 31.8972 40.3403C31.2838 40.1548 31.0681 39.972 30.6674 39.4779C30.5714 39.027 30.5714 39.027 30.5603 38.5249C30.5546 38.3447 30.549 38.1646 30.5431 37.979C30.5406 37.792 30.5381 37.6051 30.5356 37.4125C30.5304 37.2228 30.5251 37.0332 30.5198 36.8378C30.5074 36.3701 30.4981 35.9027 30.4916 35.4349C29.9691 35.1737 29.4903 35.236 28.9096 35.2372C28.6884 35.2367 28.4673 35.2363 28.2394 35.2358C27.6973 35.2201 27.6973 35.2201 27.3276 35.4349Z" fill="#B31A1C"/>
<path d="M67.5594 0.0151531C67.8398 0.00767553 67.8398 0.00767553 68.1258 4.69019e-05C69.3585 -0.0030155 70.0064 0.142033 70.9212 0.98195C71.6481 1.94342 71.487 2.99189 71.4485 4.14601C72.1446 4.32004 72.8407 4.49406 73.5579 4.67336C73.6231 4.43951 73.6231 4.43951 73.6897 4.20094C73.995 3.39194 74.3572 2.92038 75.063 2.42116C76.2102 2.02485 77.1147 2.00161 78.2422 2.49051C78.4622 2.60705 78.6806 2.72679 78.8972 2.84963C78.9997 2.9077 79.1021 2.96578 79.2076 3.02562C80.0329 3.53088 80.6802 4.15238 81.1165 5.02492C81.2358 6.18707 81.1846 7.07022 80.5328 8.05646C80.3713 8.37337 80.3713 8.37337 80.5452 8.73074C80.8078 9.13364 81.1173 9.44363 81.468 9.77101C82.1792 9.55033 82.1792 9.55033 82.851 9.23543C83.5833 8.90815 84.3759 8.98007 85.1595 9.06789C86.218 9.52724 86.69 10.4019 87.2688 11.353C87.379 11.5057 87.379 11.5057 87.4913 11.6613C88.1086 12.5633 88.1203 13.4693 87.972 14.5171C87.6763 15.5039 87.0444 15.9701 86.1798 16.4775C85.8626 16.6265 85.8626 16.6265 85.511 16.6265C85.685 17.3226 85.8591 18.0187 86.0384 18.7359C86.3574 18.7177 86.6764 18.6996 87.0052 18.6809C88.0582 18.6809 88.7908 18.87 89.554 19.6148C90.2304 20.5853 90.172 21.4327 90.1692 22.5811C90.1742 22.768 90.1792 22.9549 90.1843 23.1476C90.1874 24.3802 90.0423 25.0281 89.2024 25.9429C88.241 26.6698 87.1925 26.5087 86.0384 26.4702C85.8643 27.1663 85.6903 27.8624 85.511 28.5796C85.7449 28.6449 85.7449 28.6449 85.9834 28.7114C86.7924 29.0167 87.264 29.3789 87.7632 30.0847C88.1595 31.2319 88.1828 32.1364 87.6939 33.2639C87.5773 33.484 87.4576 33.7024 87.3347 33.919C87.2767 34.0214 87.2186 34.1238 87.1588 34.2293C86.6535 35.0547 86.032 35.7019 85.1595 36.1382C83.9973 36.2575 83.1141 36.2064 82.1279 35.5546C81.811 35.393 81.811 35.393 81.4536 35.5669C81.0507 35.8295 80.7407 36.139 80.4134 36.4898C80.634 37.2009 80.634 37.2009 80.9489 37.8727C81.2762 38.605 81.2043 39.3977 81.1165 40.1812C80.6571 41.2397 79.7825 41.7117 78.8313 42.2905C78.6787 42.4007 78.6787 42.4007 78.523 42.513C77.6211 43.1303 76.715 43.142 75.6673 42.9937C74.6805 42.698 74.2142 42.0661 73.7069 41.2015C73.5579 40.8843 73.5579 40.8843 73.5579 40.5327C72.8618 40.7068 72.1657 40.8808 71.4485 41.0601C71.4666 41.3791 71.4848 41.6982 71.5034 42.0269C71.5034 43.0799 71.3144 43.8126 70.5696 44.5757C69.599 45.2521 68.7517 45.1937 67.6033 45.1909C67.4164 45.1959 67.2294 45.2009 67.0368 45.206C65.8042 45.2091 65.1563 45.0641 64.2415 44.2241C63.5145 43.2627 63.6757 42.2142 63.7141 41.0601C63.0181 40.8861 62.322 40.712 61.6048 40.5327C61.5395 40.7666 61.5395 40.7666 61.4729 41.0051C61.1676 41.8141 60.8054 42.2857 60.0996 42.7849C58.9524 43.1812 58.048 43.2045 56.9205 42.7156C56.7004 42.599 56.482 42.4793 56.2654 42.3565C56.163 42.2984 56.0606 42.2403 55.955 42.1805C55.1297 41.6752 54.4824 41.0537 54.0462 40.1812C53.9268 39.019 53.978 38.1359 54.6298 37.1496C54.7914 36.8327 54.7914 36.8327 54.6175 36.4753C54.3549 36.0724 54.0454 35.7625 53.6946 35.4351C52.9834 35.6558 52.9834 35.6558 52.3117 35.9707C51.5794 36.2979 50.7867 36.226 50.0032 36.1382C48.9447 35.6788 48.4727 34.8042 47.8938 33.853C47.8204 33.7513 47.747 33.6496 47.6714 33.5447C47.0541 32.6428 47.0423 31.7367 47.1907 30.689C47.4864 29.7022 48.1183 29.2359 48.9828 28.7286C49.3001 28.5796 49.3001 28.5796 49.6516 28.5796C49.4776 27.8835 49.3036 27.1874 49.1243 26.4702C48.8053 26.4884 48.4862 26.5065 48.1575 26.5252C47.1044 26.5252 46.3718 26.3361 45.6087 25.5913C44.9322 24.6207 44.9907 23.7734 44.9934 22.625C44.9885 22.4381 44.9835 22.2511 44.9783 22.0585C44.9753 20.8259 45.1203 20.178 45.9602 19.2632C46.9217 18.5362 47.9702 18.6974 49.1243 18.7359C49.2983 18.0398 49.4723 17.3437 49.6516 16.6265C49.4178 16.5612 49.4178 16.5612 49.1792 16.4946C48.3702 16.1894 47.8987 15.8272 47.3994 15.1214C47.0031 13.9742 46.9799 13.0697 47.4688 11.9422C47.5853 11.7221 47.7051 11.5037 47.8279 11.2871C47.915 11.1335 47.915 11.1335 48.0039 10.9768C48.5092 10.1514 49.1307 9.50416 50.0032 9.06789C51.1654 8.94854 52.0485 8.99973 53.0347 9.65154C53.3517 9.81312 53.3517 9.81312 53.709 9.63918C54.1119 9.3766 54.4219 9.06709 54.7493 8.71632C54.5286 8.00516 54.5286 8.00516 54.2137 7.33342C53.8864 6.60107 53.9584 5.80843 54.0462 5.02492C54.5055 3.9664 55.3802 3.49438 56.3313 2.91554C56.4331 2.84213 56.5348 2.76871 56.6396 2.69307C57.5416 2.07582 58.4476 2.06406 59.4954 2.21242C60.4822 2.50809 60.9484 3.13998 61.4558 4.00456C61.6048 4.32179 61.6048 4.32179 61.6048 4.67336C62.6489 4.41232 62.6489 4.41232 63.7141 4.14601C63.696 3.82697 63.6779 3.50793 63.6592 3.17922C63.6592 2.12615 63.8483 1.39353 64.593 0.630387C65.5636 -0.0460491 66.411 0.0123893 67.5594 0.0151531ZM66.7024 2.91554C66.6999 3.12106 66.6974 3.32658 66.6949 3.53833C66.6866 3.81048 66.6781 4.08262 66.6695 4.35475C66.6679 4.5575 66.6679 4.5575 66.6664 4.76434C66.6386 5.4821 66.5833 5.82533 66.1524 6.42224C65.5741 6.83536 65.1595 6.95199 64.4612 7.06838C63.7178 7.20447 63.018 7.34706 62.3079 7.60671C61.6933 7.81953 61.2056 7.9566 60.5501 7.83742C59.6501 7.16244 59.1625 6.16695 58.6165 5.2007C57.9245 5.43137 57.5219 5.71382 57.0345 6.25539C57.1233 6.39542 57.2121 6.53546 57.3036 6.67973C57.4749 6.95912 57.4749 6.95912 57.6497 7.24416C57.821 7.51947 57.821 7.51947 57.9958 7.80034C58.2856 8.40807 58.3468 8.75595 58.2649 9.41945C57.7311 10.2034 57.062 10.7644 56.3423 11.375C55.8498 11.8228 55.428 12.3178 55.0034 12.8293C54.6474 13.2238 54.4498 13.2813 53.9185 13.3361C53.2129 13.2755 52.8209 13.0438 52.2224 12.6714C52.0362 12.5572 51.8499 12.443 51.658 12.3253C51.518 12.2365 51.378 12.1477 51.2337 12.0562C50.6921 12.5436 50.4097 12.9462 50.179 13.6382C50.4203 13.7813 50.4203 13.7813 50.6665 13.9273C50.8776 14.0542 51.0886 14.1813 51.2996 14.3084C51.4056 14.371 51.5117 14.4337 51.6209 14.4982C52.1556 14.822 52.4636 15.0437 52.8157 15.5718C52.776 16.7821 52.4559 17.8756 52.1078 19.0311C51.9703 19.5002 51.8589 19.9606 51.761 20.4387C51.5586 21.1092 51.4864 21.2234 50.8821 21.5484C50.3705 21.6359 49.8622 21.6542 49.344 21.6692C49.135 21.6782 49.135 21.6782 48.9217 21.6874C48.5792 21.7018 48.2365 21.7133 47.8938 21.7241C47.8938 22.3042 47.8938 22.8843 47.8938 23.4819C48.0993 23.4844 48.3049 23.4869 48.5166 23.4895C48.7888 23.4977 49.0609 23.5062 49.333 23.5149C49.4682 23.5159 49.6034 23.5169 49.7426 23.518C50.4462 23.5452 50.8035 23.6031 51.3943 24.0134C51.8541 24.6695 51.9989 25.2418 52.1455 26.0198C52.1989 26.2797 52.2527 26.5394 52.3069 26.7991C52.3322 26.9228 52.3576 27.0465 52.3837 27.174C52.4938 27.6543 52.6555 28.114 52.8157 28.5796C52.913 29.261 52.9028 29.5182 52.4861 30.0737C51.8004 30.6839 50.9744 31.1184 50.179 31.5679C50.4097 32.2599 50.6921 32.6625 51.2337 33.1499C51.3737 33.0611 51.5137 32.9723 51.658 32.8808C51.9374 32.7094 51.9374 32.7094 52.2224 32.5347C52.4978 32.3634 52.4978 32.3634 52.7786 32.1886C53.3864 31.8988 53.7342 31.8376 54.3977 31.9194C55.1817 32.4532 55.7427 33.1224 56.3533 33.8421C56.8011 34.3346 57.2961 34.7564 57.8076 35.181C58.2027 35.5375 58.2596 35.735 58.3144 36.2673C58.2539 36.969 58.0246 37.3478 57.6497 37.94C57.1973 38.5762 57.1973 38.5762 57.0345 39.3023C57.5565 39.5343 58.0786 39.7663 58.6165 40.0054C58.7119 39.8445 58.8073 39.6836 58.9056 39.5179C59.0325 39.3068 59.1596 39.0958 59.2867 38.8848C59.3493 38.7787 59.412 38.6727 59.4765 38.5634C59.8002 38.0288 60.0219 37.7208 60.5501 37.3687C61.7603 37.4083 62.8539 37.7285 64.0094 38.0766C64.4785 38.214 64.9389 38.3254 65.417 38.4234C66.0875 38.6258 66.2017 38.698 66.5266 39.3023C66.6141 39.8139 66.6325 40.3221 66.6475 40.8403C66.6535 40.9797 66.6595 41.1191 66.6657 41.2626C66.6801 41.6052 66.6916 41.9479 66.7024 42.2905C67.2825 42.2905 67.8626 42.2905 68.4602 42.2905C68.4627 42.085 68.4652 41.8795 68.4678 41.6678C68.476 41.3956 68.4845 41.1235 68.4932 40.8513C68.4947 40.6486 68.4947 40.6486 68.4963 40.4417C68.5235 39.7382 68.5814 39.3809 68.9917 38.79C69.6478 38.3302 70.2201 38.1855 70.9981 38.0388C71.258 37.9855 71.5177 37.9317 71.7774 37.8775C71.9011 37.8521 72.0248 37.8268 72.1523 37.8007C72.6326 37.6906 73.0923 37.5289 73.5579 37.3687C74.0962 37.2918 74.0962 37.2918 74.6126 37.3687C75.5125 38.0436 76.0002 39.0391 76.5462 40.0054C77.2382 39.7747 77.6408 39.4923 78.1282 38.9507C78.0394 38.8107 77.9506 38.6706 77.859 38.5264C77.7448 38.3401 77.6306 38.1538 77.513 37.9619C77.3988 37.7784 77.2846 37.5948 77.1669 37.4057C76.8771 36.798 76.8158 36.4501 76.8977 35.7866C77.4315 35.0026 78.1007 34.4417 78.8203 33.8311C79.3129 33.3833 79.7347 32.8883 80.1593 32.3768C80.5158 31.9817 80.7133 31.9248 81.2456 31.87C81.9473 31.9304 82.3261 32.1597 82.9182 32.5347C83.5545 32.9871 83.5545 32.9871 84.2805 33.1499C84.5126 32.6278 84.7446 32.1058 84.9837 31.5679C84.8228 31.4725 84.6619 31.3771 84.4962 31.2788C84.2851 31.1518 84.0741 31.0248 83.8631 30.8977C83.757 30.8351 83.651 30.7724 83.5417 30.7079C83.0071 30.3841 82.699 30.1624 82.347 29.6343C82.3866 28.424 82.7067 27.3305 83.0549 26.175C83.1923 25.7058 83.3037 25.2455 83.4016 24.7673C83.6041 24.0968 83.6763 23.9827 84.2805 23.6577C84.7921 23.5702 85.3004 23.5519 85.8186 23.5369C86.0277 23.5279 86.0277 23.5279 86.2409 23.5187C86.5835 23.5042 86.9261 23.4928 87.2688 23.4819C87.2688 22.9019 87.2688 22.3218 87.2688 21.7241C87.0633 21.7216 86.8578 21.7192 86.646 21.7166C86.3739 21.7083 86.1018 21.6999 85.8296 21.6912C85.6945 21.6902 85.5593 21.6891 85.42 21.6881C84.7165 21.6609 84.3592 21.603 83.7683 21.1927C83.3085 20.5366 83.1638 19.9643 83.0171 19.1863C82.9638 18.9264 82.91 18.6666 82.8558 18.407C82.8178 18.2214 82.8178 18.2214 82.779 18.0321C82.6688 17.5518 82.5072 17.0921 82.347 16.6265C82.2701 16.0882 82.2701 16.0882 82.347 15.5718C83.0219 14.6718 84.0174 14.1842 84.9837 13.6382C84.753 12.9462 84.4706 12.5436 83.929 12.0562C83.789 12.145 83.6489 12.2338 83.5046 12.3253C83.3184 12.4395 83.1321 12.5537 82.9402 12.6714C82.7567 12.7856 82.5731 12.8998 82.384 13.0175C81.7763 13.3073 81.4284 13.3685 80.7649 13.2866C79.9809 12.7529 79.42 12.0837 78.8094 11.364C78.3616 10.8715 77.8666 10.4497 77.355 10.0251C76.96 9.66858 76.903 9.47105 76.8483 8.9388C76.9087 8.23707 77.138 7.85832 77.513 7.26613C77.9654 6.62985 77.9654 6.62985 78.1282 5.90382C77.3451 5.55578 77.3451 5.55578 76.5462 5.2007C76.4031 5.44202 76.4031 5.44202 76.2571 5.68822C76.1301 5.89928 76.0031 6.11031 75.876 6.32131C75.8134 6.42735 75.7507 6.5334 75.6861 6.64266C75.3624 7.17726 75.1407 7.48533 74.6126 7.83742C73.4023 7.79774 72.3088 7.47763 71.1533 7.12949C70.6841 6.99206 70.2238 6.88066 69.7456 6.78273C69.0751 6.58032 68.961 6.50811 68.636 5.90382C68.5485 5.39222 68.5302 4.88394 68.5152 4.36574C68.5092 4.22638 68.5032 4.08703 68.497 3.94345C68.4825 3.6009 68.4711 3.25823 68.4602 2.91554C67.8802 2.91554 67.3001 2.91554 66.7024 2.91554Z" fill="#B31A1C"/>
<path d="M37.5444 49.9699C37.7735 50.1615 38.0004 50.3558 38.2255 50.5522C38.3957 50.6879 38.5659 50.8237 38.7412 50.9635C40.4288 52.3722 41.4913 54.3333 42.2685 56.353C42.3448 56.5485 42.4212 56.7441 42.4999 56.9456C43.6456 60.4626 43.1906 64.3911 41.5983 67.6689C41.051 68.7398 40.4203 69.6805 39.6318 70.5913C39.5049 70.7653 39.378 70.9393 39.2472 71.1186C37.3933 73.2835 34.0042 75.0053 31.1943 75.3374C27.053 75.6444 23.1869 75.0224 19.9257 72.2859C19.8158 72.1908 19.7059 72.0956 19.5927 71.9975C19.3837 71.8402 19.3837 71.8402 19.1704 71.6796C17.4618 70.2382 16.3328 68.2604 15.5497 66.1967C15.4736 66.0014 15.3975 65.8061 15.319 65.6049C14.171 62.0889 14.6282 58.1579 16.2199 54.8808C16.7663 53.8107 17.3986 52.8683 18.1865 51.9585C18.2934 51.8171 18.4004 51.6757 18.5105 51.53C23.1179 46.0546 32.0749 45.7669 37.5444 49.9699ZM20.8671 53.3977C18.5191 55.9443 17.6139 58.845 17.7504 62.2671C17.9586 65.2138 19.3921 67.7017 21.5263 69.7124C23.8824 71.6536 26.6686 72.6288 29.7235 72.4974C32.6806 72.1534 35.6311 70.857 37.5224 68.4819C39.6299 65.6768 40.3686 62.8509 39.9833 59.3413C39.4959 56.4587 37.7816 53.8781 35.424 52.1672C30.6633 49.0448 25.0775 49.5744 20.8671 53.3977Z" fill="#B31A1C"/>
<path d="M67.5261 12.6714C67.7784 12.6729 67.7784 12.6729 68.0358 12.6744C70.3144 12.7312 72.1275 13.4206 73.9092 14.8686C74.0538 14.9774 74.1983 15.0862 74.3473 15.1982C76.0137 16.6103 77.2693 18.867 77.4587 21.0624C77.559 24.1006 77.2969 26.4832 75.3155 28.9311C75.1813 29.116 75.0472 29.3009 74.909 29.4914C73.2919 31.1837 70.9436 32.3973 68.5898 32.5292C68.2719 32.5352 67.9539 32.5369 67.636 32.5347C67.4678 32.5336 67.2996 32.5326 67.1263 32.5316C64.8443 32.4747 63.039 31.7831 61.2529 30.3374C61.068 30.2032 60.8831 30.0691 60.6926 29.9309C59.0003 28.3138 57.7868 25.9655 57.6549 23.6117C57.6489 23.2938 57.6472 22.9759 57.6494 22.6579C57.6504 22.4898 57.6514 22.3216 57.6525 22.1483C57.7094 19.8663 58.401 18.061 59.8467 16.2749C59.9808 16.09 60.115 15.9051 60.2532 15.7146C62.1719 13.7066 64.7748 12.6521 67.5261 12.6714ZM62.5274 17.7031C61.0225 19.2972 60.6384 21.1836 60.6769 23.2849C60.7662 25.2224 61.763 26.6876 63.1206 27.9973C64.7816 29.3611 66.558 29.674 68.6434 29.5005C70.5281 29.2701 71.9757 28.1989 73.1731 26.7778C74.4366 25.0266 74.7103 23.1293 74.4365 21.021C73.9738 19.0812 72.7409 17.5843 71.0637 16.5386C68.15 14.9496 64.9812 15.5113 62.5274 17.7031Z" fill="#B31A1C"/>
<path d="M39.4122 7.01341C40.2862 7.19831 40.857 7.6569 41.5655 8.18895C41.6845 8.27758 41.8036 8.3662 41.9262 8.45751C42.3345 8.76204 42.7413 9.0683 43.1475 9.37547C43.2823 9.47726 43.4171 9.57904 43.556 9.68391C43.6822 9.78062 43.8085 9.87733 43.9385 9.97698C44.0528 10.0642 44.167 10.1513 44.2846 10.2412C44.8059 10.6923 44.7787 11.19 44.8387 11.8508C44.6592 12.4774 44.1991 12.7706 43.6749 13.1108C43.0473 13.4534 42.4042 13.7515 41.7523 14.0447C41.5829 14.1245 41.4135 14.2044 41.239 14.2867C40.3146 14.7069 39.596 15.0123 38.5772 14.8686C38.0609 14.5061 38.0609 14.5061 37.6983 13.9897C37.5939 13.3286 37.5722 12.9542 37.94 12.3857C38.6333 11.8905 39.3884 11.5362 40.1593 11.1772C39.9529 11.012 39.9529 11.012 39.7425 10.8435C39.4756 10.628 39.4756 10.628 39.2034 10.4082C39.026 10.2654 38.8486 10.1227 38.6658 9.9756C38.1173 9.50152 38.0655 9.38151 37.984 8.66136C38.0499 8.01317 38.0499 8.01317 38.4234 7.49681C38.9288 7.13426 38.9288 7.13426 39.4122 7.01341Z" fill="#B31A1C"/>
<path d="M61.6044 73.5795C62.0438 73.8432 62.0438 73.8432 62.3075 74.2826C62.4479 75.0485 62.4822 75.4302 62.0432 76.0803C61.734 76.4353 61.4159 76.7686 61.0771 77.0951C60.961 77.2112 60.845 77.3272 60.7255 77.4467C60.8823 77.4913 61.0391 77.536 61.2006 77.582C61.4064 77.6425 61.6121 77.703 61.8241 77.7653C62.13 77.854 62.13 77.854 62.4421 77.9445C62.9693 78.1349 63.3123 78.291 63.7138 78.6772C63.9078 79.3756 63.9626 79.7477 63.6588 80.413C63.3622 80.7865 63.3622 80.7865 63.0106 80.9623C61.6455 81.0571 60.4835 80.7667 59.1764 80.391C58.9798 80.3382 58.7833 80.2854 58.5808 80.231C58.3919 80.1778 58.203 80.1245 58.0084 80.0697C57.8381 80.0218 57.6677 79.974 57.4922 79.9246C56.9653 79.7029 56.6877 79.4734 56.331 79.0287C56.2036 78.3343 56.1518 77.9118 56.5273 77.3053C56.8559 76.9244 57.2065 76.5729 57.5614 76.2162C57.755 76.0071 57.9476 75.7972 58.1396 75.5866C58.9916 74.6538 58.9916 74.6538 59.3556 74.2614C59.4417 74.1681 59.5278 74.0749 59.6164 73.9788C60.1735 73.4378 60.875 73.4801 61.6044 73.5795Z" fill="#B31A1C"/>
<path d="M15.7258 19.2632C16.1432 19.439 16.1432 19.439 16.4289 19.7906C16.6108 20.4207 16.6669 20.9817 16.4838 21.6143C16.1808 21.9895 16.0187 22.1158 15.55 22.2515C14.8718 22.2638 14.3277 22.2252 13.7922 21.7901C13.5402 21.1916 13.5261 20.7854 13.6164 20.1421C14.2197 19.2829 14.6944 19.1132 15.7258 19.2632Z" fill="#B31A1C"/>
<path d="M80.5009 57.6494C81.2796 57.7884 81.5366 57.9992 81.995 58.6382C82.1203 59.306 82.05 59.5939 81.7204 60.1872C81.1642 60.6864 80.8012 60.7343 80.0614 60.7475C79.4641 60.5538 79.3676 60.4099 79.0068 59.8686C78.9073 59.1018 78.9201 58.7617 79.3693 58.1218C79.8857 57.7593 79.8857 57.7593 80.5009 57.6494Z" fill="#B31A1C"/>
<path d="M64.7686 74.81C65.2175 74.9596 65.4127 75.0857 65.7024 75.4582C65.8793 76.0531 65.7889 76.4969 65.6475 77.0952C65.3422 77.604 65.1111 77.6248 64.5269 77.7763C63.8191 77.8007 63.5578 77.7053 63.0108 77.2709C62.7349 76.7192 62.7731 76.2974 62.835 75.6889C63.4028 74.904 63.8048 74.6665 64.7686 74.81Z" fill="#B31A1C"/>
<path d="M79.183 62.1537C79.6918 62.459 79.7127 62.6901 79.8641 63.2743C79.8885 63.9821 79.7932 64.2434 79.3588 64.7904C78.7948 65.0724 78.2128 65.0497 77.601 64.9662C77.1615 64.7026 77.1615 64.7026 76.8978 64.2631C76.8016 63.7741 76.7956 63.3451 76.8978 62.8568C77.5939 61.9519 78.0924 61.9241 79.183 62.1537Z" fill="#B31A1C"/>
<path d="M19.417 16.099C19.8565 16.3627 19.8565 16.3627 20.1201 16.8022C20.2603 17.5144 20.241 18.0271 19.8345 18.6369C19.3175 18.977 18.9817 19.0747 18.3623 19.0873C17.859 18.87 17.5726 18.6775 17.2417 18.2414C17.086 17.6963 17.1495 17.3442 17.3076 16.8022C17.8446 15.986 18.5091 15.9204 19.417 16.099Z" fill="#B31A1C"/>
<path d="M12.5618 22.9545C13.0782 23.3171 13.0782 23.3171 13.4407 23.8335C13.531 24.4767 13.5169 24.883 13.2649 25.4814C12.7261 25.9192 12.1929 25.9963 11.5071 25.9428C10.9908 25.6792 10.9908 25.6792 10.6282 25.2397C10.4637 24.6254 10.3866 24.2121 10.5843 23.6027C11.1314 22.864 11.7049 22.8511 12.5618 22.9545Z" fill="#B31A1C"/>
<path d="M82.7533 48.3769C83.5167 48.4546 83.7922 48.5542 84.2804 49.146C84.4227 49.8075 84.3601 50.3579 84.1046 50.9807C83.5626 51.4041 83.027 51.4855 82.3468 51.4311C81.7203 51.0979 81.5206 50.883 81.2921 50.2117C81.2921 49.2505 81.7781 48.4873 82.7533 48.3769Z" fill="#B31A1C"/>
<path d="M23.2842 13.4624C23.8006 13.825 23.8006 13.825 24.1631 14.3413C24.2741 15.0441 24.2825 15.3973 23.8775 15.9893C23.3611 16.3426 23.0311 16.4379 22.4053 16.4507C21.902 16.2333 21.6155 16.0408 21.2847 15.6047C21.129 15.0597 21.1925 14.7076 21.3506 14.1655C21.8822 13.3886 22.3739 13.3187 23.2842 13.4624Z" fill="#B31A1C"/>
<path d="M27.4804 11.4567C27.8546 11.5288 27.8546 11.5288 28.305 11.7924C28.6639 12.4165 28.6945 12.9355 28.5577 13.6382C28.305 14.0776 28.305 14.0776 27.8546 14.3413C27.3044 14.4473 26.8217 14.4572 26.2726 14.3413C25.7332 13.894 25.5961 13.6224 25.4816 12.935C25.6873 11.7008 26.3093 11.3814 27.4804 11.4567Z" fill="#B31A1C"/>
<path d="M75.5794 65.9111C76.3581 66.0502 76.6152 66.2609 77.0736 66.8999C77.1999 67.5737 77.1308 67.8556 76.7879 68.449C76.2769 68.9196 76.0076 69.0093 75.3158 69.0093C74.6954 68.7273 74.4671 68.5273 74.0853 67.9546C73.9773 67.2451 74.0249 66.9841 74.4478 66.3945C74.9642 66.021 74.9642 66.021 75.5794 65.9111Z" fill="#B31A1C"/>
<path d="M81.9733 53.123C82.4889 53.1399 82.683 53.1797 83.1378 53.4526C83.5113 54.0751 83.5178 54.5902 83.4015 55.2983C83.2147 55.7268 83.2147 55.7268 82.8741 56.0014C82.2075 56.1866 81.8044 56.2344 81.1493 56.0014C80.6147 55.5127 80.5114 55.1311 80.4132 54.4194C80.7776 53.5996 81.0608 53.2113 81.9733 53.123Z" fill="#B31A1C"/>
<path d="M7.46398 31.2932C8.12666 31.4175 8.41394 31.5998 8.87023 32.0952C9.08763 32.7338 9.10659 33.0166 8.82629 33.6333C8.4258 34.1482 8.13452 34.3586 7.48595 34.4573C6.93664 34.3804 6.93664 34.3804 6.43127 34.0178C6.05773 33.5014 6.05773 33.5014 5.94787 32.8862C6.1145 31.9531 6.5175 31.4707 7.46398 31.2932Z" fill="#B31A1C"/>
<path d="M9.39758 26.8987C10.0603 27.0229 10.3475 27.2053 10.8038 27.7007C11.0212 28.3393 11.0402 28.6221 10.7599 29.2388C10.3594 29.7537 10.0681 29.964 9.41955 30.0627C8.87023 29.9858 8.87023 29.9858 8.36486 29.6233C7.99133 29.1069 7.99133 29.1069 7.88146 28.4917C8.0481 27.5585 8.45109 27.0761 9.39758 26.8987Z" fill="#B31A1C"/>
<path d="M32.2493 10.1226C32.7547 10.3753 32.7547 10.3753 33.1282 10.8257C33.2539 11.3784 33.2539 11.8551 33.1282 12.4078C32.6809 12.9472 32.4093 13.0842 31.7219 13.1988C31.0594 13.0884 30.7755 12.8938 30.3157 12.4078C30.1128 11.8804 30.1178 11.6133 30.2608 11.0674C30.7388 10.2024 31.2742 9.98332 32.2493 10.1226Z" fill="#B31A1C"/>
<path d="M36.9949 9.41948C37.5003 9.67216 37.5003 9.67216 37.8738 10.1226C37.9996 10.6753 37.9996 11.152 37.8738 11.7046C37.4265 12.244 37.155 12.3811 36.4676 12.4957C35.7802 12.3811 35.5086 12.244 35.0613 11.7046C34.9356 11.152 34.9356 10.6753 35.0613 10.1226C35.6289 9.4382 36.1224 9.27406 36.9949 9.41948Z" fill="#B31A1C"/>
<path d="M72.6563 69.4514C73.0305 69.5366 73.0305 69.5366 73.481 69.9101C73.7783 70.5049 73.843 70.8142 73.7336 71.4702C73.47 71.9756 73.47 71.9756 73.0305 72.3491C72.1473 72.4893 71.8287 72.4939 71.0969 71.9756C70.7454 71.4702 70.7454 71.4702 70.6465 70.9428C70.8757 69.7205 71.4789 69.3816 72.6563 69.4514Z" fill="#B31A1C"/>
<path d="M82.9291 43.6418C83.4842 43.6516 83.715 43.6745 84.2035 43.9604C84.5619 44.5838 84.5942 45.1042 84.4562 45.8061C84.1925 46.2456 84.1925 46.2456 83.753 46.5093C83.0866 46.6281 82.5397 46.5934 81.9183 46.3225C81.5043 45.8092 81.4791 45.4028 81.4679 44.7514C81.8603 43.931 82.0353 43.6696 82.9291 43.6418Z" fill="#B31A1C"/>
<path d="M69.3389 72.5249C69.7325 72.8423 69.8398 73.0669 69.9212 73.5624C69.9579 74.1785 69.9241 74.5379 69.6026 75.0737C68.981 75.4467 68.4637 75.4764 67.7569 75.3374C67.3174 75.0737 67.3174 75.0737 67.0537 74.6343C66.9319 73.9507 66.9534 73.4144 67.2844 72.7996C67.9256 72.2059 68.5399 72.3394 69.3389 72.5249Z" fill="#B31A1C"/>
</svg>
