<svg width="80" height="80" viewBox="0 0 80 80" fill="none" xmlns="http://www.w3.org/2000/svg">
<path d="M30.4467 13.3696C30.5296 13.3692 30.6126 13.3688 30.6981 13.3684C30.9752 13.3673 31.2523 13.3669 31.5294 13.3665C31.7284 13.3658 31.9275 13.3651 32.1266 13.3644C32.7799 13.3622 33.4331 13.3611 34.0864 13.3601C34.3119 13.3597 34.5374 13.3593 34.7628 13.3588C35.8227 13.3568 36.8826 13.3554 37.9425 13.3545C39.1629 13.3535 40.3833 13.3508 41.6037 13.3466C42.5488 13.3434 43.494 13.3419 44.4391 13.3415C45.0027 13.3413 45.5663 13.3404 46.1298 13.3377C46.6609 13.3353 47.1919 13.3349 47.723 13.336C47.9167 13.336 48.1104 13.3354 48.3041 13.3339C49.8125 13.3234 51.258 13.4607 52.611 14.1967C52.6794 14.2324 52.7477 14.2681 52.8182 14.3049C53.3928 14.6112 53.9272 14.9612 54.4426 15.3594C54.5476 15.4365 54.6527 15.5137 54.7609 15.5932C56.492 17.1 57.4624 19.4138 57.6381 21.6595C57.7774 23.9738 57.0825 26.3154 55.5435 28.0724C54.0794 29.6647 52.4281 30.4988 50.3897 31.1552C50.4829 31.1756 50.5762 31.196 50.6722 31.2169C53.0505 31.7869 55.0612 33.1019 56.4098 35.1683C57.7308 37.3268 58.0769 39.8071 57.5128 42.2647C56.9337 44.4982 55.4404 46.5127 53.455 47.6915C51.2498 48.9473 48.791 49.2302 46.3368 48.6138C45.0048 48.2042 43.848 47.5581 42.8035 46.6393C42.6848 46.5355 42.6848 46.5355 42.5636 46.4295C41.4565 45.3952 40.6801 44.0124 40.2505 42.5677C40.2226 42.4739 40.1947 42.3802 40.1659 42.2836C40.1447 42.2121 40.1235 42.1406 40.1016 42.0669C40.1015 42.1514 40.1013 42.2359 40.1011 42.3229C40.0973 44.3867 40.0911 46.4505 40.0825 48.5144C40.0784 49.5124 40.075 50.5105 40.0734 51.5086C40.0721 52.3793 40.0693 53.25 40.0648 54.1208C40.0624 54.5811 40.0608 55.0414 40.0609 55.5017C40.061 55.9366 40.0591 56.3714 40.0558 56.8062C40.0549 56.9643 40.0547 57.1224 40.0553 57.2804C40.06 58.7399 39.8748 60.2665 39.2053 61.5844C39.1702 61.656 39.1351 61.7277 39.0989 61.8015C38.0307 63.8956 36.2176 65.4163 34.0109 66.2068C31.7515 66.9148 29.2304 66.8313 27.0921 65.7754C26.422 65.4238 25.8172 65.0035 25.241 64.5136C25.1562 64.4485 25.0714 64.3834 24.9841 64.3163C23.3194 62.9321 22.3628 60.6369 22.166 58.5294C21.9803 56.1565 22.6437 53.8043 24.1941 51.9734C24.2652 51.8935 24.3364 51.8137 24.4097 51.7314C24.4776 51.6537 24.5455 51.576 24.6155 51.496C25.9403 50.0742 27.6513 49.318 29.5017 48.8217C29.3619 48.7911 29.3619 48.7911 29.2192 48.76C26.786 48.1768 24.7343 46.8051 23.3964 44.6584C22.1604 42.5665 21.8192 40.0721 22.4092 37.7217C23.0991 35.3906 24.4742 33.4265 26.592 32.1944C27.5168 31.7024 28.4731 31.3598 29.5017 31.1552C29.3935 31.1274 29.2853 31.0995 29.1737 31.0708C27.6262 30.6549 26.226 30.0702 25.0332 28.9729C24.947 28.8963 24.8609 28.8197 24.7722 28.7407C23.1025 27.1759 22.1031 24.9297 22.0069 22.6468C21.9546 20.0868 22.7959 17.7872 24.5601 15.9351C26.1325 14.3746 28.2115 13.369 30.4467 13.3696ZM39.9977 31.1552C39.9977 33.5215 39.9977 35.8878 39.9977 38.3257C40.032 38.3257 40.0663 38.3257 40.1016 38.3257C40.1295 38.2163 40.1573 38.1068 40.186 37.9941C40.5955 36.4588 41.2099 35.154 42.2839 33.9611C42.3453 33.8901 42.4066 33.8191 42.4699 33.7459C43.7427 32.3648 45.4907 31.6895 47.2721 31.2592C47.2721 31.2249 47.2721 31.1906 47.2721 31.1552C44.8715 31.1552 42.471 31.1552 39.9977 31.1552Z" fill="#B558FF"/>
<path d="M30.4467 13.3696C30.5296 13.3692 30.6126 13.3688 30.6981 13.3684C30.9752 13.3673 31.2523 13.3669 31.5294 13.3665C31.7284 13.3658 31.9275 13.3651 32.1266 13.3644C32.7799 13.3622 33.4331 13.3611 34.0864 13.3601C34.3119 13.3597 34.5374 13.3593 34.7628 13.3588C35.8227 13.3568 36.8826 13.3554 37.9425 13.3545C39.1629 13.3535 40.3833 13.3508 41.6037 13.3466C42.5488 13.3434 43.494 13.3419 44.4391 13.3415C45.0027 13.3413 45.5663 13.3404 46.1298 13.3377C46.6609 13.3353 47.1919 13.3349 47.723 13.336C47.9167 13.336 48.1104 13.3354 48.3041 13.3339C49.8125 13.3234 51.258 13.4607 52.611 14.1967C52.6794 14.2324 52.7477 14.2681 52.8182 14.3049C53.3928 14.6112 53.9272 14.9612 54.4426 15.3594C54.5476 15.4365 54.6527 15.5137 54.7609 15.5932C56.492 17.1 57.4624 19.4138 57.6381 21.6595C57.7774 23.9738 57.0825 26.3154 55.5435 28.0724C53.893 29.8674 51.7842 31.0633 49.3115 31.1842C48.8029 31.1999 48.2944 31.1986 47.7857 31.1972C47.5917 31.1978 47.3978 31.1985 47.2039 31.1994C46.6817 31.2012 46.1595 31.2011 45.6373 31.2005C45.1993 31.2002 44.7614 31.2008 44.3234 31.2015C43.2893 31.2029 42.2551 31.2028 41.2209 31.2016C40.1584 31.2004 39.096 31.2019 38.0335 31.2046C37.1171 31.207 36.2007 31.2076 35.2843 31.207C34.7388 31.2067 34.1933 31.2069 33.6478 31.2087C33.1345 31.2103 32.6211 31.2099 32.1078 31.208C31.9209 31.2076 31.7339 31.2079 31.547 31.209C28.8947 31.2234 26.5308 30.4739 24.5915 28.5897C22.9405 26.9177 22.0477 24.6449 22 22.309C22.0289 19.7965 22.9385 17.5445 24.7214 15.775C26.2917 14.3136 28.2786 13.369 30.4467 13.3696Z" fill="#FE4D12"/>
<path d="M39.9977 13.3849C41.6266 13.3763 43.2556 13.3677 44.9339 13.3589C45.445 13.3551 45.9561 13.3513 46.4828 13.3474C47.1151 13.3455 47.1151 13.3455 47.4127 13.3452C47.6171 13.3446 47.8215 13.3431 48.0259 13.341C49.6378 13.325 51.1609 13.4079 52.611 14.1967C52.6794 14.2324 52.7477 14.2681 52.8182 14.3049C53.3928 14.6112 53.9272 14.9612 54.4426 15.3594C54.5476 15.4365 54.6527 15.5137 54.7609 15.5932C56.492 17.1 57.4624 19.4138 57.6381 21.6595C57.7774 23.9738 57.0825 26.3154 55.5435 28.0724C53.8969 29.8632 51.7857 31.0681 49.3164 31.183C48.8158 31.197 48.3155 31.1939 47.8149 31.1906C47.6242 31.1905 47.4335 31.1906 47.2429 31.1908C46.7303 31.1908 46.2176 31.189 45.705 31.1868C45.1674 31.1849 44.6299 31.1847 44.0923 31.1843C43.0765 31.1834 42.0608 31.1808 41.0451 31.1777C39.8877 31.1742 38.7304 31.1725 37.573 31.1709C35.1944 31.1677 32.8157 31.1622 30.437 31.1552C30.437 31.1209 30.437 31.0866 30.437 31.0513C33.592 31.0513 36.7471 31.0513 39.9977 31.0513C39.9977 25.2214 39.9977 19.3915 39.9977 13.3849Z" fill="#FE7261"/>
<path d="M32.3559 48.7912C32.5773 48.7918 32.7988 48.7923 33.0202 48.7926C33.5978 48.7937 34.1754 48.7968 34.753 48.8003C35.3445 48.8035 35.936 48.8049 36.5275 48.8064C37.6843 48.8098 38.841 48.8151 39.9977 48.8217C40.0074 50.0901 40.0147 51.3585 40.0192 52.627C40.0214 53.2162 40.0243 53.8054 40.029 54.3945C40.0336 54.9646 40.0361 55.5346 40.0371 56.1047C40.0379 56.3207 40.0394 56.5367 40.0416 56.7527C40.0583 58.4073 39.9705 60.078 39.2053 61.5844C39.1526 61.6919 39.1526 61.6919 39.0989 61.8015C38.0307 63.8956 36.2176 65.4163 34.0109 66.2068C31.7515 66.9148 29.2304 66.8313 27.0921 65.7754C26.422 65.4238 25.8172 65.0035 25.241 64.5136C25.1562 64.4485 25.0714 64.3834 24.9841 64.3163C23.3194 62.9321 22.3628 60.6369 22.166 58.5294C21.9803 56.1565 22.6437 53.8043 24.1941 51.9734C24.2652 51.8935 24.3364 51.8137 24.4097 51.7314C24.4776 51.6537 24.5455 51.576 24.6155 51.496C26.7124 49.2456 29.4149 48.7682 32.3559 48.7912Z" fill="#00CE7F"/>
<path d="M54.4998 33.0209C56.2962 34.5222 57.3817 36.5416 57.7421 38.8518C57.9078 41.4622 57.3435 43.8723 55.5883 45.8878C53.8834 47.7687 51.7482 48.7793 49.2121 48.9487C46.8279 49.0114 44.5968 48.2169 42.8035 46.6393C42.7244 46.5701 42.6452 46.5008 42.5636 46.4295C41.0615 45.0263 40.0252 42.8979 39.9388 40.8438C39.9359 40.5647 39.9355 40.2869 39.9392 40.0079C39.9397 39.9352 39.9402 39.8624 39.9407 39.7874C39.9609 37.5456 40.6613 35.6424 42.18 33.9611C42.249 33.8824 42.318 33.8038 42.3891 33.7228C43.2907 32.7545 44.4782 32.0336 45.7133 31.5709C45.8148 31.5302 45.9164 31.4895 46.021 31.4475C48.8924 30.4837 52.1445 31.2042 54.4998 33.0209Z" fill="#00BCFF"/>
</svg>
