<svg width="88" height="88" viewBox="0 0 88 88" fill="none" xmlns="http://www.w3.org/2000/svg">
<path fill-rule="evenodd" clip-rule="evenodd" d="M25.3345 0C26.2719 0 27.2095 0 28.147 0C28.147 3.28126 28.147 6.56249 28.147 9.84375C30.9458 10.3157 33.7289 10.843 36.4966 11.4258C36.5845 15.9957 36.6138 20.5661 36.5845 25.1367C37.5084 25.2571 38.4166 25.4329 39.3091 25.6641C39.397 23.6728 39.4263 21.6805 39.397 19.6875C40.3344 19.6875 41.272 19.6875 42.2095 19.6875C42.2095 21.8554 42.2095 24.0235 42.2095 26.1914C43.1334 26.3118 44.0416 26.4876 44.9341 26.7188C45.022 22.5004 45.0513 18.2816 45.022 14.0625C45.9594 14.0625 46.897 14.0625 47.8345 14.0625C47.8345 18.457 47.8345 22.8516 47.8345 27.2461C49.7 27.5196 51.5457 27.8712 53.3716 28.3008C53.4301 30.4687 53.4888 32.6368 53.5474 34.8047C54.4263 33.8085 55.3052 32.8126 56.1841 31.8164C56.3013 30.2344 56.3013 28.6523 56.1841 27.0703C55.2466 25.1953 54.309 23.3204 53.3716 21.4453C53.6036 19.9027 54.3946 18.7015 55.7446 17.8418C56.7737 17.2155 57.8871 16.8931 59.0845 16.875C59.0845 15.9375 59.0845 15 59.0845 14.0625C63.0234 13.771 66.832 14.3277 70.5103 15.7324C71.435 16.1798 72.2846 16.7365 73.0591 17.4023C73.3625 21.003 72.4836 24.2844 70.4224 27.2461C70.3051 28.7696 70.3051 30.2929 70.4224 31.8164C75.308 37.2284 79.9956 42.7946 84.4849 48.5156C87.8164 54.8016 88.0801 61.2176 85.2759 67.7637C86.9463 68.9669 87.5616 70.5781 87.1216 72.5977C85.8408 79.1506 82.1203 83.6916 75.9595 86.2207C74.8151 86.6239 73.6432 86.917 72.4438 87.0996C48.3033 87.1875 24.1627 87.2169 0.0219712 87.1875C-0.0366202 70.3707 0.0219747 53.5542 0.197752 36.7383C2.00301 36.3299 3.81941 35.9784 5.64697 35.6836C5.64697 33.1641 5.64697 30.6445 5.64697 28.125C6.58447 28.125 7.52198 28.125 8.45947 28.125C8.40102 30.4717 8.45961 32.8154 8.63525 35.1562C9.50075 34.9128 10.3797 34.737 11.272 34.6289C11.272 25.3125 11.272 15.9961 11.272 6.67969C14.0708 7.15161 16.8539 7.67895 19.6216 8.26172C19.7095 6.44625 19.7387 4.62985 19.7095 2.8125C20.6469 2.8125 21.5845 2.8125 22.522 2.8125C22.522 4.80468 22.522 6.79688 22.522 8.78906C23.4459 8.90942 24.3541 9.0852 25.2466 9.31641C25.3345 6.21149 25.3638 3.10602 25.3345 0ZM14.0845 10.1953C20.6372 11.4707 27.1997 12.7012 33.772 13.8867C33.8305 17.4628 33.772 21.0371 33.5962 24.6094C31.7909 24.201 29.9746 23.8495 28.147 23.5547C28.147 37.8515 28.147 52.1485 28.147 66.4453C27.2197 66.4211 26.3116 66.3038 25.4224 66.0938C25.3345 54.7267 25.3051 43.3596 25.3345 31.9922C21.632 32.6385 17.9406 33.3417 14.2603 34.1016C14.0845 26.1338 14.0259 18.1649 14.0845 10.1953ZM62.0728 17.0508C64.9005 17.0594 67.5666 17.704 70.0708 18.9844C70.0682 21.2773 69.3944 23.3575 68.0493 25.2246C66.7615 25.3125 65.4725 25.3417 64.1821 25.3125C63.012 22.6828 62.3088 19.929 62.0728 17.0508ZM58.3813 19.8633C58.7329 19.8633 59.0845 19.8633 59.436 19.8633C59.6971 21.7303 60.2244 23.5172 61.0181 25.2246C60.1915 25.3702 59.3712 25.341 58.5571 25.1367C57.9125 23.8477 57.2681 22.5585 56.6235 21.2695C57.093 20.6285 57.6789 20.1596 58.3813 19.8633ZM30.9595 27.0703C37.5122 28.3456 44.0747 29.5761 50.647 30.7617C50.6763 33.2819 50.647 35.8015 50.5591 38.3203C49.4543 39.5636 48.3703 40.8234 47.3071 42.0996C46.5476 42.1873 45.7859 42.2167 45.022 42.1875C45.0512 43.0683 45.0218 43.9472 44.9341 44.8242C43.3694 46.4869 42.1096 48.362 41.1548 50.4492C40.5803 50.6227 39.9943 50.6813 39.397 50.625C39.397 51.5624 39.397 52.5001 39.397 53.4375C39.6383 53.4099 39.8728 53.4393 40.1001 53.5254C38.7837 58.5318 39.2523 63.3658 41.5063 68.0273C38.0203 67.7712 34.534 67.361 31.0474 66.7969C30.9595 53.5547 30.9301 40.3126 30.9595 27.0703ZM59.0845 28.125C61.897 28.125 64.7095 28.125 67.522 28.125C67.522 29.0624 67.522 30.0001 67.522 30.9375C64.7095 30.9375 61.897 30.9375 59.0845 30.9375C59.0845 30.0001 59.0845 29.0624 59.0845 28.125ZM58.3813 33.75C61.6632 33.7206 64.9443 33.75 68.2251 33.8379C72.4145 38.7304 76.6041 43.6231 80.7935 48.5156C84.5604 53.8044 85.2636 59.4879 82.9028 65.5664C82.5806 66.211 82.2582 66.8554 81.936 67.5C81.1185 67.85 80.3568 68.2894 79.6509 68.8184C78.3619 70.3419 77.0727 71.8652 75.7837 73.3887C73.952 74.8981 71.8427 75.7185 69.4556 75.8496C66.2915 75.9669 63.1274 75.9669 59.9634 75.8496C59.256 75.6123 59.0803 75.1437 59.436 74.4434C61.328 74.1085 63.203 73.6984 65.061 73.2129C67.6197 71.5171 68.2349 69.2613 66.9067 66.4453C66.3933 65.8139 65.778 65.3159 65.061 64.9512C58.1314 63.7276 51.7154 64.9872 45.813 68.7305C45.351 68.503 44.9995 68.1514 44.7583 67.6758C41.8676 62.3412 41.6333 56.892 44.0552 51.3281C44.7446 50.007 45.565 48.7765 46.5161 47.6367C50.574 43.0819 54.5291 38.453 58.3813 33.75ZM22.3462 35.5078C22.5218 45.5562 22.5803 55.6344 22.522 65.7422C15.97 65.0148 9.43676 64.1944 2.92236 63.2812C2.83447 55.2542 2.80517 47.2268 2.83447 39.1992C9.37241 38.032 15.8763 36.8016 22.3462 35.5078ZM2.83447 66.4453C14.0298 67.7788 25.2211 69.1557 36.4087 70.5762C36.5836 75.1627 36.6421 79.7623 36.5845 84.375C25.3345 84.375 14.0845 84.375 2.83447 84.375C2.83447 78.3984 2.83447 72.4219 2.83447 66.4453ZM58.9087 67.5C60.3747 67.4708 61.8395 67.5 63.3032 67.5879C64.5272 67.9799 64.8494 68.7709 64.27 69.9609C64.0566 70.2332 63.7929 70.4382 63.479 70.5762C61.9008 70.888 60.3188 71.181 58.7329 71.4551C56.1714 72.7836 55.5562 74.7466 56.8872 77.3438C57.3632 77.9773 57.9785 78.4167 58.7329 78.6621C62.9517 78.7794 67.1704 78.7794 71.3892 78.6621C73.5979 78.2606 75.5902 77.3817 77.3657 76.0254C79.0128 74.32 80.5948 72.5621 82.1118 70.752C82.8183 70.3723 83.4922 70.4014 84.1333 70.8398C83.3968 77.7252 79.676 82.0904 72.9712 83.9355C71.9838 84.1205 70.9877 84.2375 69.9829 84.2871C62.6003 84.375 55.2175 84.4044 47.8345 84.375C47.8051 79.9801 47.8345 75.5856 47.9224 71.1914C51.223 68.8511 54.8851 67.6206 58.9087 67.5ZM39.397 71.0156C41.2615 71.1571 43.1072 71.3914 44.9341 71.7188C45.022 75.9371 45.0513 80.1559 45.022 84.375C43.1469 84.375 41.272 84.375 39.397 84.375C39.397 79.9219 39.397 75.4687 39.397 71.0156Z" fill="#B31A1C"/>
<path fill-rule="evenodd" clip-rule="evenodd" d="M16.897 16.875C17.8344 16.875 18.772 16.875 19.7095 16.875C19.7095 17.8124 19.7095 18.7501 19.7095 19.6875C18.772 19.6875 17.8344 19.6875 16.897 19.6875C16.897 18.7501 16.897 17.8124 16.897 16.875Z" fill="#B31A1C"/>
<path fill-rule="evenodd" clip-rule="evenodd" d="M22.522 16.875C23.4594 16.875 24.397 16.875 25.3345 16.875C25.3345 17.8124 25.3345 18.7501 25.3345 19.6875C24.397 19.6875 23.4594 19.6875 22.522 19.6875C22.522 18.7501 22.522 17.8124 22.522 16.875Z" fill="#B31A1C"/>
<path fill-rule="evenodd" clip-rule="evenodd" d="M28.147 16.875C29.0844 16.875 30.022 16.875 30.9595 16.875C30.9595 17.8124 30.9595 18.7501 30.9595 19.6875C30.022 19.6875 29.0844 19.6875 28.147 19.6875C28.147 18.7501 28.147 17.8124 28.147 16.875Z" fill="#B31A1C"/>
<path fill-rule="evenodd" clip-rule="evenodd" d="M16.897 25.3125C17.8344 25.3125 18.772 25.3125 19.7095 25.3125C19.7095 26.2499 19.7095 27.1876 19.7095 28.125C18.772 28.125 17.8344 28.125 16.897 28.125C16.897 27.1876 16.897 26.2499 16.897 25.3125Z" fill="#B31A1C"/>
<path fill-rule="evenodd" clip-rule="evenodd" d="M22.522 25.3125C23.4594 25.3125 24.397 25.3125 25.3345 25.3125C25.3345 26.2499 25.3345 27.1876 25.3345 28.125C24.397 28.125 23.4594 28.125 22.522 28.125C22.522 27.1876 22.522 26.2499 22.522 25.3125Z" fill="#B31A1C"/>
<path fill-rule="evenodd" clip-rule="evenodd" d="M33.772 33.75C34.7094 33.75 35.647 33.75 36.5845 33.75C36.5845 34.6874 36.5845 35.6251 36.5845 36.5625C35.647 36.5625 34.7094 36.5625 33.772 36.5625C33.772 35.6251 33.772 34.6874 33.772 33.75Z" fill="#B31A1C"/>
<path fill-rule="evenodd" clip-rule="evenodd" d="M39.397 33.75C40.3344 33.75 41.272 33.75 42.2095 33.75C42.2095 34.6874 42.2095 35.6251 42.2095 36.5625C41.272 36.5625 40.3344 36.5625 39.397 36.5625C39.397 35.6251 39.397 34.6874 39.397 33.75Z" fill="#B31A1C"/>
<path fill-rule="evenodd" clip-rule="evenodd" d="M45.022 33.75C45.9594 33.75 46.897 33.75 47.8345 33.75C47.8345 34.6874 47.8345 35.6251 47.8345 36.5625C46.897 36.5625 45.9594 36.5625 45.022 36.5625C45.022 35.6251 45.022 34.6874 45.022 33.75Z" fill="#B31A1C"/>
<path fill-rule="evenodd" clip-rule="evenodd" d="M5.64697 42.1875C6.58447 42.1875 7.52198 42.1875 8.45947 42.1875C8.45947 43.1249 8.45947 44.0626 8.45947 45C7.52198 45 6.58447 45 5.64697 45C5.64697 44.0626 5.64697 43.1249 5.64697 42.1875Z" fill="#B31A1C"/>
<path fill-rule="evenodd" clip-rule="evenodd" d="M11.272 42.1875C12.2095 42.1875 13.147 42.1875 14.0845 42.1875C14.0845 43.1249 14.0845 44.0626 14.0845 45C13.147 45 12.2095 45 11.272 45C11.272 44.0626 11.272 43.1249 11.272 42.1875Z" fill="#B31A1C"/>
<path fill-rule="evenodd" clip-rule="evenodd" d="M16.897 42.1875C17.8344 42.1875 18.772 42.1875 19.7095 42.1875C19.7095 43.1249 19.7095 44.0626 19.7095 45C18.772 45 17.8344 45 16.897 45C16.897 44.0626 16.897 43.1249 16.897 42.1875Z" fill="#B31A1C"/>
<path fill-rule="evenodd" clip-rule="evenodd" d="M33.772 42.1875C34.7094 42.1875 35.647 42.1875 36.5845 42.1875C36.5845 43.1249 36.5845 44.0626 36.5845 45C35.647 45 34.7094 45 33.772 45C33.772 44.0626 33.772 43.1249 33.772 42.1875Z" fill="#B31A1C"/>
<path fill-rule="evenodd" clip-rule="evenodd" d="M39.397 42.1875C40.3344 42.1875 41.272 42.1875 42.2095 42.1875C42.2095 43.1249 42.2095 44.0626 42.2095 45C41.272 45 40.3344 45 39.397 45C39.397 44.0626 39.397 43.1249 39.397 42.1875Z" fill="#B31A1C"/>
<path fill-rule="evenodd" clip-rule="evenodd" d="M61.8969 42.1875C62.8344 42.1875 63.772 42.1875 64.7094 42.1875C64.6516 43.1905 64.7103 44.1865 64.8852 45.1758C67.1218 46.3096 68.0007 48.1261 67.5219 50.625C66.5845 50.625 65.6469 50.625 64.7094 50.625C65.0024 48.4571 64.0648 47.5195 61.8969 47.8125C61.8092 48.6675 61.985 49.4585 62.4243 50.1855C63.2798 50.5005 64.1587 50.7349 65.061 50.8887C66.2297 51.4712 67.0208 52.3795 67.434 53.6133C67.5219 55.4288 67.5511 57.2451 67.5219 59.0625C66.5845 59.0625 65.6469 59.0625 64.7094 59.0625C64.7094 59.9999 64.7094 60.9376 64.7094 61.875C63.772 61.875 62.8344 61.875 61.8969 61.875C61.9547 60.872 61.896 59.876 61.7211 58.8867C59.4845 57.7529 58.6056 55.9364 59.0844 53.4375C60.0219 53.4375 60.9595 53.4375 61.8969 53.4375C61.6039 55.6054 62.5415 56.543 64.7094 56.25C64.7971 55.395 64.6213 54.604 64.1821 53.877C63.3265 53.562 62.4476 53.3276 61.5454 53.1738C60.3766 52.5913 59.5856 51.683 59.1723 50.4492C59.0844 48.6337 59.0552 46.8174 59.0844 45C60.0219 45 60.9595 45 61.8969 45C61.8969 44.0626 61.8969 43.1249 61.8969 42.1875Z" fill="#B31A1C"/>
<path fill-rule="evenodd" clip-rule="evenodd" d="M5.64697 50.625C6.58447 50.625 7.52198 50.625 8.45947 50.625C8.45947 51.5624 8.45947 52.5001 8.45947 53.4375C7.52198 53.4375 6.58447 53.4375 5.64697 53.4375C5.64697 52.5001 5.64697 51.5624 5.64697 50.625Z" fill="#B31A1C"/>
<path fill-rule="evenodd" clip-rule="evenodd" d="M11.272 50.625C12.2095 50.625 13.147 50.625 14.0845 50.625C14.0845 51.5624 14.0845 52.5001 14.0845 53.4375C13.147 53.4375 12.2095 53.4375 11.272 53.4375C11.272 52.5001 11.272 51.5624 11.272 50.625Z" fill="#B31A1C"/>
<path fill-rule="evenodd" clip-rule="evenodd" d="M16.897 50.625C17.8344 50.625 18.772 50.625 19.7095 50.625C19.7095 51.5624 19.7095 52.5001 19.7095 53.4375C18.772 53.4375 17.8344 53.4375 16.897 53.4375C16.897 52.5001 16.897 51.5624 16.897 50.625Z" fill="#B31A1C"/>
<path fill-rule="evenodd" clip-rule="evenodd" d="M33.772 50.625C34.7094 50.625 35.647 50.625 36.5845 50.625C36.5845 51.5624 36.5845 52.5001 36.5845 53.4375C35.647 53.4375 34.7094 53.4375 33.772 53.4375C33.772 52.5001 33.772 51.5624 33.772 50.625Z" fill="#B31A1C"/>
<path fill-rule="evenodd" clip-rule="evenodd" d="M5.64697 59.0625C6.58447 59.0625 7.52198 59.0625 8.45947 59.0625C8.45947 59.9999 8.45947 60.9376 8.45947 61.875C7.52198 61.875 6.58447 61.875 5.64697 61.875C5.64697 60.9376 5.64697 59.9999 5.64697 59.0625Z" fill="#B31A1C"/>
<path fill-rule="evenodd" clip-rule="evenodd" d="M11.272 59.0625C12.2095 59.0625 13.147 59.0625 14.0845 59.0625C14.0845 59.9999 14.0845 60.9376 14.0845 61.875C13.147 61.875 12.2095 61.875 11.272 61.875C11.272 60.9376 11.272 59.9999 11.272 59.0625Z" fill="#B31A1C"/>
<path fill-rule="evenodd" clip-rule="evenodd" d="M16.897 59.0625C17.8344 59.0625 18.772 59.0625 19.7095 59.0625C19.7095 59.9999 19.7095 60.9376 19.7095 61.875C18.772 61.875 17.8344 61.875 16.897 61.875C16.897 60.9376 16.897 59.9999 16.897 59.0625Z" fill="#B31A1C"/>
<path fill-rule="evenodd" clip-rule="evenodd" d="M33.772 59.0625C34.7094 59.0625 35.647 59.0625 36.5845 59.0625C36.5845 59.9999 36.5845 60.9376 36.5845 61.875C35.647 61.875 34.7094 61.875 33.772 61.875C33.772 60.9376 33.772 59.9999 33.772 59.0625Z" fill="#B31A1C"/>
</svg>
