<svg width="80" height="80" viewBox="0 0 80 80" fill="none" xmlns="http://www.w3.org/2000/svg">
<path d="M20.6965 0.087555C20.8232 0.0867378 20.9499 0.0859207 21.0804 0.0850787C21.507 0.0825789 21.9335 0.0814293 22.3601 0.080288C22.6652 0.078815 22.9702 0.0772731 23.2753 0.0756672C24.2789 0.0707746 25.2824 0.0679231 26.2861 0.0652647C26.6313 0.0642654 26.9766 0.0632626 27.3219 0.0622565C28.758 0.0582228 30.1942 0.0547289 31.6303 0.0526304C33.6895 0.0496019 35.7487 0.0434151 37.8078 0.0327896C39.2551 0.0255758 40.7024 0.0219314 42.1497 0.020945C43.0144 0.0202634 43.879 0.018018 44.7436 0.0119753C45.5573 0.00637052 46.3708 0.00518747 47.1845 0.00738502C47.4829 0.00742622 47.7814 0.00587439 48.0798 0.00260132C48.4878 -0.00162982 48.8954 -8.39775e-05 49.3034 0.00287802C49.5315 0.00226078 49.7597 0.00164353 49.9947 0.00100758C50.8322 0.15594 51.1405 0.446834 51.7365 1.04861C51.871 1.55008 51.871 1.55008 51.8635 2.09592C51.8634 2.30118 51.8633 2.50644 51.8632 2.71792C51.8575 2.93745 51.8517 3.15697 51.8457 3.38315C51.8442 3.60947 51.8426 3.83579 51.841 4.06897C51.8347 4.7911 51.8207 5.51284 51.8064 6.23485C51.8008 6.72469 51.7957 7.21455 51.7911 7.7044C51.7788 8.90458 51.7601 10.1045 51.7365 11.3045C51.8446 11.3037 51.9528 11.3029 52.0642 11.302C53.1894 11.2938 54.3147 11.2882 55.44 11.2841C55.86 11.2822 56.2799 11.2796 56.6999 11.2764C57.3035 11.2719 57.9071 11.2698 58.5106 11.2681C58.7924 11.2652 58.7924 11.2652 59.0799 11.2623C59.2553 11.2623 59.4307 11.2622 59.6114 11.2622C59.7655 11.2614 59.9195 11.2605 60.0782 11.2597C60.5605 11.3109 60.8447 11.4057 61.2465 11.6775C61.5625 12.2006 61.6665 12.593 61.6693 13.2005C61.6717 13.4307 61.6717 13.4307 61.6742 13.6655C61.6739 13.9156 61.6739 13.9156 61.6736 14.1708C61.6749 14.3476 61.6762 14.5245 61.6774 14.7067C61.681 15.2914 61.6817 15.8761 61.6821 16.4609C61.6833 16.8673 61.6846 17.2737 61.6859 17.6801C61.6881 18.5321 61.6888 19.384 61.6886 20.236C61.6885 21.3279 61.6936 22.4198 61.7001 23.5117C61.7042 24.351 61.705 25.1904 61.7048 26.0297C61.7052 26.4323 61.7069 26.8349 61.7097 27.2375C61.7134 27.8004 61.7123 28.3631 61.7101 28.926C61.7122 29.0924 61.7143 29.2587 61.7164 29.4301C61.7086 30.2008 61.6832 30.5962 61.2642 31.2628C60.573 31.9125 59.9824 31.8389 59.0788 31.8281C58.9471 31.8272 58.8154 31.8264 58.6796 31.8255C58.3543 31.8233 58.0289 31.82 57.7036 31.8164C57.7085 31.9584 57.7133 32.1004 57.7184 32.2467C57.7378 32.8918 57.7499 33.5369 57.7618 34.1823C57.7736 34.5174 57.7736 34.5174 57.7855 34.8593C57.8086 36.5135 57.8086 36.5135 57.2782 37.2772C56.7318 37.6219 56.3191 37.7557 55.6681 37.7084C54.492 37.3714 53.6705 36.1616 52.9603 35.2367C51.5453 33.4726 50.1893 31.9249 47.8372 31.6516C46.1245 31.5071 44.4028 31.586 42.6892 31.6763C41.5555 31.7313 40.4205 31.7515 39.2857 31.7752C38.6842 31.7878 38.0843 31.8101 37.4833 31.8405C37.2108 31.8508 36.9383 31.8611 36.6657 31.8713C36.3106 31.8888 36.3106 31.8888 35.9483 31.9067C35.147 31.7902 34.8899 31.5094 34.3946 30.884C34.1822 30.2468 34.187 29.7587 34.19 29.0871C34.1909 28.7238 34.1909 28.7238 34.1918 28.3532C34.1933 28.0974 34.1949 27.8416 34.1965 27.5858C34.1975 27.3278 34.1983 27.0699 34.1991 26.8119C34.2013 26.1802 34.2043 25.5486 34.2082 24.917C32.8683 25.1354 32.2259 25.8638 31.3186 26.829C31.0153 27.1414 30.7119 27.4538 30.4085 27.7661C29.9352 28.259 29.4631 28.753 28.992 29.248C28.535 29.7264 28.074 30.2008 27.6125 30.675C27.4734 30.8238 27.3342 30.9726 27.1909 31.1258C26.084 32.2584 26.084 32.2584 25.1905 32.3911C24.4496 32.3744 24.1395 32.2942 23.5793 31.8164C23.1154 31.1385 23.1583 30.4424 23.1699 29.6516C23.1705 29.516 23.171 29.3805 23.1715 29.2409C23.1736 28.8096 23.1783 28.3784 23.1831 27.9471C23.1849 27.6541 23.1866 27.361 23.1882 27.0679C23.1923 26.3509 23.1987 25.6339 23.2064 24.917C23.0343 24.9213 23.0343 24.9213 22.8587 24.9258C22.3375 24.9375 21.8163 24.9447 21.295 24.9519C21.1145 24.9566 20.934 24.9613 20.748 24.9661C20.4866 24.9688 20.4866 24.9688 20.2199 24.9716C20.0598 24.9745 19.8996 24.9774 19.7346 24.9805C19.1888 24.9024 18.9411 24.7356 18.5446 24.3575C18.3618 23.8092 18.3334 23.4521 18.3307 22.8805C18.3293 22.6913 18.328 22.502 18.3266 22.307C18.3261 22.0995 18.3256 21.892 18.3251 21.6782C18.3239 21.4595 18.3226 21.2409 18.3214 21.0156C18.3177 20.2906 18.3155 19.5656 18.3137 18.8406C18.3129 18.5909 18.3121 18.3411 18.3114 18.0914C18.3078 16.9182 18.3052 15.745 18.3036 14.5719C18.3018 13.2181 18.2969 11.8644 18.2893 10.5106C18.2837 9.46384 18.281 8.41706 18.2803 7.37026C18.2799 6.74519 18.2782 6.12019 18.2735 5.49514C18.269 4.79781 18.2692 4.10062 18.2705 3.40327C18.2681 3.19652 18.2657 2.98977 18.2632 2.77675C18.2728 1.3769 18.2728 1.3769 18.7132 0.645046C19.3843 0.0571926 19.8145 0.0915772 20.6965 0.087555ZM21.7146 3.47274C21.7146 9.44169 21.7146 15.4106 21.7146 21.5605C22.8838 21.622 24.0529 21.6835 25.2575 21.7469C26.1899 22.3064 26.1899 22.3064 26.3764 22.4928C26.4057 22.7973 26.4232 23.1028 26.4354 23.4084C26.4432 23.5929 26.451 23.7774 26.459 23.9675C26.4664 24.1616 26.4737 24.3557 26.4813 24.5557C26.4893 24.7505 26.4974 24.9453 26.5057 25.146C26.5255 25.6291 26.5445 26.1121 26.5628 26.5952C27.8505 25.532 29.0011 24.3489 30.1663 23.1546C30.3184 23.0004 30.4706 22.8462 30.6273 22.6873C30.7645 22.547 30.9017 22.4066 31.0431 22.2621C31.7747 21.6087 32.6138 21.7152 33.5404 21.7087C33.7844 21.7058 33.7844 21.7058 34.0335 21.703C34.5605 21.6971 35.0876 21.6925 35.6147 21.6879C35.94 21.6845 36.2653 21.681 36.5905 21.6774C37.7971 21.6646 39.0037 21.6534 40.2102 21.642C42.9063 21.6151 45.6023 21.5882 48.38 21.5605C48.38 15.5915 48.38 9.62257 48.38 3.47274C39.5804 3.47274 30.7808 3.47274 21.7146 3.47274ZM51.7365 14.661C51.7317 15.3254 51.7269 15.9898 51.7219 16.6743C51.7148 17.3174 51.7063 17.9605 51.6978 18.6035C51.6925 19.0506 51.6886 19.4977 51.686 19.9449C51.682 20.5874 51.6733 21.2297 51.6636 21.8722C51.6634 22.0723 51.6632 22.2724 51.663 22.4786C51.6593 22.6652 51.6556 22.8518 51.6518 23.044C51.6493 23.29 51.6493 23.29 51.6468 23.5409C51.513 24.1542 51.3131 24.3662 50.8041 24.7305C50.2118 24.8273 50.2118 24.8273 49.5041 24.8323C49.3749 24.8342 49.2456 24.8361 49.1125 24.8381C48.6867 24.8436 48.261 24.8439 47.8352 24.8441C47.5394 24.8469 47.2436 24.85 46.9479 24.8535C46.1704 24.8616 45.3931 24.8653 44.6156 24.8681C43.8219 24.8718 43.0282 24.8796 42.2345 24.8871C40.6779 24.9011 39.1213 24.9101 37.5647 24.917C37.5647 26.0861 37.5647 27.2553 37.5647 28.4599C37.9579 28.4587 38.3512 28.4575 38.7563 28.4563C40.0596 28.4533 41.3628 28.4575 42.666 28.4652C43.4557 28.4697 44.2453 28.4717 45.0351 28.4682C45.7981 28.465 46.5609 28.4681 47.3238 28.4755C47.6141 28.4772 47.9043 28.4767 48.1945 28.4738C50.7512 28.451 50.7512 28.451 51.7059 29.2761C51.9087 29.4958 52.1061 29.7207 52.2959 29.9517C52.4767 30.1317 52.6589 30.3103 52.8429 30.4871C52.997 30.645 53.1511 30.8029 53.3098 30.9656C53.59 31.2526 53.8726 31.5373 54.1606 31.8164C54.2222 31.8164 54.2837 31.8164 54.3471 31.8164C54.3519 31.6501 54.3567 31.4837 54.3617 31.3123C54.3775 30.985 54.3775 30.9849 54.3937 30.6509C54.4024 30.4346 54.411 30.2183 54.4199 29.9954C54.5336 29.3923 54.5336 29.3923 55.2794 28.6464C56.7563 28.5541 56.7563 28.5541 58.263 28.4599C58.263 23.9063 58.263 19.3526 58.263 14.661C56.1092 14.661 53.9555 14.661 51.7365 14.661Z" fill="#B31A1C"/>
<path d="M59.0731 60.6713C59.3379 60.6711 59.6027 60.6707 59.8674 60.6702C60.4176 60.6697 60.9678 60.6705 61.5179 60.6722C62.2139 60.6743 62.9098 60.6731 63.6057 60.6709C64.1511 60.6695 64.6965 60.67 65.242 60.6709C65.6203 60.6713 65.9987 60.6702 66.3771 60.669C70.288 60.6884 73.7105 61.3372 76.6662 64.1006C78.9616 66.5276 79.916 69.4417 79.9324 72.7257C79.9335 72.8916 79.9345 73.0575 79.9356 73.2284C79.9374 73.5777 79.9386 73.9271 79.9393 74.2764C79.9411 74.81 79.9469 75.3435 79.9528 75.8771C79.954 76.2174 79.955 76.5577 79.9557 76.898C79.958 77.0569 79.9603 77.2158 79.9627 77.3795C79.9594 78.2524 79.9228 78.8588 79.3351 79.5545C78.6672 79.9998 78.0625 79.9747 77.274 79.976C77.0753 79.9771 77.0753 79.9771 76.8726 79.9782C76.4287 79.9801 75.9848 79.9794 75.5409 79.9786C75.2226 79.9794 74.9044 79.9804 74.5861 79.9815C73.7216 79.984 72.857 79.9841 71.9925 79.9836C71.271 79.9834 70.5494 79.9843 69.8279 79.9852C68.1258 79.9873 66.4238 79.9874 64.7217 79.9863C62.9653 79.9851 61.2089 79.9874 59.4525 79.9914C57.9449 79.9947 56.4373 79.9958 54.9296 79.9952C54.029 79.9949 53.1284 79.9954 52.2278 79.9979C51.381 80.0003 50.5342 79.9999 49.6873 79.9975C49.3765 79.9971 49.0656 79.9976 48.7548 79.9991C48.3305 80.001 47.9064 79.9995 47.4821 79.9972C47.2446 79.9972 47.0072 79.9972 46.7626 79.9973C46.0952 79.922 45.746 79.7646 45.2108 79.368C44.6822 78.6924 44.7842 77.8563 44.7884 77.0371C44.788 76.882 44.7876 76.727 44.7873 76.5672C44.787 76.2387 44.7877 75.9102 44.7893 75.5816C44.7912 75.0861 44.7893 74.5906 44.7869 74.0951C44.7834 70.2832 45.4374 66.9129 48.1478 64.0307C51.2429 61.1257 55.0143 60.6588 59.0731 60.6713ZM50.4262 66.6508C47.8508 69.5276 48.1944 72.8127 48.1944 76.5709C57.5478 76.5709 66.9012 76.5709 76.538 76.5709C76.6708 70.8917 76.6708 70.8917 74.1022 66.3616C71.7273 64.1567 68.6478 64.0182 65.5712 64.0278C65.3129 64.0275 65.0546 64.0272 64.7963 64.0267C64.2591 64.0262 63.7219 64.0269 63.1847 64.0287C62.5034 64.0308 61.8221 64.0296 61.1407 64.0274C60.6086 64.026 60.0764 64.0265 59.5443 64.0274C59.1732 64.0278 58.8022 64.0267 58.4311 64.0255C55.3503 64.0412 52.731 64.4587 50.4262 66.6508Z" fill="#B31A1C"/>
<path d="M14.0894 60.6888C14.3601 60.6882 14.6309 60.6876 14.9016 60.6869C15.4669 60.6858 16.0322 60.6855 16.5975 60.6856C17.3137 60.6856 18.03 60.6831 18.7462 60.6799C19.3051 60.6778 19.8639 60.6774 20.4228 60.6775C20.6864 60.6773 20.9501 60.6765 21.2137 60.675C25.1635 60.6551 28.8333 61.2163 31.8311 64.03C34.675 67.0542 35.2105 70.6269 35.1998 74.6047C35.1992 75.0707 35.2037 75.5364 35.2083 76.0024C35.2088 76.3022 35.2089 76.6019 35.2087 76.9016C35.2104 77.0392 35.2121 77.1767 35.2139 77.3184C35.2061 78.1997 35.0696 78.816 34.5816 79.5537C33.9225 80.0072 33.3037 79.974 32.5205 79.9753C32.3218 79.9764 32.3218 79.9764 32.119 79.9775C31.6751 79.9794 31.2313 79.9787 30.7873 79.9779C30.4691 79.9787 30.1508 79.9797 29.8326 79.9808C28.968 79.9833 28.1035 79.9834 27.2389 79.9829C26.5174 79.9827 25.7959 79.9836 25.0744 79.9845C23.3723 79.9866 21.6702 79.9867 19.9682 79.9856C18.2118 79.9844 16.4554 79.9867 14.699 79.9907C13.1913 79.994 11.6837 79.9951 10.1761 79.9945C9.27548 79.9942 8.37489 79.9947 7.47429 79.9972C6.62743 79.9996 5.78062 79.9992 4.93376 79.9968C4.62293 79.9964 4.3121 79.9969 4.00127 79.9984C3.57697 80.0004 3.15282 79.9988 2.72852 79.9965C2.49108 79.9965 2.25364 79.9965 2.00901 79.9966C1.34176 79.9213 0.992534 79.7637 0.457286 79.3673C-0.0816626 78.6839 0.02394 77.8122 0.0217004 76.981C0.0204591 76.8195 0.0192178 76.6579 0.0179389 76.4914C0.0160511 76.1485 0.015176 75.8055 0.0152359 75.4626C0.0144313 74.9481 0.00768928 74.434 0.000576736 73.9195C-0.0224998 70.3067 0.640244 67.0006 3.19649 64.2935C6.31237 61.1419 9.86976 60.691 14.0894 60.6888ZM5.76007 66.4891C3.04929 69.5011 3.44083 72.4639 3.44083 76.5702C12.7942 76.5702 22.1476 76.5702 31.7845 76.5702C31.9092 70.8871 31.9092 70.8871 29.211 66.3085C26.7902 64.1413 23.9841 64.0479 20.8905 64.0453C20.6311 64.0447 20.3718 64.0441 20.1124 64.0434C19.5707 64.0423 19.0291 64.042 18.4875 64.0421C17.8002 64.0421 17.113 64.0396 16.4258 64.0363C15.8905 64.0342 15.3551 64.0339 14.8198 64.034C14.4454 64.0337 14.0711 64.0317 13.6967 64.0296C10.7405 64.0369 7.99345 64.3607 5.76007 66.4891Z" fill="#B31A1C"/>
<path d="M24.2493 39.4627C26.1835 41.094 27.3224 43.1542 27.868 45.6162C28.1632 49.0919 27.4976 51.904 25.2224 54.6018C23.5191 56.4222 21.1666 57.6767 18.6551 57.7813C15.3864 57.8529 12.6265 57.2004 10.1765 54.8815C9.39371 54.0464 8.8064 53.1611 8.28847 52.1427C8.21564 52.0016 8.14281 51.8605 8.06777 51.7151C6.97586 49.3273 6.94774 46.5652 7.73052 44.0895C8.23198 42.7877 8.90951 41.6685 9.78025 40.5815C9.87327 40.4649 9.96629 40.3483 10.0621 40.2282C13.7195 36.1471 20.1344 36.2898 24.2493 39.4627ZM12.0179 43.1921C10.7741 45.0641 10.509 46.764 10.7126 48.9727C11.1255 50.7802 12.345 52.4239 13.8826 53.448C15.7227 54.516 17.6736 54.7304 19.7259 54.2281C21.8469 53.4457 23.1913 52.0645 24.1276 50.0354C24.8154 48.2816 24.7245 46.3131 24.0009 44.5841C23.0587 42.7435 21.6734 41.4965 19.7455 40.7534C16.7805 39.9591 14.0202 40.8768 12.0179 43.1921Z" fill="#B31A1C"/>
<path d="M68.8922 39.2762C71.1234 41.0484 72.4404 43.7001 72.7731 46.5019C72.9529 49.4853 72.0527 52.0644 70.1975 54.3804C70.1044 54.4969 70.0114 54.6135 69.9156 54.7336C68.2795 56.5593 65.7709 57.6598 63.3592 57.7944C60.1728 57.9053 57.704 57.1653 55.2448 55.0913C53.5802 53.5312 52.2735 51.2739 52.0767 48.9571C51.9768 45.329 52.6511 42.609 55.1894 39.896C59.014 36.3181 64.7221 36.3361 68.8922 39.2762ZM56.7715 43.1921C55.5634 45.1507 55.0851 47.0677 55.5937 49.3609C56.2279 51.2425 57.3935 52.7267 59.1119 53.7241C60.805 54.542 62.5814 54.6817 64.4096 54.25C66.4607 53.5021 67.9966 52.0192 68.9366 50.0718C69.5384 48.5751 69.529 46.4736 68.9621 44.9636C68.0061 42.9644 66.5711 41.5521 64.4992 40.7534C61.5578 39.9654 58.7385 40.8582 56.7715 43.1921Z" fill="#B31A1C"/>
<path d="M28.4952 14.2103C28.652 14.2087 28.8088 14.2071 28.9704 14.2055C29.4886 14.2011 30.0067 14.2009 30.5249 14.2012C30.8853 14.1998 31.2458 14.1984 31.6062 14.1968C32.3616 14.1943 33.1169 14.1941 33.8723 14.1951C34.8401 14.1962 35.8077 14.1905 36.7755 14.183C37.5198 14.1782 38.2641 14.1776 39.0085 14.1783C39.3653 14.178 39.7221 14.1762 40.0788 14.1729C40.578 14.1688 41.0767 14.1706 41.5758 14.1738C41.723 14.1714 41.8702 14.1689 42.0218 14.1663C42.7688 14.1778 43.1201 14.2584 43.7176 14.7211C44.0914 15.2209 44.0914 15.2209 44.1963 15.8736C44.0751 16.6277 43.8975 16.9373 43.3455 17.4586C42.6408 17.724 41.889 17.674 41.1462 17.6751C41.0006 17.676 40.855 17.6769 40.7049 17.6779C40.224 17.6806 39.743 17.6819 39.2621 17.6829C38.9272 17.684 38.5923 17.6851 38.2574 17.6861C37.5555 17.6881 36.8536 17.6892 36.1516 17.6898C35.2533 17.6909 34.355 17.6953 33.4567 17.7007C32.765 17.7041 32.0733 17.7051 31.3816 17.7054C31.0505 17.7059 30.7193 17.7074 30.3882 17.7099C29.9245 17.7131 29.4609 17.7127 28.9972 17.7115C28.7931 17.7141 28.7931 17.7141 28.5849 17.7167C27.7122 17.7096 27.1202 17.5408 26.3766 17.0856C25.9651 16.6025 25.9835 16.1914 26.027 15.5822C26.0733 15.1 26.1365 14.9042 26.4736 14.551C27.1317 14.1775 27.7583 14.2075 28.4952 14.2103Z" fill="#B31A1C"/>
<path d="M28.091 7.53879C28.2933 7.5358 28.4956 7.5328 28.704 7.52972C29.6296 7.52144 30.5551 7.51377 31.4807 7.50947C31.9692 7.50638 32.4578 7.50129 32.9463 7.49418C33.6497 7.48398 34.353 7.47989 35.0565 7.47715C35.384 7.47081 35.384 7.47081 35.7182 7.46434C37.4056 7.46874 37.4056 7.46874 37.9814 8.023C38.2965 8.48677 38.4379 8.70155 38.4268 9.253C38.4304 9.43184 38.4304 9.43184 38.4341 9.61429C38.2356 10.2308 37.9287 10.6089 37.3779 10.9312C36.6116 11.0717 35.8534 11.0574 35.0762 11.0485C34.74 11.0492 34.74 11.0492 34.397 11.0499C33.9237 11.0497 33.4503 11.0472 32.977 11.0426C32.2525 11.0362 31.5285 11.0387 30.8041 11.0423C30.344 11.041 29.8839 11.0392 29.4237 11.0369C29.2071 11.0378 28.9906 11.0387 28.7674 11.0397C27.2673 11.0178 27.2673 11.0178 26.5236 10.575C26.1219 10.1064 26.0134 9.90418 25.9449 9.28796C26.0165 8.55732 26.2442 8.28094 26.7491 7.76123C27.2223 7.52462 27.5612 7.54591 28.091 7.53879Z" fill="#B31A1C"/>
</svg>
