<svg width="61" height="80" viewBox="0 0 61 80" fill="none" xmlns="http://www.w3.org/2000/svg">
<path d="M32.1937 0.413956C39.7223 4.78153 43.7177 15.0484 45.8769 22.9503C46.8509 26.6538 47.521 30.3912 47.9443 34.1945C47.9573 34.3107 47.9702 34.427 47.9836 34.5467C48.3013 37.4342 48.4101 40.3007 48.4119 43.2046C48.412 43.382 48.4122 43.5593 48.4123 43.7421C48.4097 48.2473 48.0918 52.6825 47.4171 57.1362C47.2844 58.0194 47.1956 58.9027 47.1261 59.7929C47.279 59.8779 47.4319 59.9629 47.5894 60.0505C48.6447 60.6392 49.6956 61.2332 50.7301 61.858C50.8224 61.9136 50.9147 61.9693 51.0097 62.0267C51.1065 62.0851 51.2033 62.1436 51.303 62.2038C52.107 62.689 52.9133 63.1704 53.7205 63.6502C53.8619 63.7349 54.0032 63.8195 54.1489 63.9067C55.0617 64.4484 55.9887 64.9424 56.9447 65.4036C57.2873 64.8896 57.2957 64.7352 57.2967 64.1381C57.2982 63.8936 57.2982 63.8936 57.2997 63.6441C57.299 63.4673 57.2984 63.2905 57.2978 63.1084C57.2981 62.9251 57.2984 62.7418 57.2987 62.5529C57.2989 62.1633 57.2983 61.7736 57.297 61.384C57.2954 60.7964 57.297 60.2089 57.299 59.6213C57.3019 55.1741 56.9294 51.3021 53.6718 47.9483C52.949 47.3339 52.1922 46.7838 51.3821 46.29C50.7751 45.9197 50.4555 45.7216 50.1262 45.0748C50.0779 44.386 50.2113 44.0241 50.5548 43.4286C50.914 43.031 51.1271 42.9705 51.6555 42.8734C53.9893 43.2068 56.1281 45.503 57.5632 47.2257C59.7664 50.2049 60.5799 53.584 60.5761 57.2336C60.5767 57.4801 60.5774 57.7266 60.5781 57.9731C60.5793 58.4866 60.5793 59 60.5784 59.5135C60.5775 60.1694 60.5802 60.8252 60.5838 61.4811C60.5861 61.9889 60.5862 62.4967 60.5857 63.0046C60.5858 63.2464 60.5866 63.4882 60.5882 63.73C60.5901 64.0682 60.5891 64.4062 60.5872 64.7444C60.5873 64.9361 60.5874 65.1279 60.5875 65.3254C60.4687 66.4373 59.9399 67.3011 59.1266 68.053C58.3066 68.7029 57.3646 68.8353 56.3377 68.8067C54.968 68.606 53.7355 67.6735 52.5809 66.9621C52.3817 66.8433 52.1822 66.7249 51.9824 66.6071C51.613 66.3886 51.2452 66.1675 50.8787 65.9442C50.0675 65.451 49.249 64.9702 48.4313 64.4879C48.1403 64.3163 47.8493 64.1446 47.5583 63.9729C47.4337 63.8994 47.309 63.8259 47.1805 63.7502C46.7978 63.5235 46.4163 63.295 46.0351 63.0658C46.0287 63.1687 46.0223 63.2715 46.0157 63.3775C45.6616 64.5913 44.5972 65.6066 43.516 66.2175C42.0983 66.8971 40.6297 66.8294 39.0865 66.8288C38.8742 66.8293 38.6618 66.8298 38.4494 66.8304C37.8756 66.8318 37.3018 66.8322 36.7279 66.8323C36.3686 66.8324 36.0092 66.8327 35.6499 66.8331C34.3938 66.8346 33.1378 66.8352 31.8818 66.8351C30.7148 66.835 29.5478 66.8366 28.3809 66.8391C27.3757 66.8411 26.3705 66.842 25.3654 66.8419C24.7665 66.8418 24.1676 66.8423 23.5687 66.8439C23.0049 66.8454 22.4412 66.8454 21.8774 66.8443C21.5746 66.8441 21.2717 66.8454 20.9688 66.8467C18.9319 66.8395 17.2027 66.634 15.6735 65.1893C15.1038 64.5824 14.5534 63.9279 14.5534 63.0658C13.8876 63.4552 13.2221 63.8449 12.5565 64.2347C12.456 64.2935 12.3555 64.3524 12.2519 64.4131C11.1092 65.0822 9.96765 65.7531 8.82952 66.43C8.68643 66.515 8.68643 66.515 8.54044 66.6018C8.08511 66.8725 7.63002 67.1436 7.17525 67.4153C6.92944 67.5616 6.92944 67.5616 6.67866 67.7109C6.53604 67.796 6.39341 67.8812 6.24646 67.9689C4.95525 68.7053 3.80854 68.9562 2.32825 68.5796C1.38015 68.1622 0.585922 67.3463 0.203732 66.386C0.0463304 65.8249 0.0186769 65.3542 0.016479 64.772C0.0156824 64.6661 0.0148859 64.5603 0.0140652 64.4513C0.0119092 64.1033 0.0120482 63.7553 0.0124077 63.4073C0.0118008 63.1627 0.0111251 62.918 0.0103839 62.6734C0.00922261 62.1605 0.00926474 61.6476 0.0100867 61.1348C0.0109837 60.484 0.00836464 59.8334 0.0047336 59.1826C0.00241253 58.6768 0.00230561 58.1709 0.00278832 57.6651C0.00270936 57.4256 0.00191083 57.1861 0.000322246 56.9466C-0.0256228 52.4838 1.51521 48.7791 4.58869 45.5326C6.0973 44.0573 7.92648 43.0583 9.75914 42.0412C10.2932 41.7442 10.8244 41.4439 11.3487 41.1299C11.4835 41.0503 11.6183 40.9707 11.7572 40.8888C12.2224 40.4806 12.2019 40.0163 12.2496 39.4179C12.2568 39.2628 12.2641 39.1078 12.2716 38.948C12.8894 27.3175 15.6657 15.1434 22.8134 5.71287C22.9277 5.56059 23.0421 5.4083 23.1598 5.25141C25.1621 2.69893 28.5414 -1.2997 32.1937 0.413956ZM27.1008 5.62246C25.5244 7.27237 24.1422 9.28941 23.1251 11.3235C27.8568 11.3235 32.5884 11.3235 37.4634 11.3235C35.8774 8.41584 33.5646 4.71162 30.4501 3.21926C29.253 3.21926 27.9014 4.82602 27.1008 5.62246ZM21.4108 14.4405C20.4549 16.485 20.4549 16.485 19.6185 18.5705C19.5596 18.7298 19.5006 18.8891 19.4399 19.0532C17.7002 23.8223 16.6164 28.7411 15.956 33.7659C15.9303 33.954 15.9045 34.142 15.878 34.3357C15.0429 40.6856 15.1823 47.3647 15.956 53.7148C15.9827 53.9448 16.0093 54.1748 16.0359 54.4048C16.0632 54.6351 16.0905 54.8653 16.118 55.0955C16.1305 55.2043 16.1431 55.3131 16.1561 55.4252C16.1818 55.9394 16.1818 55.9394 16.4236 56.3642C16.7803 56.3797 17.1374 56.3839 17.4944 56.384C17.6644 56.3844 17.6644 56.3844 17.8378 56.3848C18.2203 56.3854 18.6028 56.3849 18.9854 56.3844C19.2584 56.3846 19.5315 56.3849 19.8046 56.3852C20.5484 56.3859 21.2922 56.3857 22.036 56.3852C22.8126 56.3848 23.5892 56.3851 24.3659 56.3854C25.6703 56.3857 26.9747 56.3853 28.2792 56.3846C29.7896 56.3837 31.2999 56.384 32.8103 56.3848C34.1046 56.3855 35.399 56.3856 36.6933 56.3852C37.4674 56.385 38.2415 56.385 39.0156 56.3855C39.7432 56.3859 40.4708 56.3856 41.1984 56.3847C41.4663 56.3845 41.7341 56.3846 42.002 56.3849C42.366 56.3853 42.73 56.3848 43.0941 56.384C43.2983 56.384 43.5025 56.3839 43.7129 56.3839C44.1483 56.416 44.1483 56.416 44.3208 56.2084C44.3774 55.8213 44.425 55.4367 44.4669 55.048C44.4868 54.8699 44.4868 54.8699 44.507 54.6881C44.5351 54.4348 44.5629 54.1814 44.5903 53.9279C44.6315 53.5485 44.6739 53.1693 44.7165 52.79C45.0515 49.7738 45.1376 46.7941 45.139 43.7598C45.1391 43.6557 45.1391 43.5515 45.1392 43.4442C45.1403 40.193 45.0724 36.992 44.6325 33.7659C44.6066 33.5658 44.5807 33.3656 44.554 33.1593C43.7116 26.7182 42.0924 20.2699 39.1777 14.4405C33.3146 14.4405 27.4515 14.4405 21.4108 14.4405ZM6.44915 48.26C3.75357 51.0367 3.14894 54.684 3.15559 58.4055C3.15544 58.592 3.15529 58.7785 3.15514 58.9707C3.15504 59.3611 3.15532 59.7515 3.15597 60.1419C3.15682 60.741 3.15598 61.3401 3.15498 61.9392C3.15509 62.3198 3.15529 62.7004 3.15559 63.081C3.15528 63.2602 3.15496 63.4395 3.15464 63.6241C3.15513 63.7896 3.15562 63.9552 3.15613 64.1257C3.15625 64.2713 3.15637 64.4169 3.1565 64.5669C3.16121 64.9596 3.16121 64.9596 3.33214 65.4036C3.82159 65.6266 3.82159 65.6266 4.34943 65.2995C4.57953 65.1703 4.80857 65.0393 5.03676 64.9068C5.16086 64.8362 5.28497 64.7657 5.41284 64.693C6.5861 64.0218 7.74436 63.3253 8.90075 62.6256C9.9451 61.9944 10.9971 61.376 12.049 60.7574C12.1861 60.6766 12.3233 60.5958 12.4646 60.5125C12.586 60.4412 12.7073 60.3698 12.8324 60.2963C13.0989 60.1359 13.3594 59.9655 13.6183 59.7929C13.5169 58.4986 13.3469 57.2202 13.1605 55.9356C12.6276 52.1433 12.4194 48.3407 12.2156 44.5196C10.4892 44.5196 7.64951 47.0735 6.44915 48.26ZM17.047 59.6371C17.2526 61.6694 17.2526 61.6694 18.4496 63.2216C18.9726 63.5452 19.382 63.5731 19.9927 63.575C20.2748 63.577 20.2748 63.577 20.5627 63.5791C20.7707 63.5789 20.9787 63.5788 21.1866 63.5786C21.4061 63.5796 21.6255 63.5806 21.8449 63.5818C22.4406 63.5845 23.0364 63.5853 23.6321 63.5855C24.0045 63.5857 24.3769 63.5864 24.7493 63.5872C26.049 63.5901 27.3488 63.5914 28.6486 63.5911C29.8591 63.5909 31.0696 63.5942 32.2802 63.5991C33.3203 63.6032 34.3603 63.6049 35.4004 63.6047C36.0213 63.6046 36.6421 63.6055 37.2629 63.6088C37.8472 63.6118 38.4313 63.6118 39.0156 63.6096C39.3312 63.6091 39.6468 63.6117 39.9624 63.6144C41.0296 63.607 41.7491 63.572 42.6064 62.91C43.0204 62.3742 43.1807 61.8398 43.337 61.1859C43.3762 61.0265 43.4153 60.8672 43.4557 60.7031C43.5613 60.2336 43.5613 60.2336 43.5415 59.6371C34.7983 59.6371 26.0551 59.6371 17.047 59.6371Z" fill="#B31A1C"/>
<path d="M35.9182 22.7783C37.633 24.1494 38.7014 26.3211 39.0224 28.4662C39.2355 31.0769 38.5047 33.5363 36.8015 35.5477C35.0552 37.3564 32.8074 38.2702 30.324 38.3335C27.8483 38.2853 25.7332 37.4256 23.9384 35.7035C22.2502 33.8456 21.5004 31.546 21.5239 29.0677C21.6822 26.8652 22.5651 24.6703 24.2166 23.1673C27.8424 20.3104 32.1253 20.0386 35.9182 22.7783ZM26.1361 25.9434C25.1046 27.2194 24.7271 28.4814 24.7803 30.1185C24.9632 31.7421 25.8349 33.0186 27.0706 34.0476C28.4243 35.0325 29.7332 35.1482 31.3857 35.0119C32.7612 34.781 33.8457 33.9287 34.7073 32.8593C35.6589 31.473 35.9595 30.1443 35.7495 28.4662C35.3606 26.977 34.5775 25.713 33.2492 24.9048C30.7652 23.628 28.1087 23.8198 26.1361 25.9434Z" fill="#B31A1C"/>
<path d="M30.9182 68.987C31.3561 69.2665 31.6209 69.4575 31.8533 69.9221C31.8714 70.2107 31.8797 70.5 31.8833 70.7892C31.8871 71.0615 31.8871 71.0615 31.8909 71.3394C31.8978 72.17 31.9043 73.0007 31.9078 73.8314C31.9099 74.27 31.9142 74.7085 31.9206 75.147C31.9298 75.7782 31.9325 76.4094 31.9348 77.0407C31.9384 77.2368 31.9419 77.4329 31.9455 77.635C31.9419 79.1487 31.9419 79.1487 31.4829 79.6302C31.0427 79.9169 30.8158 80.0021 30.2948 79.9939C30.1019 79.9969 30.1019 79.9969 29.9051 80C29.4787 79.8867 29.208 79.7344 28.9026 79.414C28.5119 78.717 28.63 77.8328 28.6382 77.0571C28.6379 76.856 28.6375 76.6548 28.6371 76.4476C28.6366 76.0226 28.6389 75.5977 28.6432 75.1727C28.6485 74.6292 28.6476 74.0859 28.6447 73.5424C28.6426 73.0223 28.6455 72.5023 28.648 71.9822C28.6472 71.7876 28.6464 71.5929 28.6456 71.3923C28.6481 71.2108 28.6506 71.0293 28.6531 70.8423C28.6546 70.6034 28.6546 70.6034 28.656 70.3596C28.7571 69.8082 28.9765 69.5446 29.3596 69.1428C29.8586 68.8933 30.3767 68.9092 30.9182 68.987Z" fill="#B31A1C"/>
<path d="M38.842 68.9203C39.3386 69.0202 39.6149 69.2476 39.9573 69.6113C40.3349 70.3665 40.1619 71.5192 40.1677 72.3589C40.1703 72.6301 40.1745 72.9012 40.1805 73.1724C40.1891 73.5642 40.1925 73.9558 40.1947 74.3477C40.1983 74.468 40.2018 74.5884 40.2054 74.7123C40.203 75.3368 40.1441 75.7316 39.7519 76.2305C39.2306 76.7219 38.9547 76.7929 38.243 76.7804C37.6172 76.5443 37.3696 76.4055 36.9961 75.8453C36.9599 75.3911 36.9413 74.9521 36.9383 74.4975C36.9369 74.3651 36.9355 74.2327 36.934 74.0963C36.9318 73.8162 36.9304 73.5361 36.9298 73.256C36.928 72.8283 36.9203 72.401 36.9124 71.9734C36.911 71.7011 36.9098 71.4288 36.9091 71.1564C36.906 71.029 36.903 70.9015 36.8999 70.7702C36.9052 70.0961 36.9353 69.8439 37.369 69.2968C37.9052 68.8893 38.1926 68.8846 38.842 68.9203Z" fill="#B31A1C"/>
<path d="M22.0833 68.9296C22.2016 68.922 22.32 68.9144 22.4419 68.9065C23.0196 69.0332 23.2292 69.3079 23.5931 69.7673C23.7059 70.2274 23.7025 70.6736 23.6966 71.1456C23.6973 71.2776 23.6981 71.4095 23.6988 71.5455C23.6994 71.8237 23.6979 72.102 23.6947 72.3802C23.6905 72.8051 23.6946 73.2295 23.6996 73.6544C23.6991 73.9254 23.6981 74.1963 23.6966 74.4672C23.6982 74.5937 23.6997 74.7201 23.7014 74.8505C23.6877 75.5144 23.6505 75.7724 23.2262 76.3121C22.7487 76.6741 22.4756 76.7682 21.8787 76.7806C21.1746 76.6129 20.8624 76.2921 20.4761 75.6896C20.4152 75.2325 20.3885 74.8357 20.3933 74.3795C20.3927 74.2545 20.3921 74.1294 20.3915 74.0006C20.3911 73.737 20.3922 73.4735 20.3948 73.2099C20.3982 72.8076 20.3948 72.4057 20.3909 72.0034C20.3913 71.7467 20.3921 71.49 20.3933 71.2333C20.392 71.1136 20.3908 70.9939 20.3895 70.8707C20.403 70.0947 20.542 69.6869 21.0995 69.1439C21.4537 68.9668 21.6891 68.9468 22.0833 68.9296Z" fill="#B31A1C"/>
</svg>
