<svg width="80" height="80" viewBox="0 0 80 80" fill="none" xmlns="http://www.w3.org/2000/svg">
<path d="M12.2308 19.4065C12.4608 19.4681 12.6909 19.5297 12.921 19.5912C13.5245 19.7528 14.1277 19.9154 14.7309 20.0783C15.2201 20.2102 15.7096 20.3414 16.1991 20.4726C18.8599 21.1855 18.8599 21.1855 19.8371 21.4534C20.1715 21.5435 20.507 21.6299 20.844 21.7108C21.8648 21.9641 21.8648 21.9641 22.3442 22.4384C22.7665 22.8141 22.8224 22.8279 23.3698 22.8238C23.6252 22.8061 23.8803 22.7842 24.135 22.7588C24.2726 22.7483 24.4103 22.7379 24.5521 22.7271C24.9994 22.6925 25.446 22.6525 25.8928 22.6124C26.5064 22.5623 27.1202 22.5146 27.734 22.4665C27.9603 22.4482 27.9603 22.4482 28.1911 22.4295C29.3972 22.3339 30.5939 22.3031 31.8042 22.2896C33.0923 22.2633 34.0144 22.1345 35.1495 21.5328C38.5278 19.7618 42.7338 20.3115 46.2836 21.2475C48.8489 21.9541 51.3895 22.8143 53.7458 24.0097C54.5771 24.4111 55.0629 24.4365 55.979 24.2539C56.275 24.2037 56.275 24.2037 56.577 24.1525C57.2177 23.9043 57.2812 23.6581 57.5475 23.0735C57.9905 22.699 58.4051 22.5343 58.9734 22.3802C59.2126 22.3144 59.2126 22.3144 59.4567 22.2472C59.6294 22.2011 59.8021 22.155 59.98 22.1074C60.1609 22.0581 60.3418 22.0088 60.5282 21.958C61.1094 21.7999 61.691 21.6436 62.2727 21.4872C62.651 21.3844 63.0292 21.2814 63.4074 21.1783C64.3487 20.9224 65.2911 20.6703 66.2343 20.4205C66.6175 20.3188 67.0005 20.2165 67.3834 20.1135C67.9434 19.9632 68.5042 19.8154 69.0651 19.6682C69.2342 19.6223 69.4033 19.5765 69.5776 19.5294C71.0918 19.1375 71.0918 19.1375 71.8211 19.3846C72.5252 19.7907 72.7427 20.166 72.9809 20.8993C73.0126 20.9951 73.0442 21.091 73.0768 21.1897C73.1848 21.5216 73.2877 21.8546 73.3896 22.1881C73.4269 22.3093 73.4642 22.4304 73.5027 22.5553C73.8226 23.599 74.1304 24.6458 74.4385 25.6926C74.6575 26.434 74.8771 27.1752 75.0972 27.9163C75.1269 28.0165 75.1567 28.1168 75.1873 28.22C75.7252 30.0303 76.2761 31.837 76.8301 33.6431C76.9706 34.1015 77.111 34.5599 77.2513 35.0184C77.345 35.3248 77.4388 35.6312 77.5326 35.9375C77.6022 36.1652 77.6022 36.1652 77.6733 36.3974C77.9534 37.3123 78.2348 38.2268 78.517 39.1411C78.6948 39.7182 78.8714 40.2957 79.0477 40.8733C79.1308 41.1445 79.2144 41.4157 79.2985 41.6866C79.4146 42.0608 79.5289 42.4353 79.6428 42.8101C79.677 42.9187 79.7112 43.0274 79.7465 43.1393C79.9839 43.9305 80.1566 44.6884 79.7813 45.4651C79.2149 46.1502 78.5707 46.3619 77.7025 46.5881C77.5849 46.6198 77.4672 46.6515 77.346 46.6842C76.9578 46.7885 76.5692 46.8909 76.1804 46.9932C75.9097 47.0652 75.6389 47.1374 75.3681 47.2096C74.8008 47.3606 74.2331 47.5107 73.6653 47.6601C72.939 47.8514 72.2135 48.0449 71.4881 48.2392C70.9291 48.3887 70.3696 48.5368 69.81 48.6846C69.5424 48.7555 69.275 48.8267 69.0076 48.8984C68.633 48.9986 68.258 49.097 67.8827 49.1951C67.7733 49.2247 67.6638 49.2544 67.551 49.285C66.7153 49.5002 65.9292 49.6413 65.1156 49.3108C64.5311 48.8678 64.2996 48.3895 64.1353 47.7154C63.4248 47.7366 62.7713 47.793 62.0962 48.0105C61.8329 48.3565 61.7464 48.6642 61.6251 49.0728C61.2027 50.19 60.0979 51.0577 58.9935 51.5772C58.4555 51.7661 57.963 51.8176 57.3907 51.8469C57.3789 51.947 57.3672 52.047 57.3551 52.1501C57.1161 53.7419 56.4097 54.8537 55.0918 55.8765C53.9566 56.6472 52.8255 56.8734 51.4303 56.8639C51.0608 56.7918 51.0608 56.7918 50.8029 56.7163C50.7738 56.8593 50.7447 57.0024 50.7147 57.1497C50.3534 58.3156 49.4095 59.1747 48.3325 59.7925C47.2147 60.331 45.9471 60.4354 44.7279 60.1614C43.6395 59.8249 42.7649 59.2902 41.8623 58.6345C41.8089 58.7078 41.7556 58.781 41.7006 58.8564C40.7995 60.0445 39.8362 61.0277 38.2547 61.2905C36.3166 61.4904 34.9293 60.986 33.4218 59.8542C33.2441 59.718 33.0669 59.5812 32.8903 59.4438C32.593 59.2131 32.293 58.9858 31.9923 58.759C30.9078 57.9389 29.8363 57.1052 28.7777 56.2557C28.2608 55.8413 27.7363 55.4375 27.2065 55.0378C26.3145 54.3558 25.4809 53.6203 24.6435 52.8804C24.2604 52.5424 23.8708 52.2141 23.4714 51.8931C22.8466 51.3869 22.2752 50.8345 21.6964 50.2826C21.3731 49.9829 21.0446 49.7048 20.6971 49.4307C19.9131 48.7988 19.2363 48.0725 18.5491 47.3502C18.3411 47.132 18.1313 46.9153 17.9216 46.6986C16.965 45.709 16.965 45.709 16.6091 45.2069C16.3885 45.7467 16.1722 46.2784 16.0007 46.8341C15.5729 48.1964 15.5729 48.1964 15.0798 48.6376C14.1306 49.1184 13.189 48.9042 12.1923 48.6343C12.0878 48.6064 11.9833 48.5786 11.8756 48.5499C11.5338 48.4585 11.1927 48.3648 10.8516 48.271C10.6114 48.2061 10.3711 48.1414 10.1309 48.0768C9.62839 47.9413 9.12626 47.8047 8.62436 47.6674C7.98568 47.4926 7.34646 47.3197 6.707 47.1475C6.21095 47.0138 5.7151 46.8795 5.21931 46.7449C4.98393 46.681 4.74852 46.6173 4.51306 46.5536C3.45161 46.2661 2.3915 45.9739 1.34445 45.6425C1.21256 45.6009 1.08068 45.5593 0.944803 45.5165C0.395808 45.2506 0.202376 44.9338 0.00254656 44.3934C-0.0278561 43.6002 0.219447 42.8975 0.451584 42.1396C0.527053 41.8851 0.527053 41.8851 0.604048 41.6255C0.761155 41.0973 0.92087 40.5699 1.08079 40.0424C1.17393 39.7307 1.2669 39.4189 1.35968 39.107C1.63951 38.1688 1.92337 37.2318 2.20755 36.2947C2.31202 35.9495 2.41646 35.6043 2.52088 35.2591C2.79268 34.3607 3.06484 33.4624 3.33707 32.5641C3.66489 31.4821 3.99225 30.4 4.31964 29.3179C4.58133 28.4531 4.84329 27.5884 5.10592 26.7238C5.52643 25.3391 5.94642 23.9544 6.35318 22.5661C6.41131 22.3691 6.46948 22.1722 6.52769 21.9752C6.62691 21.6383 6.72485 21.3011 6.82107 20.9634C7.33122 19.2389 7.33122 19.2389 8.17835 18.7298C9.51389 18.4728 10.9544 19.0606 12.2308 19.4065ZM10.1782 22.4832C9.83415 23.3162 9.54491 24.1496 9.28788 25.0096C9.24877 25.1389 9.20966 25.2682 9.16937 25.4014C9.04072 25.8273 8.91281 26.2533 8.78492 26.6794C8.69407 26.9807 8.60318 27.282 8.51224 27.5832C8.2725 28.3779 8.03341 29.1728 7.79444 29.9677C7.55642 30.759 7.31776 31.5501 7.07916 32.3413C6.80107 33.2634 6.52323 34.1856 6.24652 35.108C6.15742 35.405 6.06831 35.702 5.9792 35.9991C5.93614 36.1426 5.89307 36.2861 5.8487 36.434C5.61019 37.2278 5.36927 38.0208 5.12504 38.813C4.9876 39.259 4.8512 39.7053 4.71491 40.1516C4.65309 40.3529 4.59072 40.5541 4.52777 40.7551C4.44313 41.0253 4.36048 41.2962 4.27795 41.567C4.20879 41.7901 4.20879 41.7901 4.13822 42.0176C4.06019 42.4073 4.0779 42.6242 4.21783 42.9936C5.39556 43.313 6.57378 43.6307 7.75236 43.9473C8.15355 44.0553 8.55461 44.1637 8.95556 44.2724C9.53069 44.4283 10.1062 44.5829 10.6819 44.7372C10.8621 44.7863 11.0423 44.8355 11.228 44.8862C11.3944 44.9305 11.5608 44.9748 11.7323 45.0205C11.8792 45.0601 12.0262 45.0998 12.1777 45.1406C12.5346 45.2429 12.5346 45.2429 12.8447 45.0594C12.9696 44.7811 12.9696 44.7811 13.0666 44.4361C13.1079 44.3015 13.1492 44.1669 13.1918 44.0283C13.2361 43.8794 13.2805 43.7305 13.3261 43.5771C13.3736 43.4211 13.4211 43.2651 13.47 43.1043C13.628 42.5845 13.7841 42.0642 13.9402 41.5439C14.0499 41.1814 14.1598 40.8188 14.2697 40.4563C14.5009 39.693 14.7314 38.9295 14.9611 38.1657C15.2816 37.1004 15.6037 36.0355 15.9261 34.9706C16.5755 32.8257 17.2238 30.6804 17.864 28.5331C17.9109 28.3762 17.9578 28.2194 18.0061 28.0579C18.1411 27.6059 18.2748 27.1537 18.4082 26.7014C18.4687 26.4992 18.4687 26.4992 18.5305 26.2929C18.5669 26.1687 18.6032 26.0445 18.6406 25.9165C18.6726 25.8086 18.7045 25.7007 18.7374 25.5895C18.8266 25.2421 18.8266 25.2421 18.8051 24.6966C17.0512 24.1544 15.285 23.6566 13.509 23.1829C13.2821 23.1223 13.0553 23.0615 12.8285 23.0004C12.506 22.9137 12.1831 22.828 11.8601 22.7426C11.6721 22.6926 11.484 22.6426 11.2903 22.5911C10.7869 22.4606 10.7869 22.4606 10.1782 22.4832ZM69.006 23.1268C68.7579 23.1925 68.7579 23.1925 68.5048 23.2596C68.3247 23.3075 68.1447 23.3555 67.9592 23.4049C67.7756 23.4537 67.5921 23.5025 67.403 23.5527C67.0138 23.6562 66.6247 23.7598 66.2356 23.8635C65.6385 24.0225 65.0411 24.181 64.4438 24.3395C64.0667 24.4399 63.6896 24.5403 63.3125 24.6407C63.1327 24.6883 62.953 24.736 62.7678 24.7851C62.6019 24.8294 62.436 24.8737 62.2651 24.9193C62.1186 24.9583 61.9721 24.9973 61.8211 25.0375C61.4679 25.1296 61.4679 25.1296 61.1551 25.2868C61.3903 26.5553 61.7602 27.7841 62.1373 29.0201C62.2044 29.2417 62.2714 29.4633 62.3384 29.6849C62.5174 30.2764 62.6971 30.8678 62.877 31.4591C63.0634 32.0722 63.2491 32.6856 63.4348 33.2989C63.66 34.0422 63.8851 34.7854 64.1105 35.5285C64.5757 37.0623 65.0385 38.5967 65.4986 40.1318C65.5814 40.4079 65.5814 40.4079 65.6659 40.6896C65.8728 41.3799 66.0797 42.0702 66.2861 42.7605C66.4242 43.2226 66.5627 43.6845 66.7013 44.1464C66.7415 44.2812 66.7817 44.4161 66.8231 44.5551C66.8597 44.6768 66.8963 44.7985 66.934 44.9239C66.9813 45.0819 66.9813 45.0819 67.0295 45.2431C67.1114 45.5141 67.1114 45.5141 67.2724 45.7971C69.0495 45.3901 70.8152 44.9498 72.5763 44.4851C72.995 44.375 73.4142 44.2664 73.8335 44.1579C74.1003 44.0877 74.3672 44.0173 74.634 43.9469C74.7591 43.9148 74.8842 43.8827 75.0132 43.8496C75.3114 43.7698 75.6058 43.6779 75.8992 43.5838C76.158 43.0969 75.8859 42.6168 75.7319 42.1167C75.6954 41.9952 75.6589 41.8736 75.6213 41.7484C75.499 41.3416 75.375 40.9353 75.251 40.5289C75.1641 40.2413 75.0773 39.9536 74.9907 39.6659C74.7598 38.9007 74.5277 38.1359 74.2952 37.3711C74.0675 36.6214 73.841 35.8713 73.6144 35.1212C73.2992 34.078 72.9836 33.0349 72.6675 31.9919C72.0494 29.9521 71.4352 27.9113 70.8224 25.8701C70.7773 25.7199 70.7322 25.5698 70.6857 25.415C70.4367 24.5854 70.1877 23.7557 69.9388 22.9259C69.6228 22.9259 69.307 23.0468 69.006 23.1268ZM32.0499 27.5249C31.4675 28.1605 31.0024 28.8342 30.569 29.5659C30.4753 29.7232 30.4753 29.7232 30.3796 29.8835C29.6166 31.2412 28.9858 32.93 29.403 34.4676C29.6072 35.0227 29.7263 35.284 30.2553 35.6158C31.7361 35.6158 32.8555 34.699 33.8629 33.7621C34.5994 33.0602 35.252 32.3088 35.8692 31.5121C36.175 31.119 36.4055 30.8732 36.8431 30.5988C37.2858 30.545 37.7221 30.5032 38.1665 30.4697C39.2303 30.3771 40.1525 30.1844 41.1596 29.8369C41.687 29.6696 42.0967 29.6307 42.6466 29.7135C43.4492 30.1674 44.1543 30.7269 44.8719 31.2905C45.1109 31.4769 45.3498 31.6633 45.5888 31.8496C45.7037 31.9394 45.8186 32.0293 45.937 32.1218C47.1373 33.0591 48.3507 33.9816 49.5617 34.9067C50.5818 35.6861 51.5988 36.469 52.6153 37.2527C53.5827 37.9981 54.5527 38.7405 55.5236 39.482C56.2561 40.0417 56.9877 40.6024 57.716 41.167C58.0767 41.4428 58.4398 41.7144 58.8054 41.9843C58.9166 42.0672 59.0278 42.1502 59.1424 42.2356C59.3597 42.3976 59.578 42.5585 59.7974 42.7181C60.4602 43.2146 60.9348 43.7148 61.3885 44.3901C61.6149 44.653 61.6149 44.653 62.0079 44.6631C62.3776 44.6353 62.6898 44.5917 63.0373 44.4691C63.2779 44.0165 63.0631 43.6295 62.9201 43.1659C62.8735 43.0099 62.8735 43.0099 62.8258 42.8508C62.7216 42.5033 62.6157 42.1562 62.5098 41.8091C62.4359 41.5639 62.3621 41.3186 62.2883 41.0733C62.0921 40.4218 61.8946 39.7706 61.6968 39.1195C61.5022 38.4783 61.309 37.8368 61.1156 37.1954C60.7731 36.0595 60.4287 34.9242 60.0838 33.789C59.8544 33.033 59.6271 32.2764 59.4016 31.5193C59.2573 31.0349 59.1122 30.5506 58.9671 30.0664C58.899 29.8386 58.8313 29.6107 58.764 29.3827C58.6717 29.0701 58.5781 28.7579 58.4842 28.4457C58.4056 28.1813 58.4056 28.1813 58.3254 27.9116C58.2054 27.4857 58.2054 27.4857 57.8612 27.205C57.5943 27.2875 57.5943 27.2875 57.3221 27.3716C57.0835 27.4423 56.845 27.5128 56.6064 27.5832C56.4898 27.6196 56.3731 27.656 56.2529 27.6935C54.5637 28.1841 53.498 27.6379 51.9891 26.9099C45.2609 23.7528 37.8506 21.8456 32.0499 27.5249ZM25.285 25.9416C25.0823 25.9615 24.8796 25.9814 24.6708 26.0018C23.8083 26.0877 22.9535 26.179 22.099 26.3197C21.2638 28.7142 20.542 31.138 19.821 33.5645C19.6949 33.9886 19.5683 34.4125 19.4416 34.8365C19.2877 35.3521 19.134 35.8678 18.9803 36.3835C18.9247 36.5699 18.8692 36.7562 18.8119 36.9482C18.7053 37.3069 18.5998 37.6658 18.4954 38.0251C18.3819 38.4072 18.2639 38.7858 18.1397 39.1648C18.0776 39.362 18.0155 39.5592 17.9535 39.7564C17.8674 40.0201 17.8674 40.0201 17.7795 40.2891C17.692 40.8829 17.8118 41.1319 18.1385 41.6379C18.3539 41.8981 18.5762 42.1534 18.8051 42.4033C18.9021 42.5239 18.9992 42.6445 19.0992 42.7688C20.4773 44.4703 22.1151 45.9844 23.7229 47.4916C24.0125 47.7633 24.3012 48.0357 24.5899 48.3082C25.5109 49.1751 26.4368 50.0218 27.4319 50.8141C27.6841 51.0287 27.9358 51.2438 28.1868 51.4596C28.8602 52.0314 29.5543 52.5732 30.2596 53.1098C30.7788 53.511 31.2866 53.9232 31.7944 54.337C32.8742 55.214 33.9875 56.0453 35.1177 56.8639C35.2479 56.9588 35.3781 57.0537 35.5123 57.1515C36.3951 57.8261 36.3951 57.8261 37.4705 58.0351C38.0719 57.8583 38.255 57.6693 38.5684 57.159C38.7125 56.7357 38.7125 56.7357 38.5684 56.2736C37.8897 55.2778 36.8063 54.4591 35.9126 53.6329C35.8125 53.54 35.7123 53.4471 35.6091 53.3513C35.5183 53.2677 35.4276 53.184 35.334 53.0978C34.8805 52.6409 34.897 52.1909 34.9094 51.591C34.9608 51.2567 34.9608 51.2567 35.2549 50.8048C35.837 50.4653 36.2045 50.3765 36.8841 50.4106C37.7734 50.6349 38.3848 51.2652 39.039 51.8469C39.3263 52.0931 39.6139 52.339 39.9017 52.5847C40.0442 52.7082 40.1868 52.8316 40.3336 52.9588C40.7516 53.3117 41.1798 53.646 41.6172 53.9773C42.4235 54.588 43.1773 55.2391 43.929 55.9076C44.8918 56.7123 44.8918 56.7123 46.0973 57.0114C46.6495 56.8244 46.962 56.6574 47.3325 56.2275C47.556 55.7252 47.6216 55.4859 47.509 54.9456C46.5018 53.418 44.5668 52.2448 43.0779 51.1553C42.7244 50.8947 42.3717 50.6332 42.0192 50.3714C41.8605 50.2542 41.7017 50.137 41.5382 50.0163C40.3768 49.1087 40.3768 49.1087 40.2448 48.4255C40.2975 47.8204 40.3983 47.4763 40.7644 46.9776C41.2903 46.5888 41.8428 46.6195 42.4897 46.6825C43.2952 47.1306 43.9982 47.6964 44.7151 48.2595C44.9528 48.4451 45.1905 48.6307 45.4283 48.8163C45.543 48.906 45.6577 48.9957 45.776 49.0882C46.1909 49.4114 46.6097 49.7299 47.0286 50.0486C47.5636 50.4588 48.0791 50.8821 48.5874 51.3213C49.1921 51.8349 49.8063 52.3339 50.4402 52.8153C50.5221 52.8805 50.6041 52.9457 50.6885 53.0129C51.1423 53.3501 51.4295 53.47 52.0087 53.5317C52.7602 53.4425 52.9465 53.2356 53.4694 52.7323C53.868 52.221 53.8524 51.7288 53.7831 51.1092C53.3851 50.5713 52.9358 50.1761 52.391 49.7719C51.6931 49.2458 51.0092 48.708 50.3323 48.158C49.262 47.2908 48.1822 46.4348 47.0648 45.6213C46.9235 45.5181 46.7821 45.4148 46.6365 45.3084C46.5101 45.2176 46.3838 45.1269 46.2536 45.0334C45.7251 44.5791 45.6358 44.263 45.568 43.593C45.5824 42.9868 45.7869 42.6825 46.2542 42.2558C46.7697 42.0133 47.2674 42.0159 47.8227 42.1082C48.3003 42.3358 48.6769 42.6623 49.0775 42.9936C49.2462 43.1292 49.4151 43.2647 49.5842 43.3999C49.9649 43.7052 50.3442 44.0121 50.7226 44.3198C51.3222 44.8059 51.9355 45.2752 52.5503 45.7441C53.1779 46.2313 53.7929 46.7321 54.4053 47.2361C55.4762 48.165 55.4762 48.165 56.7731 48.6837C57.5221 48.5488 57.9927 48.2219 58.469 47.6693C58.7028 47.1439 58.7298 46.805 58.6455 46.2398C58.1238 45.5705 57.5436 45.0845 56.8417 44.589C56.0806 44.0397 55.3354 43.4789 54.6066 42.8921C53.9125 42.3346 53.2103 41.7893 52.4952 41.2557C51.9315 40.8331 51.372 40.4057 50.8127 39.9779C50.7035 39.8944 50.5944 39.8109 50.4819 39.7249C49.7463 39.1619 49.0121 38.5974 48.2786 38.032C47.7093 37.5944 47.1386 37.1584 46.5679 36.7224C45.8448 36.1701 45.1222 35.6173 44.4014 35.0624C44.2663 34.9603 44.1312 34.8581 43.9921 34.7529C43.7045 34.527 43.4258 34.291 43.1539 34.0485C42.4168 33.3665 42.4168 33.3665 41.4714 33.0796C41.0828 33.1464 41.0828 33.1464 40.7006 33.2779C40.2429 33.418 39.842 33.4253 39.3625 33.4485C38.1401 33.6313 37.5793 34.5025 36.8824 35.3752C35.6903 36.8368 33.659 38.4199 31.6669 38.7144C30.3595 38.8359 29.2136 38.751 28.0593 38.1242C27.9019 37.9772 27.745 37.8297 27.5888 37.6815C27.4853 37.6815 27.3817 37.6815 27.2751 37.6815C27.2298 37.5958 27.1845 37.51 27.1378 37.4216C27.0287 37.2174 26.9179 37.0139 26.8045 36.8118C26.7528 36.7184 26.701 36.625 26.6477 36.5288C26.5959 36.4365 26.5442 36.3443 26.4908 36.2492C25.5731 34.2697 25.8616 31.8445 26.6477 29.8611C27.1861 28.6472 27.8483 27.4905 28.6665 26.4229C28.8725 26.155 28.8725 26.155 29.0005 25.7295C27.7488 25.7 26.5286 25.815 25.285 25.9416Z" fill="black"/>
</svg>
