<svg width="81" height="80" viewBox="0 0 81 80" fill="none" xmlns="http://www.w3.org/2000/svg">
<path d="M20.6998 0.0408594C20.8376 0.0403811 20.9755 0.0399028 21.1175 0.03941C21.5822 0.0380073 22.0469 0.0377682 22.5116 0.0375284C22.8437 0.0367835 23.1758 0.0359746 23.5079 0.0351062C24.4124 0.0329898 25.3169 0.0319549 26.2214 0.0312406C26.7865 0.0307692 27.3516 0.0301084 27.9167 0.0293885C29.6847 0.0271856 31.4527 0.0256302 33.2208 0.0250092C35.2616 0.0242885 37.3023 0.0214671 39.3431 0.0167985C40.9203 0.0133158 42.4974 0.0116942 44.0746 0.0114792C45.0165 0.0113105 45.9585 0.0103618 46.9005 0.00748337C47.7874 0.00482604 48.6743 0.00448505 49.5612 0.00589582C49.8861 0.00601964 50.211 0.00532329 50.5359 0.00372913C53.6643 -0.0107169 53.6643 -0.0107169 54.9618 0.546449C55.1112 0.603313 55.2606 0.660176 55.4146 0.718763C57.622 1.78303 58.9688 3.559 59.8356 5.81269C60.0702 6.55172 60.1346 7.23772 60.1391 8.01199C60.1414 8.32251 60.1414 8.32251 60.1438 8.63929C60.1448 8.8675 60.1457 9.09571 60.1466 9.32392C60.1482 9.56513 60.1498 9.80634 60.1515 10.0476C60.1558 10.7014 60.1592 11.3553 60.1624 12.0092C60.1659 12.6929 60.1703 13.3766 60.1747 14.0603C60.1827 15.3546 60.1899 16.6488 60.1969 17.9431C60.2048 19.4168 60.2137 20.8904 60.2226 22.3641C60.2409 25.3951 60.2581 28.4261 60.2746 31.4572C60.3416 31.3887 60.4086 31.3203 60.4777 31.2497C61.181 30.5321 61.8866 29.8168 62.5936 29.1028C62.8565 28.8367 63.1188 28.57 63.3805 28.3027C63.7586 27.9167 64.1388 27.5328 64.5195 27.1493C64.6919 26.9719 64.6919 26.9719 64.8678 26.7909C66.8254 24.8325 69.072 24.0071 71.7943 24.0001C74.1513 24.0349 76.0658 24.9607 77.765 26.5544C79.4089 28.2636 80.2027 30.3311 80.2981 32.6847C80.2506 34.8601 79.5831 37.0284 78.0737 38.6382C77.6984 38.9798 77.3178 39.312 76.927 39.6357C76.5659 39.9351 76.2108 40.2413 75.855 40.5471C75.6633 40.7117 75.4713 40.8761 75.2791 41.0401C64.5679 49.4644 64.5679 49.4644 59.052 61.2C58.8007 64.4576 59.1646 67.7973 59.8133 70.9925C60.2443 73.1259 59.8788 74.7044 58.6646 76.5353C57.3167 78.347 55.5562 79.4432 53.3519 79.9161C53.0854 79.9308 52.8183 79.9372 52.5514 79.9377C52.3892 79.9385 52.2271 79.9392 52.06 79.9399C51.8821 79.9399 51.7043 79.9398 51.5211 79.9398C51.3319 79.9404 51.1427 79.941 50.9478 79.9416C50.4225 79.9431 49.8972 79.9438 49.3719 79.9443C48.8054 79.9449 48.2389 79.9464 47.6723 79.9478C46.3039 79.951 44.9355 79.9526 43.5671 79.9541C42.9223 79.9548 42.2775 79.9556 41.6327 79.9565C39.4885 79.9592 37.3442 79.9615 35.1999 79.9627C34.6436 79.963 34.0873 79.9633 33.5309 79.9636C33.3926 79.9637 33.2544 79.9638 33.1119 79.9639C30.8734 79.9652 28.6349 79.9693 26.3964 79.9745C24.0968 79.9799 21.7973 79.9827 19.4977 79.9833C18.2071 79.9836 16.9166 79.985 15.626 79.9891C14.5266 79.9926 13.4272 79.9939 12.3277 79.9924C11.7673 79.9916 11.2069 79.9919 10.6465 79.9951C10.0373 79.9979 9.4283 79.9968 8.81915 79.9947C8.64418 79.9964 8.46921 79.9982 8.28894 80C6.06607 79.9815 4.15053 79.1018 2.47799 77.6622C0.976122 76.0009 0.044772 74.0152 0.041936 71.7449C0.0413176 71.5587 0.0406988 71.3726 0.0400616 71.1808C0.0402011 70.9769 0.0403404 70.7731 0.0404841 70.5631C0.040068 70.3438 0.039583 70.1246 0.0390348 69.9053C0.0377371 69.303 0.0374463 68.7006 0.0373275 68.0982C0.0370293 67.4485 0.0358152 66.7988 0.0347309 66.1492C0.0325453 64.7289 0.0315733 63.3086 0.0308642 61.8883C0.0304195 61.0017 0.0297396 60.1151 0.0290145 59.2285C0.027052 56.7744 0.025393 54.3202 0.0248481 51.866C0.0248128 51.709 0.0247765 51.552 0.02474 51.3902C0.0247049 51.2328 0.0246706 51.0754 0.0246344 50.9132C0.024563 50.5942 0.0244906 50.2753 0.0244182 49.9563C0.0243826 49.7981 0.0243469 49.6399 0.0243101 49.4768C0.0236741 46.9112 0.0208617 44.3456 0.0171149 41.7799C0.0133 39.1465 0.0112915 36.5132 0.0111037 33.8798C0.0109559 32.4009 0.0100279 30.9221 0.00710929 29.4432C0.00463378 28.1844 0.00380216 26.9256 0.00513422 25.6669C0.00576446 25.0244 0.00560618 24.382 0.00335321 23.7396C0.00131033 23.1517 0.0014887 22.5638 0.00344901 21.9759C0.0039156 21.6621 0.00199726 21.3482 0 21.0343C0.00106092 20.8482 0.00212257 20.662 0.00321564 20.4702C0.00311951 20.3095 0.00302235 20.1489 0.00292331 19.9834C0.124111 19.0978 0.693281 18.5513 1.30486 17.9401C1.41854 17.8258 1.41854 17.8258 1.53452 17.7093C1.78737 17.4555 2.04135 17.2029 2.29534 16.9503C2.47736 16.7681 2.65931 16.5859 2.8412 16.4035C3.3344 15.9095 3.8286 15.4166 4.323 14.9238C4.84013 14.4081 5.35641 13.8915 5.8728 13.3751C6.73964 12.5084 7.60709 11.6423 8.47495 10.7767C9.47916 9.775 10.4825 8.77248 11.4854 7.76948C12.4498 6.80504 13.4145 5.84107 14.3796 4.87735C14.7906 4.4669 15.2015 4.05632 15.6123 3.64564C16.0954 3.16267 16.5789 2.68012 17.0628 2.19789C17.2406 2.02052 17.4183 1.84302 17.5959 1.66537C17.8375 1.42363 18.0797 1.18239 18.322 0.941278C18.5254 0.738273 18.5254 0.738273 18.7329 0.531168C19.3422 -0.0395621 19.9051 0.0400076 20.6998 0.0408594ZM21.7972 3.44433C21.7966 3.58288 21.796 3.72144 21.7954 3.86419C21.7893 5.17848 21.7801 6.49271 21.7676 7.80695C21.7613 8.48241 21.7561 9.15783 21.7536 9.83332C21.7511 10.4868 21.7455 11.1402 21.7379 11.7937C21.7355 12.0414 21.7342 12.289 21.7341 12.5367C21.7311 15.2109 21.1103 17.3723 19.3119 19.4128C18.7108 19.9811 18.0403 20.3564 17.3095 20.731C17.2052 20.7848 17.101 20.8386 16.9935 20.894C15.3604 21.6815 13.6541 21.6889 11.8747 21.7032C11.6352 21.7062 11.3956 21.7094 11.1561 21.7127C10.531 21.7209 9.90586 21.7273 9.28071 21.7333C8.64067 21.7398 8.00064 21.748 7.36062 21.7561C6.10874 21.7716 4.85686 21.7852 3.60495 21.7976C3.5902 28.2539 3.57886 34.7103 3.57206 41.1667C3.57126 41.929 3.57042 42.6913 3.56957 43.4536C3.5694 43.6054 3.56923 43.7572 3.56906 43.9135C3.56626 46.3705 3.56118 48.8275 3.55526 51.2845C3.54924 53.8058 3.54566 56.327 3.54436 58.8484C3.54347 60.404 3.54068 61.9596 3.53545 63.5152C3.53205 64.5822 3.53102 65.6491 3.53185 66.716C3.53227 67.3315 3.53164 67.9469 3.52818 68.5623C3.52446 69.2302 3.52575 69.8979 3.52751 70.5658C3.52469 70.8564 3.52469 70.8564 3.52182 71.1529C3.53342 72.7827 3.95327 73.9262 5.06646 75.1203C6.4241 76.3841 7.81669 76.5837 9.60846 76.5772C9.7904 76.5779 9.97233 76.5785 10.1598 76.5791C10.7688 76.5808 11.3778 76.5801 11.9869 76.5795C12.4238 76.58 12.8607 76.581 13.2976 76.582C14.3609 76.584 15.4241 76.5843 16.4874 76.5839C17.352 76.5837 18.2165 76.5839 19.0811 76.5846C19.2042 76.5847 19.3274 76.5848 19.4543 76.5849C19.7045 76.5851 19.9547 76.5853 20.2049 76.5855C22.5504 76.5872 24.8959 76.5869 27.2414 76.5859C29.3853 76.5851 31.5293 76.5869 33.6733 76.59C35.8764 76.5931 38.0796 76.5944 40.2827 76.5938C41.5189 76.5935 42.7551 76.5939 43.9913 76.5962C45.0438 76.5981 46.0964 76.5983 47.1489 76.5964C47.6855 76.5954 48.222 76.5955 48.7586 76.5972C49.3414 76.5989 49.9241 76.5976 50.5069 76.5955C50.6749 76.5967 50.843 76.5979 51.0162 76.5991C52.5843 76.5876 53.8959 76.2783 55.1152 75.2643C56.1547 74.1951 56.5972 73.0767 56.59 71.6101C56.59 71.4239 56.59 71.4239 56.5901 71.234C56.59 70.8237 56.5887 70.4134 56.5875 70.0031C56.5872 69.7186 56.5869 69.4342 56.5868 69.1497C56.5862 68.401 56.5846 67.6522 56.5828 66.9035C56.5811 66.1394 56.5804 65.3754 56.5796 64.6114C56.5779 63.1122 56.5751 61.6131 56.5717 60.114C55.616 60.9 54.7668 61.7621 53.9109 62.6546C53.6111 62.9628 53.311 63.2708 53.0107 63.5785C52.5422 64.0585 52.0748 64.5394 51.6122 65.0251C51.3087 65.3435 51.0031 65.6596 50.6948 65.9734C50.4068 66.2666 50.1218 66.5628 49.8405 66.8625C48.7849 67.9231 47.6959 68.4098 46.3005 68.8546C45.94 68.9706 45.5826 69.0934 45.2253 69.2186C44.4477 69.4907 43.6678 69.7558 42.8873 70.0194C42.7474 70.0667 42.6075 70.114 42.4634 70.1627C41.7262 70.4116 40.9887 70.6598 40.2511 70.9075C39.6445 71.1113 39.0385 71.3167 38.4329 71.5234C37.6948 71.7754 36.9558 72.0247 36.2162 72.2721C35.9365 72.3661 35.6572 72.4611 35.3782 72.5569C34.989 72.6905 34.5988 72.8206 34.2081 72.95C34.0949 72.9897 33.9816 73.0294 33.8649 73.0703C33.0523 73.3339 32.4569 73.3307 31.6178 73.1544C31.2153 72.8324 31.2153 72.8324 30.9738 72.3494C30.8408 70.9997 31.2549 69.8834 31.6976 68.6227C31.7738 68.4006 31.8497 68.1785 31.9255 67.9563C32.1254 67.3713 32.328 66.7873 32.5312 66.2034C32.7717 65.5108 33.0092 64.8171 33.2471 64.1236C33.4422 63.5552 33.6379 62.987 33.8353 62.4194C34.2095 61.3416 34.5745 60.2624 34.9157 59.1736C34.9785 58.9759 35.0413 58.7783 35.1061 58.5746C35.2218 58.2081 35.335 57.8407 35.4451 57.4724C35.4972 57.3084 35.5493 57.1444 35.603 56.9754C35.646 56.8345 35.6889 56.6936 35.7332 56.5485C36.3989 55.227 37.5727 54.3862 38.7332 53.5176C41.5668 51.388 44.2634 49.0966 46.9021 46.7314C47.0171 46.6285 47.132 46.5257 47.2505 46.4197C53.1826 41.0944 57.4163 36.0617 57.8836 27.8518C58.016 25.2956 57.958 22.7526 57.8295 20.1977C57.8219 20.0401 57.8143 19.8825 57.8065 19.7202C57.6436 16.3862 57.3782 13.0646 56.954 9.75329C56.9397 9.63845 56.9255 9.5236 56.9108 9.40528C56.6846 7.61601 56.389 5.80906 54.9618 4.57128C53.7554 3.74352 52.5536 3.39374 51.0891 3.40561C50.9632 3.40533 50.8374 3.40506 50.7077 3.40477C50.2884 3.40425 49.8693 3.40601 49.45 3.40777C49.1485 3.40787 48.847 3.40781 48.5454 3.40763C47.7286 3.40754 46.9117 3.40943 46.0949 3.41168C45.2406 3.4137 44.3863 3.41388 43.532 3.41426C41.915 3.41527 40.298 3.41791 38.6811 3.42114C36.8399 3.42474 34.9987 3.42651 33.1575 3.42812C29.3707 3.43149 25.5839 3.43715 21.7972 3.44433ZM17.7776 6.47753C17.6758 6.5789 17.5739 6.68026 17.469 6.7847C17.3006 6.95367 17.3005 6.95367 17.1287 7.12607C17.0109 7.24358 16.8931 7.36109 16.7717 7.48216C16.3802 7.87299 15.9892 8.2644 15.5983 8.65586C15.3279 8.92621 15.0574 9.19653 14.7869 9.46684C14.2191 10.0343 13.6517 10.6022 13.0844 11.1702C12.3553 11.9002 11.6255 12.6295 10.8955 13.3585C10.3365 13.9169 9.77797 14.4756 9.21954 15.0345C8.9505 15.3036 8.68134 15.5726 8.41207 15.8415C8.03655 16.2167 7.66155 16.5923 7.28668 16.968C7.11771 17.1365 7.11771 17.1365 6.94531 17.3084C6.79327 17.4611 6.79327 17.4611 6.63815 17.617C6.54932 17.7059 6.46048 17.7947 6.36896 17.8863C6.16286 18.0678 6.16286 18.0678 6.18084 18.2557C7.32066 18.2721 8.46046 18.2834 9.60037 18.2911C9.98762 18.2943 10.3749 18.2987 10.7621 18.3043C11.3208 18.3122 11.8794 18.3158 12.4382 18.3186C12.6095 18.3219 12.7808 18.3252 12.9573 18.3287C14.56 18.3291 15.836 17.903 17.007 16.7936C18.2958 15.3842 18.4663 13.9036 18.4478 12.0575C18.4473 11.8842 18.4469 11.7109 18.4464 11.5324C18.4446 10.9829 18.4406 10.4335 18.4365 9.88406C18.4348 9.50988 18.4334 9.13569 18.432 8.76151C18.4285 7.84773 18.4231 6.93398 18.4163 6.02022C18.1295 6.02022 17.9715 6.2837 17.7776 6.47753ZM65.8993 30.7931C65.7276 30.9672 65.5558 31.1412 65.3839 31.315C64.9674 31.7368 64.5525 32.16 64.1384 32.5841C64.3792 33.1459 64.7006 33.5074 65.1324 33.9367C65.271 34.0752 65.4096 34.2138 65.5524 34.3565C65.7021 34.5046 65.8519 34.6527 66.0062 34.8053C66.161 34.9595 66.3158 35.1138 66.4704 35.2682C66.8768 35.6733 67.2841 36.0775 67.6916 36.4814C68.1077 36.8942 68.5228 37.3078 68.938 37.7214C69.7522 38.5321 70.5673 39.3418 71.3831 40.1508C72.3398 39.3413 73.2466 38.4941 74.1401 37.6151C74.2819 37.4794 74.4236 37.3437 74.5696 37.2039C75.8519 35.939 76.6998 34.6485 76.7462 32.8155C76.7253 31.25 76.2388 30.0176 75.1532 28.8832C71.653 25.971 68.5556 28.0705 65.8993 30.7931ZM60.7995 35.8814C60.7172 35.9647 60.6348 36.048 60.5499 36.1339C60.4622 36.2213 60.3745 36.3088 60.2841 36.3988C59.9884 36.694 59.6939 36.9903 59.3994 37.2866C59.1885 37.4976 58.9775 37.7085 58.7664 37.9194C58.1919 38.4938 57.6185 39.0692 57.0452 39.6447C56.4465 40.2454 55.8469 40.8452 55.2474 41.4451C54.1115 42.5819 52.9765 43.7196 51.8418 44.8576C50.5502 46.1527 49.2577 47.447 47.9651 48.7412C45.3055 51.4041 42.6471 54.0682 39.9894 56.7331C40.5216 57.3636 41.0566 57.9815 41.6414 58.5644C41.767 58.69 41.8927 58.8156 42.0221 58.945C42.1545 59.0765 42.2868 59.2081 42.4232 59.3436C42.5612 59.4813 42.6992 59.6191 42.8414 59.7611C43.2789 60.1977 43.717 60.6338 44.1551 61.0699C44.4533 61.3672 44.7513 61.6645 45.0494 61.9619C45.7772 62.688 46.5055 63.4136 47.2341 64.1388C47.8634 63.8831 48.287 63.4521 48.7562 62.9774C48.8429 62.891 48.9295 62.8046 49.0188 62.7156C49.3091 62.4259 49.5981 62.1351 49.8872 61.8442C50.095 61.6363 50.3029 61.4285 50.5108 61.2207C51.0753 60.6564 51.6388 60.091 52.2021 59.5254C52.7909 58.9346 53.3806 58.3447 53.9702 57.7547C55.0867 56.6373 56.2023 55.519 57.3176 54.4004C58.5874 53.1271 59.8581 51.8546 61.1289 50.5822C63.743 47.9647 66.356 45.3461 68.9682 42.7267C68.4367 42.0976 67.9024 41.4798 67.3213 40.8954C67.1967 40.7698 67.0722 40.6442 66.9438 40.5148C66.7468 40.3175 66.7468 40.3175 66.5458 40.1162C66.4085 39.9784 66.2713 39.8407 66.1299 39.6987C65.8417 39.4097 65.5532 39.1208 65.2645 38.8321C64.821 38.3883 64.3787 37.9431 63.9365 37.4979C63.6559 37.2168 63.3752 36.9358 63.0945 36.6548C62.9618 36.521 62.8292 36.3872 62.6925 36.2494C62.5699 36.1273 62.4474 36.0052 62.3211 35.8795C62.2132 35.7713 62.1053 35.6632 61.9941 35.5518C61.4539 35.091 61.2332 35.4514 60.7995 35.8814ZM38.2185 60.114C37.9092 61.0186 37.6 61.9233 37.2909 62.828C37.186 63.1349 37.0811 63.4419 36.9761 63.7488C36.7268 64.4782 36.4777 65.2078 36.2297 65.9377C36.0695 66.4087 35.9075 66.879 35.7423 67.3483C35.682 67.5219 35.6217 67.6955 35.5596 67.8743C35.5085 68.019 35.4574 68.1637 35.4047 68.3128C35.2803 68.6535 35.2803 68.6535 35.4816 68.9686C36.6452 68.5821 37.8086 68.1952 38.9719 67.8081C39.3679 67.6764 39.7639 67.5447 40.16 67.4132C40.7283 67.2244 41.2965 67.0353 41.8647 66.8461C42.0427 66.7871 42.2206 66.728 42.4039 66.6672C42.5683 66.6124 42.7327 66.5577 42.902 66.5012C43.0471 66.4529 43.1923 66.4047 43.3418 66.355C43.6935 66.2395 43.6935 66.2395 44.0143 66.0707C43.7954 65.5816 43.5492 65.2436 43.1706 64.8659C43.0648 64.7596 42.9589 64.6533 42.8499 64.5438C42.7359 64.4309 42.6218 64.318 42.5043 64.2017C42.3872 64.0847 42.2701 63.9677 42.1495 63.8471C41.9024 63.6004 41.6548 63.3542 41.407 63.1083C41.0259 62.7301 40.6461 62.3507 40.2664 61.971C40.0264 61.7318 39.7863 61.4926 39.5461 61.2535C39.4317 61.1393 39.3173 61.0251 39.1995 60.9075C39.0942 60.8032 38.9889 60.6989 38.8804 60.5914C38.7873 60.499 38.6943 60.4066 38.5984 60.3113C38.4087 60.096 38.4087 60.096 38.2185 60.114Z" fill="#B31A1C"/>
<path d="M24.1416 54.9118C26.4115 56.6463 27.9779 58.8406 28.4583 61.7038C28.7955 64.6548 28.1073 67.3727 26.2886 69.7289C24.5865 71.7227 22.1747 73.1069 19.536 73.3451C16.525 73.5318 13.8976 72.7456 11.5603 70.7904C9.73465 69.0387 8.49823 66.6857 8.38064 64.1419C8.32744 61.0683 8.96722 58.583 11.1217 56.2846C14.5248 52.8047 20.0954 52.0873 24.1416 54.9118ZM13.9085 58.504C13.8058 58.6001 13.703 58.6962 13.5972 58.7952C12.4055 60.0279 11.8896 61.5979 11.7753 63.2835C11.805 65.0088 12.5663 66.7539 13.7475 68.0026C15.0656 69.1989 16.7804 69.9797 18.5773 69.9345C20.4673 69.8005 22.3042 68.9447 23.5681 67.5196C24.7119 65.9981 25.218 64.2647 25.017 62.3678C24.6583 60.5185 23.7364 59.0486 22.2801 57.86C21.7618 57.5348 21.2377 57.2824 20.6702 57.0551C20.4976 56.9853 20.3249 56.9156 20.147 56.8438C17.7729 56.4085 15.6817 56.8402 13.9085 58.504Z" fill="#B31A1C"/>
<path d="M10.0843 34.9774C10.3007 34.9763 10.3007 34.9763 10.5214 34.9752C10.6809 34.9752 10.8404 34.9753 11.0048 34.9753C11.1734 34.9747 11.3421 34.9741 11.5159 34.9735C12.0848 34.9717 12.6537 34.9711 13.2226 34.9705C13.629 34.9695 14.0354 34.9684 14.4417 34.9673C15.6639 34.9642 16.8861 34.9625 18.1082 34.961C18.6835 34.9603 19.2588 34.9595 19.834 34.9586C21.7458 34.9559 23.6576 34.9536 25.5694 34.9524C26.0657 34.9521 26.562 34.9518 27.0582 34.9515C27.2432 34.9513 27.2432 34.9513 27.432 34.9512C29.4308 34.9499 31.4296 34.9458 33.4284 34.9406C35.4796 34.9353 37.5308 34.9324 39.582 34.9318C40.7341 34.9315 41.8861 34.9301 43.0382 34.926C44.1216 34.9221 45.205 34.9215 46.2884 34.9232C46.6866 34.9233 47.0848 34.9222 47.4829 34.92C48.0255 34.9172 48.568 34.9183 49.1106 34.9204C49.269 34.9187 49.4274 34.9169 49.5907 34.9151C50.2862 34.9217 50.67 34.9335 51.2725 35.3057C51.7931 35.8749 51.7951 36.3028 51.7891 37.0498C51.72 37.5836 51.4829 37.8566 51.098 38.2188C50.7245 38.4056 50.5107 38.4003 50.0949 38.401C49.9512 38.4016 49.8075 38.4022 49.6595 38.4029C49.5006 38.4027 49.3417 38.4026 49.178 38.4024C49.01 38.4029 48.842 38.4034 48.6689 38.4039C48.1022 38.4053 47.5355 38.4055 46.9689 38.4058C46.5641 38.4065 46.1593 38.4073 45.7545 38.4082C44.6522 38.4103 43.5498 38.4114 42.4475 38.4121C41.7594 38.4125 41.0713 38.4132 40.3833 38.4139C38.4789 38.4159 36.5746 38.4175 34.6702 38.4181C34.5483 38.4181 34.4264 38.4182 34.3007 38.4182C34.1785 38.4182 34.0563 38.4183 33.9303 38.4183C33.6826 38.4184 33.435 38.4184 33.1873 38.4185C33.003 38.4186 33.003 38.4186 32.815 38.4186C30.824 38.4193 28.833 38.4221 26.842 38.4258C24.7988 38.4296 22.7556 38.4316 20.7123 38.4318C19.5648 38.432 18.4172 38.4329 17.2697 38.4358C16.1905 38.4386 15.1113 38.4388 14.0321 38.4374C13.6355 38.4373 13.2389 38.438 12.8423 38.4396C12.3018 38.4416 11.7615 38.4407 11.221 38.439C10.9843 38.4409 10.9843 38.4409 10.7428 38.4429C9.94995 38.4371 9.39748 38.4201 8.75674 37.8969C8.37983 37.4123 8.3684 36.8862 8.38193 36.2819C8.46543 35.7809 8.72221 35.506 9.07873 35.16C9.45268 34.973 9.66787 34.9783 10.0843 34.9774Z" fill="#B31A1C"/>
<path d="M10.2794 26.5859C10.4949 26.5843 10.4949 26.5843 10.7148 26.5827C10.872 26.5832 11.0292 26.5837 11.1912 26.5842C11.3587 26.5835 11.5262 26.5828 11.6988 26.582C12.2619 26.58 12.8249 26.5803 13.388 26.5805C13.791 26.5796 14.194 26.5785 14.597 26.5772C15.5791 26.5747 16.5612 26.5737 17.5433 26.5735C18.3416 26.5733 19.1398 26.5727 19.9381 26.5717C22.2012 26.5688 24.4643 26.5673 26.7274 26.5676C26.9104 26.5676 26.9104 26.5676 27.0971 26.5676C27.2803 26.5676 27.2803 26.5676 27.4672 26.5677C29.4472 26.5678 31.4271 26.5647 33.4071 26.5602C35.4399 26.5556 37.4727 26.5533 39.5056 26.5536C40.6469 26.5537 41.7883 26.5528 42.9296 26.5494C44.0029 26.5461 45.0761 26.5462 46.1494 26.5486C46.5436 26.5489 46.9378 26.5481 47.332 26.5462C47.8696 26.5437 48.407 26.5452 48.9446 26.5477C49.1793 26.5452 49.1793 26.5452 49.4188 26.5427C50.3478 26.5522 50.8713 26.6557 51.5809 27.2713C51.8592 27.8279 51.8208 28.4336 51.7419 29.0422C51.4531 29.5043 51.2617 29.7653 50.776 30.0082C50.5485 30.0236 50.3204 30.0292 50.0924 30.0298C49.9482 30.0305 49.8039 30.0312 49.6552 30.0319C49.4957 30.0319 49.3362 30.0319 49.1719 30.0318C49.0032 30.0324 48.8346 30.033 48.6608 30.0336C48.0919 30.0354 47.523 30.036 46.9541 30.0366C46.5477 30.0377 46.1413 30.0387 45.735 30.0399C44.5128 30.043 43.2906 30.0447 42.0685 30.0461C41.4932 30.0468 40.9179 30.0477 40.3427 30.0485C38.4309 30.0512 36.5191 30.0536 34.6072 30.0547C34.111 30.055 33.6147 30.0554 33.1185 30.0557C32.9335 30.0558 32.9335 30.0558 32.7447 30.0559C30.7459 30.0572 28.7471 30.0613 26.7483 30.0665C24.6971 30.0719 22.6459 30.0748 20.5947 30.0753C19.4426 30.0756 18.2906 30.077 17.1385 30.0812C16.0551 30.085 14.9717 30.0856 13.8883 30.0839C13.4901 30.0839 13.0919 30.0849 12.6938 30.0871C12.1512 30.0899 11.6087 30.0888 11.0661 30.0867C10.9077 30.0884 10.7493 30.0902 10.586 30.092C9.89051 30.0854 9.50671 30.0736 8.9042 29.7014C8.41863 29.1706 8.38909 28.8007 8.39953 28.0819C8.45097 27.6033 8.61411 27.318 8.91772 26.9493C9.38562 26.6639 9.73484 26.5869 10.2794 26.5859Z" fill="#B31A1C"/>
<path d="M10.6921 43.187C10.8948 43.1861 11.0975 43.1852 11.3064 43.1842C11.5314 43.184 11.7565 43.1838 11.9815 43.1837C12.2182 43.1829 12.4549 43.1821 12.6916 43.1812C13.3349 43.1791 13.9782 43.1781 14.6215 43.1774C15.0234 43.1769 15.4253 43.1763 15.8271 43.1755C17.0843 43.1733 18.3414 43.1718 19.5986 43.1712C21.0501 43.1704 22.5017 43.1676 23.9532 43.1629C25.075 43.1595 26.1969 43.1578 27.3187 43.1576C27.9888 43.1575 28.6589 43.1565 29.329 43.1536C29.9594 43.151 30.5896 43.1506 31.22 43.152C31.4512 43.1522 31.6825 43.1515 31.9137 43.1499C32.2296 43.1478 32.5455 43.1491 32.8613 43.1504C33.0381 43.1502 33.2148 43.15 33.3968 43.1497C34.065 43.234 34.4821 43.5115 34.9684 43.9643C35.2515 44.5155 35.2845 45.0276 35.1596 45.6245C34.8414 46.1915 34.4998 46.5421 33.8717 46.7515C33.5488 46.7672 33.2255 46.7732 32.9022 46.7741C32.6995 46.775 32.4968 46.7759 32.288 46.7769C32.0629 46.7771 31.8379 46.7772 31.6128 46.7774C31.3761 46.7781 31.1395 46.779 30.9028 46.7798C30.2595 46.7819 29.6161 46.783 28.9728 46.7837C28.571 46.7842 28.1691 46.7848 27.7673 46.7855C26.5101 46.7877 25.2529 46.7893 23.9958 46.7899C22.5442 46.7906 21.0927 46.7935 19.6412 46.7981C18.5193 46.8016 17.3975 46.8032 16.2757 46.8035C15.6055 46.8036 14.9354 46.8046 14.2653 46.8074C13.635 46.8101 13.0047 46.8105 12.3744 46.809C12.1432 46.8089 11.9119 46.8096 11.6807 46.8112C11.3648 46.8132 11.0489 46.812 10.733 46.8106C10.5563 46.8109 10.3796 46.8111 10.1975 46.8113C9.52936 46.7271 9.11227 46.4496 8.62592 45.9968C8.34287 45.4456 8.30987 44.9334 8.43474 44.3366C8.98549 43.3553 9.62217 43.1899 10.6921 43.187Z" fill="#B31A1C"/>
</svg>
