<svg width="79" height="79" viewBox="0 0 79 79" fill="none" xmlns="http://www.w3.org/2000/svg">
<path fill-rule="evenodd" clip-rule="evenodd" d="M14.6184 0.170512C19.2421 -0.48415 23.2557 0.746318 26.6594 3.86192C28.2219 5.95201 29.7161 8.09069 31.1418 10.2779C39.547 11.0645 45.5529 15.254 49.1594 22.8463C49.7332 24.2037 50.1432 25.6099 50.3899 27.065C50.6745 32.391 50.7332 37.723 50.5657 43.0611C50.4778 43.3834 50.2726 43.5885 49.9504 43.6764C48.7943 44.0508 48.0618 43.67 47.7532 42.5338C47.7444 37.4887 47.6271 32.4496 47.4016 27.4166C46.102 21.5666 42.7328 17.3772 37.2942 14.8482C34.7381 13.88 32.1014 13.2942 29.384 13.0904C27.9266 10.9669 26.4912 8.82825 25.0774 6.67442C23.1169 4.33103 20.6266 3.21773 17.6067 3.33457C18.4975 5.86082 19.4058 8.38034 20.3313 10.8932C20.5062 11.3548 20.5647 11.8236 20.5071 12.2994C20.0474 13.0523 19.52 13.7554 18.925 14.4088C13.5864 20.2744 8.31293 26.1925 3.10471 32.1627C2.98752 32.5728 2.98752 32.9831 3.10471 33.3932C4.55438 35.4134 5.96063 37.4643 7.32346 39.5455C7.9764 40.5276 8.73813 40.6447 9.60862 39.8971C10.2608 38.915 10.9346 37.9482 11.6301 36.9967C12.078 36.5674 12.6053 36.2746 13.2121 36.1178C17.3048 35.8905 21.4065 35.7734 25.5168 35.7662C28.9685 34.7569 30.7556 32.4424 30.8782 28.8229C31.3248 28.0197 31.9988 27.756 32.8996 28.0318C33.1512 28.1136 33.3561 28.2602 33.5149 28.4713C33.9556 32.1912 32.6372 35.1503 29.5598 37.3483C28.4641 37.9696 27.3216 38.4678 26.1321 38.8424C24.9364 42.4883 23.7059 46.1211 22.4406 49.7408C20.3411 54.858 16.7376 58.4907 11.6301 60.6393C11.4547 62.0406 11.3961 63.4469 11.4543 64.858C17.5483 64.8287 23.6421 64.858 29.7356 64.9459C30.6176 65.6002 30.7641 66.3912 30.175 67.319C30.0432 67.429 29.8966 67.5169 29.7356 67.5826C22.177 67.6412 14.6184 67.6999 7.05979 67.7584C6.70489 67.8375 6.38263 67.9839 6.09299 68.1979C5.80664 70.525 5.74806 72.8687 5.91721 75.2291C6.0051 75.5513 6.21019 75.7565 6.53245 75.8444C16.0325 75.8473 25.5247 75.9646 35.009 76.1959C35.9465 77.0748 35.9465 77.9537 35.009 78.8326C25.2825 78.9499 15.5558 78.9499 5.82932 78.8326C4.39377 78.3346 3.42697 77.3679 2.92893 75.9322C2.76106 73.0494 2.81965 70.1782 3.10471 67.319C4.26924 65.2001 6.05634 64.3797 8.46604 64.858C8.43677 62.865 8.46606 60.8727 8.55393 58.8815C9.28789 58.2443 10.1375 57.8048 11.1028 57.5631C15.2211 55.5541 18.1215 52.4194 19.8039 48.1588C20.8488 45.0536 21.8741 41.9481 22.8801 38.8424C20.0084 38.813 17.1373 38.8424 14.2668 38.9303C13.4065 39.622 12.7326 40.4717 12.2453 41.4791C10.9182 43.0933 9.24832 43.65 7.23557 43.149C6.53076 42.913 5.91552 42.5322 5.38987 42.0065C3.5631 39.4175 1.80528 36.7808 0.11643 34.0963C-0.167123 32.6426 0.067246 31.2949 0.819555 30.0533C6.26877 23.9595 11.718 17.8659 17.1672 11.7721C17.2845 11.5377 17.2845 11.3033 17.1672 11.069C16.0779 8.09396 15.0232 5.10568 14.0031 2.10411C13.8066 1.32657 14.0118 0.682035 14.6184 0.170512Z" fill="#B31A1C"/>
<path fill-rule="evenodd" clip-rule="evenodd" d="M47.4895 47.983C54.3462 47.3252 59.6488 49.8447 63.3977 55.5416C64.5148 57.5743 65.1885 59.7424 65.4192 62.0455C67.7636 62.0749 70.1074 62.0455 72.4504 61.9576C73.8034 60.5459 75.2097 59.1982 76.6692 57.9146C78.6022 57.6446 79.2175 58.4357 78.5149 60.2877C77.9582 60.8444 77.4016 61.4009 76.8449 61.9576C78.6518 61.9655 79.2085 62.8152 78.5149 64.5064C77.9998 64.7817 77.4431 64.9283 76.8449 64.9459C77.525 65.5671 78.1403 66.2409 78.6907 66.9674C78.8819 68.8259 78.0909 69.4411 76.3176 68.8131C75.0286 67.5241 73.7394 66.2349 72.4504 64.9459C70.1074 64.858 67.7636 64.8286 65.4192 64.858C64.2471 72.8562 59.6767 77.5144 51.7082 78.8326C45.2917 79.3591 40.2819 76.986 36.6789 71.7135C32.8763 64.3706 33.8431 57.7202 39.5793 51.7623C41.9086 49.8357 44.5453 48.5759 47.4895 47.983ZM49.7746 50.7955C56.809 51.3849 61.0278 55.1348 62.4309 62.0455C61.0819 62.0747 59.7342 62.0455 58.3879 61.9576C56.9293 56.81 53.5309 54.5249 48.1926 55.1021C43.9485 56.2706 41.6634 59.0537 41.3371 63.4518C42.0856 69.326 45.4255 72.1093 51.3567 71.8014C55.1455 71.001 57.4892 68.7159 58.3879 64.9459C59.7342 64.858 61.0819 64.8288 62.4309 64.858C61.1155 71.7558 56.9555 75.4472 49.9504 75.9322C42.2002 75.3012 37.9815 71.1118 37.2942 63.3639C37.7749 57.1405 40.9975 53.0975 46.9621 51.235C47.924 51.0826 48.8616 50.9361 49.7746 50.7955ZM48.7199 58.0025C51.9072 57.6315 54.0753 58.9206 55.2239 61.8697C53.2342 62.016 51.2421 62.1039 49.2473 62.1334C48.9251 62.2213 48.7199 62.4264 48.6321 62.7486C48.5148 63.2174 48.5148 63.6861 48.6321 64.1549C48.7199 64.4771 48.9251 64.6822 49.2473 64.7701C51.2421 64.7996 53.2342 64.8875 55.2239 65.0338C53.5226 68.812 50.7687 69.8374 46.9621 68.11C44.3344 66.0324 43.7779 63.4836 45.2922 60.4635C46.172 59.2592 47.3146 58.4388 48.7199 58.0025Z" fill="#B31A1C"/>
</svg>
